<svg width="500" height="500" viewBox="0 0 500 500" fill="none" xmlns="http://www.w3.org/2000/svg">
<path d="M116.35 343.88H99.24L92.61 248.96H109.72L116.35 343.88Z" fill="#EBEBEB"/>
<path d="M355.06 343.88H372.17L365.53 248.96H348.42L355.06 343.88Z" fill="#EBEBEB"/>
<path d="M358.63 351.82H386.81L386.26 343.88H358.08L358.63 351.82Z" fill="#E0E0E0"/>
<path d="M50.66 282.5L82.66 282.38C83.9065 282.38 85.102 282.875 85.9834 283.757C86.8648 284.638 87.36 285.834 87.36 287.08V298.37C87.36 299.619 87.8562 300.817 88.7395 301.701C89.6228 302.584 90.8208 303.08 92.07 303.08H139.07C140.318 303.08 141.516 302.586 142.4 301.705C143.285 300.824 143.785 299.628 143.79 298.38V256.92C143.791 256.303 143.914 255.693 144.152 255.124C144.389 254.555 144.737 254.038 145.174 253.603C145.612 253.168 146.131 252.824 146.701 252.59C147.272 252.357 147.883 252.237 148.5 252.24H158.5C159.749 252.24 160.947 251.744 161.83 250.861C162.714 249.977 163.21 248.779 163.21 247.53V224.91C163.209 224.293 163.329 223.681 163.565 223.11C163.801 222.539 164.147 222.02 164.584 221.584C165.02 221.147 165.539 220.801 166.11 220.565C166.681 220.329 167.292 220.209 167.91 220.21H184.3C185.547 220.21 186.742 220.705 187.623 221.587C188.505 222.468 189 223.664 189 224.91V231.57C189 232.819 189.496 234.017 190.38 234.901C191.263 235.784 192.461 236.28 193.71 236.28H195.24C196.486 236.277 197.68 235.781 198.56 234.901C199.441 234.02 199.937 232.826 199.94 231.58V207C199.94 205.751 200.436 204.553 201.32 203.67C202.203 202.786 203.401 202.29 204.65 202.29H220.88C222.128 202.293 223.325 202.79 224.208 203.673C225.09 204.555 225.587 205.752 225.59 207V231.66C225.59 232.907 226.085 234.102 226.967 234.983C227.848 235.865 229.043 236.36 230.29 236.36H235.35C236.597 236.36 237.792 235.865 238.673 234.983C239.555 234.102 240.05 232.907 240.05 231.66V181.91V157H241.05V172.34C241.135 172.205 241.232 172.078 241.34 171.96L278.69 150.51C279.48 149.65 279.93 150.51 279.93 149.36V118.66L282.5 116.82L329.1 83.3901V70.0901H330.1V82.6701L330.29 82.5401V231.63C330.29 232.879 330.786 234.077 331.67 234.961C332.553 235.844 333.751 236.34 335 236.34H341.13C341.748 236.341 342.36 236.221 342.932 235.985C343.503 235.75 344.022 235.404 344.46 234.967C344.897 234.53 345.244 234.012 345.481 233.441C345.718 232.87 345.84 232.258 345.84 231.64L347.31 176C347.322 175.463 347.448 174.935 347.68 174.45L356.8 155.45H357.48V133.86C357.48 132.852 357.88 131.886 358.593 131.173C359.306 130.46 360.272 130.06 361.28 130.06H363.12V114.81H364.12V130.06H365.12C366.129 130.06 367.096 130.46 367.811 131.172C368.525 131.885 368.927 132.851 368.93 133.86V134.86H373.2V133.86C373.2 132.852 373.6 131.886 374.313 131.173C375.026 130.46 375.992 130.06 377 130.06H378.62V114.81H379.62V130.06H380.8C381.809 130.06 382.776 130.46 383.491 131.172C384.205 131.885 384.607 132.851 384.61 133.86V155.39H385.29L394.42 174.39C394.646 174.877 394.772 175.404 394.79 175.94L396.29 231.55C396.29 232.799 396.786 233.997 397.67 234.881C398.553 235.764 399.751 236.26 401 236.26H409.61C410.857 236.26 412.052 236.755 412.933 237.637C413.815 238.518 414.31 239.714 414.31 240.96V247.44C414.31 248.687 414.805 249.882 415.687 250.763C416.568 251.645 417.763 252.14 419.01 252.14H425.16C426.269 252.134 427.344 252.521 428.194 253.234C429.044 253.946 429.613 254.937 429.8 256.03L446.18 342.11C446.24 342.403 446.27 342.701 446.27 343C446.265 344.248 445.765 345.444 444.88 346.325C443.996 347.206 442.798 347.7 441.55 347.7H50.71C49.72 347.73 50.66 282.5 50.66 282.5Z" fill="#F5F5F5"/>
<path d="M403.17 249.46V248.79C402.709 243.275 400.214 238.129 396.171 234.352C392.127 230.574 386.823 228.435 381.29 228.35H87C84.303 228.322 81.63 228.858 79.1524 229.924C76.6748 230.99 74.4474 232.562 72.6132 234.539C70.7789 236.517 69.3783 238.856 68.5012 241.406C67.6241 243.957 67.2899 246.663 67.52 249.35H71.39L76.08 316.35H72.21L75.77 367.35H131.71C131.71 367.35 131.04 361.29 130.81 358.01C130.477 354.182 130.95 350.326 132.2 346.692C133.449 343.058 135.447 339.727 138.064 336.913C140.681 334.099 143.859 331.865 147.393 330.356C150.927 328.846 154.738 328.095 158.58 328.15C175.07 328.15 189.38 341.52 190.53 358.01C190.76 361.29 191.53 367.35 191.53 367.35H284.4C284.4 367.35 284.31 361.29 284.08 358.01C283.748 354.181 284.223 350.325 285.474 346.691C286.724 343.057 288.723 339.726 291.341 336.912C293.958 334.099 297.137 331.865 300.671 330.356C304.206 328.846 308.017 328.095 311.86 328.15C328.35 328.15 342.66 341.52 343.81 358.01C344.04 361.29 344.21 367.35 344.21 367.35H411.42L405.72 285.75L397.99 285.83L395.45 249.58L403.17 249.46ZM114.17 356.46H86L78.54 249.38H106.72L114.17 356.46ZM153.36 285.71H127.36C125.963 285.69 124.624 285.15 123.603 284.196C122.583 283.242 121.954 281.942 121.84 280.55L120.02 254.55C119.963 253.888 120.045 253.222 120.261 252.594C120.477 251.966 120.822 251.39 121.274 250.904C121.727 250.418 122.276 250.032 122.887 249.771C123.497 249.51 124.156 249.38 124.82 249.39H150.82C152.217 249.41 153.556 249.95 154.577 250.904C155.597 251.858 156.226 253.158 156.34 254.55L158.16 280.55C158.219 281.209 158.139 281.873 157.926 282.499C157.713 283.126 157.371 283.701 156.923 284.187C156.475 284.674 155.93 285.062 155.323 285.326C154.717 285.59 154.062 285.724 153.4 285.72L153.36 285.71ZM211.9 285.71H185.85C184.452 285.69 183.112 285.151 182.09 284.197C181.067 283.243 180.437 281.943 180.32 280.55L178.5 254.55C178.443 253.887 178.525 253.22 178.741 252.592C178.958 251.963 179.304 251.387 179.758 250.9C180.211 250.414 180.762 250.028 181.374 249.768C181.985 249.508 182.645 249.379 183.31 249.39H209.4C210.799 249.408 212.14 249.946 213.163 250.9C214.186 251.855 214.816 253.156 214.93 254.55L216.75 280.55C216.809 281.213 216.728 281.881 216.512 282.511C216.296 283.141 215.95 283.719 215.496 284.206C215.043 284.694 214.492 285.08 213.879 285.341C213.266 285.602 212.606 285.731 211.94 285.72L211.9 285.71ZM270.37 285.71H244.37C242.971 285.692 241.63 285.154 240.607 284.199C239.584 283.245 238.954 281.944 238.84 280.55L237.02 254.55C236.963 253.887 237.045 253.22 237.261 252.592C237.478 251.963 237.824 251.387 238.278 250.9C238.731 250.414 239.282 250.028 239.894 249.768C240.505 249.508 241.165 249.379 241.83 249.39H267.83C269.227 249.41 270.566 249.95 271.587 250.904C272.607 251.858 273.236 253.158 273.35 254.55L275.17 280.55C275.229 281.209 275.149 281.873 274.936 282.499C274.723 283.126 274.381 283.701 273.933 284.187C273.485 284.674 272.94 285.062 272.333 285.326C271.727 285.59 271.072 285.724 270.41 285.72L270.37 285.71ZM328.92 285.71H302.92C301.523 285.69 300.184 285.15 299.163 284.196C298.143 283.242 297.514 281.942 297.4 280.55L295.58 254.55C295.523 253.888 295.605 253.222 295.821 252.594C296.037 251.966 296.382 251.39 296.834 250.904C297.287 250.418 297.836 250.032 298.447 249.771C299.057 249.51 299.716 249.38 300.38 249.39H326.38C327.777 249.41 329.116 249.95 330.137 250.904C331.157 251.858 331.786 253.158 331.9 254.55L333.72 280.55C333.778 281.206 333.7 281.866 333.489 282.49C333.278 283.113 332.94 283.686 332.497 284.173C332.053 284.659 331.513 285.047 330.911 285.314C330.309 285.58 329.658 285.718 329 285.72L328.92 285.71ZM387 356.47H358.84L351.35 249.38H379.53L387 356.47Z" fill="#E0E0E0"/>
<path d="M159.46 334.68C156.418 334.638 153.401 335.234 150.603 336.429C147.805 337.625 145.289 339.393 143.216 341.62C141.144 343.847 139.561 346.484 138.569 349.36C137.578 352.237 137.2 355.289 137.46 358.32C137.979 364.708 140.859 370.672 145.539 375.051C150.219 379.429 156.362 381.907 162.77 382C165.819 382.058 168.846 381.474 171.654 380.286C174.462 379.097 176.989 377.332 179.071 375.103C181.152 372.875 182.741 370.233 183.735 367.35C184.729 364.467 185.106 361.408 184.84 358.37C184.331 351.966 181.444 345.983 176.748 341.599C172.051 337.215 165.884 334.747 159.46 334.68ZM161.94 370.18C158.75 370.094 155.704 368.838 153.38 366.651C151.057 364.464 149.619 361.499 149.34 358.32C149.212 356.811 149.4 355.292 149.894 353.86C150.388 352.428 151.175 351.115 152.207 350.005C153.238 348.896 154.49 348.015 155.882 347.418C157.274 346.821 158.775 346.522 160.29 346.54C163.503 346.56 166.593 347.779 168.955 349.958C171.317 352.137 172.781 355.119 173.06 358.32C173.18 359.845 172.98 361.379 172.473 362.823C171.967 364.267 171.165 365.589 170.118 366.705C169.072 367.821 167.804 368.707 166.396 369.305C164.987 369.903 163.47 370.201 161.94 370.18Z" fill="#E0E0E0"/>
<path d="M312.64 334.68C309.595 334.629 306.574 335.218 303.772 336.411C300.969 337.603 298.449 339.371 296.375 341.6C294.3 343.829 292.718 346.47 291.73 349.35C290.742 352.231 290.37 355.287 290.64 358.32C291.147 364.721 294.03 370.701 298.723 375.083C303.416 379.465 309.579 381.933 316 382C319.048 382.049 322.071 381.456 324.875 380.26C327.679 379.065 330.2 377.293 332.274 375.06C334.349 372.827 335.93 370.183 336.917 367.299C337.903 364.415 338.272 361.356 338 358.32C337.479 351.928 334.59 345.961 329.899 341.588C325.208 337.215 319.053 334.751 312.64 334.68ZM315.13 370.18C311.939 370.097 308.889 368.841 306.564 366.654C304.238 364.467 302.799 361.5 302.52 358.32C302.393 356.807 302.584 355.284 303.081 353.849C303.578 352.415 304.371 351.1 305.407 349.99C306.443 348.88 307.701 348 309.098 347.406C310.495 346.811 312.002 346.517 313.52 346.54C316.72 346.578 319.792 347.805 322.137 349.982C324.483 352.159 325.935 355.132 326.21 358.32C326.329 359.842 326.131 361.372 325.627 362.813C325.122 364.254 324.324 365.574 323.282 366.69C322.24 367.806 320.977 368.692 319.573 369.293C318.17 369.894 316.657 370.196 315.13 370.18Z" fill="#E0E0E0"/>
<path d="M164.64 358.41C164.674 358.786 164.628 359.165 164.505 359.523C164.383 359.88 164.186 360.208 163.929 360.484C163.671 360.761 163.358 360.98 163.011 361.127C162.663 361.275 162.288 361.347 161.91 361.34C161.115 361.328 160.353 361.022 159.772 360.481C159.19 359.94 158.829 359.202 158.76 358.41C158.728 358.033 158.775 357.653 158.899 357.295C159.022 356.937 159.22 356.609 159.478 356.332C159.736 356.055 160.049 355.835 160.397 355.687C160.746 355.538 161.121 355.464 161.5 355.47C162.296 355.48 163.059 355.787 163.64 356.331C164.221 356.875 164.578 357.617 164.64 358.41Z" fill="#E0E0E0"/>
<path d="M317.05 358.41C317.082 358.787 317.035 359.166 316.911 359.524C316.788 359.881 316.59 360.208 316.332 360.485C316.074 360.761 315.76 360.98 315.412 361.127C315.063 361.274 314.688 361.347 314.31 361.34C313.516 361.33 312.754 361.024 312.173 360.483C311.592 359.941 311.235 359.202 311.17 358.41C311.136 358.033 311.182 357.654 311.305 357.296C311.427 356.938 311.623 356.61 311.881 356.333C312.138 356.055 312.451 355.835 312.799 355.687C313.147 355.538 313.522 355.464 313.9 355.47C314.696 355.482 315.459 355.79 316.042 356.333C316.624 356.876 316.983 357.617 317.05 358.41Z" fill="#E0E0E0"/>
<path d="M113.89 351.82H85.71L85.15 343.88H113.33L113.89 351.82Z" fill="#E0E0E0"/>
<path d="M74.69 351.82L73.24 331.1H74C75.3003 331.1 76.5523 331.593 77.5028 332.48C78.4532 333.368 79.0313 334.583 79.12 335.88L79.85 346.33C79.8997 347.036 79.8028 347.744 79.5654 348.411C79.3281 349.078 78.9553 349.688 78.4707 350.204C77.9861 350.719 77.4 351.129 76.7494 351.407C76.0987 351.685 75.3976 351.826 74.69 351.82Z" fill="#FAFAFA"/>
<path d="M62.44 282.34C60.6856 282.325 59.0008 281.652 57.7192 280.453C56.4376 279.255 55.6528 277.619 55.52 275.87L54.52 261.93C54.4565 261.104 54.5646 260.274 54.8376 259.492C55.1106 258.71 55.5424 257.994 56.106 257.387C56.6697 256.78 57.3528 256.296 58.1124 255.966C58.8721 255.637 59.6918 255.468 60.52 255.47L62.44 282.34Z" fill="#E0E0E0"/>
<path d="M55.69 267.55H54.19L53.47 257.29C53.34 255.774 53.529 254.247 54.0246 252.809C54.5202 251.37 55.3116 250.051 56.3478 248.937C57.3839 247.822 58.642 246.937 60.0408 246.338C61.4397 245.74 62.9485 245.44 64.47 245.46H72.76L72.87 246.96H64.57C63.2444 246.948 61.931 247.213 60.7139 247.738C59.4967 248.264 58.4027 249.037 57.5018 250.01C56.6009 250.982 55.913 252.132 55.4822 253.386C55.0514 254.639 54.8872 255.969 55 257.29L55.69 267.55Z" fill="#E0E0E0"/>
<path d="M438.08 224.51C438.422 224.51 438.75 224.646 438.992 224.888C439.234 225.13 439.37 225.458 439.37 225.8V381H436.79V225.78C436.798 225.442 436.937 225.121 437.178 224.884C437.418 224.647 437.742 224.513 438.08 224.51Z" fill="#E0E0E0"/>
<path d="M436.46 263.09C445.738 263.09 453.26 255.568 453.26 246.29C453.26 237.012 445.738 229.49 436.46 229.49C427.182 229.49 419.66 237.012 419.66 246.29C419.66 255.568 427.182 263.09 436.46 263.09Z" fill="#E0E0E0"/>
<path d="M434.39 263.09C443.668 263.09 451.19 255.568 451.19 246.29C451.19 237.012 443.668 229.49 434.39 229.49C425.112 229.49 417.59 237.012 417.59 246.29C417.59 255.568 425.112 263.09 434.39 263.09Z" fill="#FAFAFA"/>
<path d="M424.24 243.28L424.03 245.68H423.52L423.05 251.09H427.51C427.51 251.09 427.51 250.69 427.51 250.47C427.562 249.93 427.81 249.427 428.209 249.058C428.607 248.689 429.127 248.48 429.67 248.47C429.926 248.465 430.179 248.516 430.414 248.617C430.648 248.719 430.858 248.869 431.03 249.059C431.201 249.248 431.33 249.472 431.408 249.716C431.485 249.959 431.51 250.216 431.48 250.47C431.48 250.69 431.48 251.09 431.48 251.09H437.65C437.65 251.09 437.7 250.69 437.72 250.47C437.772 249.93 438.02 249.427 438.419 249.058C438.817 248.689 439.337 248.48 439.88 248.47C440.135 248.465 440.388 248.515 440.622 248.617C440.857 248.718 441.066 248.869 441.237 249.059C441.407 249.249 441.535 249.473 441.612 249.716C441.688 249.96 441.712 250.217 441.68 250.47C441.68 250.69 441.61 251.09 441.61 251.09H445.33L445.62 247.71H445.36L445.75 243.27H446C446.02 243.092 446.002 242.912 445.947 242.742C445.892 242.572 445.801 242.416 445.681 242.283C445.561 242.151 445.414 242.046 445.25 241.974C445.086 241.903 444.909 241.867 444.73 241.87H425.21C424.84 241.878 424.486 242.02 424.213 242.27C423.941 242.521 423.769 242.862 423.73 243.23L424.24 243.28ZM443.4 243.28H445.27L444.65 250.38H442.78L443.4 243.28ZM440.13 243.28H442.54L442.33 245.69H439.92L440.13 243.28ZM436.24 243.28H438.66L438.45 245.69H436L436.24 243.28ZM432.36 243.28H434.78L434.56 245.69H432.15L432.36 243.28ZM428.48 243.28H430.89L430.68 245.69H428.27L428.48 243.28ZM425.3 243.28H427.17L426.55 250.38H424.68L425.3 243.28Z" fill="#E0E0E0"/>
<path d="M438.09 250.5C438.069 250.7 438.09 250.902 438.153 251.093C438.216 251.284 438.319 251.459 438.456 251.607C438.592 251.755 438.759 251.871 438.944 251.95C439.129 252.028 439.329 252.065 439.53 252.06C439.956 252.055 440.364 251.893 440.678 251.605C440.992 251.317 441.188 250.924 441.23 250.5C441.253 250.3 441.233 250.098 441.171 249.906C441.109 249.715 441.007 249.539 440.872 249.39C440.736 249.242 440.57 249.124 440.386 249.044C440.201 248.965 440.001 248.926 439.8 248.93C439.372 248.935 438.96 249.098 438.645 249.388C438.329 249.678 438.132 250.074 438.09 250.5ZM438.87 250.5C438.892 250.286 438.992 250.087 439.15 249.942C439.309 249.796 439.515 249.714 439.73 249.71C439.83 249.709 439.93 249.73 440.022 249.771C440.113 249.811 440.196 249.871 440.263 249.945C440.33 250.02 440.38 250.108 440.411 250.204C440.441 250.299 440.451 250.4 440.44 250.5C440.418 250.711 440.319 250.907 440.163 251.051C440.006 251.195 439.802 251.276 439.59 251.28C439.49 251.282 439.39 251.263 439.298 251.223C439.206 251.184 439.123 251.125 439.055 251.052C438.987 250.978 438.935 250.891 438.903 250.796C438.871 250.701 438.86 250.6 438.87 250.5Z" fill="#E0E0E0"/>
<path d="M427.93 250.5C427.907 250.699 427.927 250.901 427.989 251.092C428.051 251.283 428.153 251.459 428.289 251.607C428.424 251.755 428.59 251.872 428.775 251.95C428.96 252.028 429.159 252.066 429.36 252.06C429.787 252.055 430.197 251.893 430.512 251.606C430.827 251.318 431.026 250.924 431.07 250.5C431.093 250.3 431.073 250.098 431.011 249.906C430.949 249.715 430.847 249.539 430.712 249.39C430.576 249.242 430.41 249.124 430.226 249.044C430.041 248.965 429.841 248.926 429.64 248.93C429.211 248.933 428.799 249.095 428.483 249.386C428.167 249.676 427.97 250.073 427.93 250.5ZM428.71 250.5C428.732 250.286 428.832 250.087 428.99 249.942C429.149 249.796 429.355 249.714 429.57 249.71C429.67 249.709 429.77 249.73 429.862 249.771C429.953 249.811 430.035 249.871 430.103 249.945C430.17 250.02 430.22 250.108 430.251 250.204C430.281 250.299 430.291 250.4 430.28 250.5C430.256 250.711 430.157 250.905 430.001 251.049C429.844 251.192 429.642 251.274 429.43 251.28C429.33 251.28 429.231 251.26 429.14 251.22C429.048 251.18 428.966 251.122 428.898 251.048C428.831 250.975 428.779 250.888 428.747 250.794C428.714 250.7 428.702 250.599 428.71 250.5Z" fill="#E0E0E0"/>
<path d="M429.32 100.42H363.44C355 100.42 352.96 88.6 360.93 85.83L361.24 85.73C352.42 78.38 371.77 62.89 392.78 84.34C391.15 77.19 409.78 79.77 415.54 89.53C417.57 83.12 435.38 94.25 429.32 100.42Z" fill="#F5F5F5"/>
<path d="M97.85 190.93H60.62C60.62 190.93 51.89 187.64 53.02 178.93C54.15 170.22 67.33 177.48 67.33 177.48C67.33 177.48 63.33 165.33 76.1 168.78C79.6972 169.701 82.9433 171.662 85.4331 174.416C87.9229 177.171 89.5461 180.598 90.1 184.27C90.1 184.27 106.87 181.35 97.85 190.93Z" fill="#F5F5F5"/>
<path d="M250 427.01C357.082 427.01 443.89 421.942 443.89 415.69C443.89 409.438 357.082 404.37 250 404.37C142.917 404.37 56.11 409.438 56.11 415.69C56.11 421.942 142.917 427.01 250 427.01Z" fill="#F5F5F5"/>
<path d="M135.65 86.26C135.852 88.2263 136.768 90.0504 138.223 91.388C139.679 92.7256 141.574 93.4839 143.55 93.52H195C195.93 93.5368 196.853 93.3554 197.707 92.9878C198.562 92.6202 199.328 92.0748 199.955 91.388C200.583 90.7011 201.056 89.8886 201.345 89.0044C201.634 88.1202 201.731 87.1846 201.63 86.26L200.95 78.47H135L135.65 86.26Z" fill="#3F72AF"/>
<path d="M214.49 73.8398H120.89C118.12 73.794 115.371 74.3378 112.827 75.4352C110.283 76.5326 108.002 78.1584 106.134 80.2049C104.266 82.2514 102.855 84.6717 101.994 87.3052C101.133 89.9388 100.842 92.7253 101.14 95.4798L120.82 320.33C121.418 326.193 124.141 331.634 128.476 335.627C132.811 339.619 138.458 341.886 144.35 342H238C240.77 342.046 243.519 341.502 246.063 340.405C248.607 339.307 250.888 337.681 252.756 335.635C254.624 333.588 256.035 331.168 256.896 328.534C257.757 325.901 258.048 323.114 257.75 320.36L238 95.4798C237.392 89.6273 234.667 84.1983 230.338 80.2133C226.009 76.2284 220.373 73.9619 214.49 73.8398Z" fill="#3F72AF"/>
<g opacity="0.4">
<path d="M135.65 86.2597C135.852 88.2261 136.768 90.0502 138.223 91.3878C139.679 92.7253 141.574 93.4837 143.55 93.5197H195C195.93 93.5366 196.853 93.3552 197.707 92.9876C198.562 92.62 199.328 92.0746 199.955 91.3877C200.583 90.7009 201.056 89.8883 201.345 89.0041C201.634 88.1199 201.731 87.1844 201.63 86.2597L200.95 78.4697H135L135.65 86.2597Z" fill="white"/>
<path d="M214.49 73.8398H120.89C118.12 73.794 115.371 74.3378 112.827 75.4352C110.283 76.5326 108.002 78.1584 106.134 80.2049C104.266 82.2514 102.855 84.6717 101.994 87.3052C101.133 89.9388 100.842 92.7253 101.14 95.4798L120.82 320.33C121.418 326.193 124.141 331.634 128.476 335.627C132.811 339.619 138.458 341.886 144.35 342H238C240.77 342.046 243.519 341.502 246.063 340.405C248.607 339.307 250.888 337.681 252.756 335.635C254.624 333.588 256.035 331.168 256.896 328.534C257.757 325.901 258.048 323.114 257.75 320.36L238 95.4798C237.392 89.6273 234.667 84.1983 230.338 80.2133C226.009 76.2284 220.373 73.9619 214.49 73.8398Z" fill="white"/>
</g>
<path d="M220.67 78.4599H127.07C124.877 78.4211 122.701 78.8501 120.686 79.7181C118.672 80.5862 116.866 81.8735 115.388 83.4942C113.91 85.115 112.795 87.032 112.115 89.1177C111.436 91.2034 111.21 93.4097 111.45 95.5899L131.12 320.43C131.591 325.068 133.747 329.373 137.178 332.53C140.609 335.687 145.078 337.476 149.74 337.56H243.34C245.536 337.604 247.717 337.18 249.736 336.314C251.755 335.449 253.567 334.162 255.049 332.541C256.531 330.92 257.65 329 258.332 326.912C259.013 324.823 259.241 322.614 259 320.43L239.3 95.5899C238.826 90.9506 236.669 86.6456 233.236 83.4891C229.803 80.3326 225.333 78.5434 220.67 78.4599Z" fill="#3F72AF"/>
<path opacity="0.3" d="M220.67 78.4599H127.07C124.877 78.4211 122.701 78.8501 120.686 79.7181C118.672 80.5862 116.866 81.8735 115.388 83.4942C113.91 85.115 112.795 87.032 112.115 89.1177C111.436 91.2034 111.21 93.4097 111.45 95.5899L131.12 320.43C131.591 325.068 133.747 329.373 137.178 332.53C140.609 335.687 145.078 337.476 149.74 337.56H243.34C245.536 337.604 247.717 337.18 249.736 336.314C251.755 335.449 253.567 334.162 255.049 332.541C256.531 330.92 257.65 329 258.332 326.912C259.013 324.823 259.241 322.614 259 320.43L239.3 95.5899C238.826 90.9506 236.669 86.6456 233.236 83.4891C229.803 80.3326 225.333 78.5434 220.67 78.4599Z" fill="white"/>
<path d="M220.28 74H126.68C123.91 73.9541 121.161 74.4979 118.617 75.5953C116.073 76.6927 113.792 78.3186 111.924 80.3651C110.056 82.4116 108.645 84.8319 107.784 87.4654C106.923 90.0989 106.632 92.8854 106.93 95.64L126.6 320.43C127.205 326.289 129.932 331.725 134.269 335.711C138.605 339.698 144.251 341.959 150.14 342.07H243.74C246.51 342.118 249.259 341.575 251.804 340.478C254.348 339.381 256.63 337.755 258.497 335.708C260.364 333.661 261.775 331.24 262.634 328.606C263.493 325.971 263.781 323.184 263.48 320.43L243.81 95.59C243.196 89.7406 240.466 84.3172 236.132 80.3409C231.798 76.3645 226.16 74.1094 220.28 74ZM259 320.43C259.241 322.611 259.013 324.818 258.334 326.905C257.654 328.991 256.538 330.909 255.059 332.53C253.58 334.15 251.772 335.438 249.757 336.305C247.741 337.172 245.564 337.6 243.37 337.56H149.77C145.108 337.476 140.639 335.687 137.208 332.53C133.777 329.373 131.621 325.068 131.15 320.43L111.45 95.59C111.21 93.4098 111.436 91.2034 112.115 89.1178C112.794 87.0321 113.91 85.115 115.388 83.4943C116.866 81.8735 118.672 80.5862 120.686 79.7182C122.701 78.8501 124.877 78.4212 127.07 78.46H220.67C225.333 78.5435 229.803 80.3326 233.236 83.4891C236.669 86.6456 238.826 90.9506 239.3 95.59L259 320.43Z" fill="#263238"/>
<path d="M140.76 78.5798C141.085 81.765 142.566 84.7207 144.923 86.8878C147.279 89.0548 150.349 90.283 153.55 90.3398H196C197.506 90.3658 199 90.0709 200.382 89.4748C201.765 88.8787 203.005 87.9951 204.02 86.8827C205.035 85.7703 205.802 84.4546 206.269 83.023C206.736 81.5914 206.893 80.0768 206.73 78.5798H140.76Z" fill="#263238"/>
<path d="M258.51 315.13H130.65L113.44 118.38H241.29L258.51 315.13Z" fill="white"/>
<path d="M160.5 110.25H159.66L158.93 101.85H160.11L162.59 107.92L162.06 101.85H162.88L163.62 110.25H162.62L159.88 103.46L160.5 110.25Z" fill="#263238"/>
<path d="M164 103.88C163.89 102.6 164.45 101.77 165.74 101.77C166.021 101.754 166.303 101.798 166.566 101.898C166.829 101.998 167.068 102.153 167.267 102.352C167.467 102.552 167.622 102.791 167.722 103.054C167.822 103.317 167.866 103.599 167.85 103.88L168.23 108.22C168.34 109.5 167.78 110.33 166.49 110.33C166.209 110.346 165.927 110.302 165.664 110.202C165.401 110.101 165.162 109.946 164.963 109.747C164.763 109.548 164.609 109.309 164.508 109.046C164.408 108.783 164.364 108.501 164.38 108.22L164 103.88ZM165.31 108.27C165.38 109.04 165.74 109.48 166.41 109.48C167.08 109.48 167.41 109.04 167.3 108.27L166.91 103.83C166.85 103.08 166.49 102.62 165.81 102.62C165.13 102.62 164.81 103.08 164.92 103.83L165.31 108.27Z" fill="#263238"/>
<path d="M170.46 110.25L169.8 102.71H168.25L168.18 101.85H172.18L172.25 102.71H170.7L171.36 110.25H170.46Z" fill="#263238"/>
<path d="M176.15 105.57L176.22 106.41H174.17L174.43 109.41H177L177.07 110.26H173.62L172.88 101.86H176.34L176.41 102.72H173.89L174.14 105.58L176.15 105.57Z" fill="#263238"/>
<path d="M179.75 110.25L179.01 101.85H180L180.66 109.4H183L183.07 110.25H179.75Z" fill="#263238"/>
<path d="M184 101.85L184.74 110.25H183.8L183.07 101.85H184Z" fill="#263238"/>
<path d="M188.76 103.87V104.1H187.88V103.82C187.82 103.07 187.49 102.62 186.82 102.62C186.15 102.62 185.9 103.07 185.96 103.81C186.13 105.69 188.96 105.87 189.17 108.24C189.28 109.51 188.74 110.33 187.46 110.33C187.184 110.34 186.908 110.292 186.651 110.191C186.395 110.089 186.161 109.935 185.967 109.738C185.772 109.542 185.621 109.308 185.521 109.05C185.422 108.792 185.377 108.516 185.39 108.24V107.76H186.26V108.28C186.33 109.04 186.68 109.48 187.35 109.48C188.02 109.48 188.29 109.04 188.23 108.28C188.06 106.41 185.23 106.28 185.03 103.87C184.92 102.57 185.45 101.77 186.71 101.77C187.97 101.77 188.65 102.6 188.76 103.87Z" fill="#263238"/>
<path d="M191.36 110.25L190.7 102.71H189.16L189.08 101.85H193.08L193.15 102.71H191.61L192.27 110.25H191.36Z" fill="#263238"/>
<path d="M123.34 131.48H122.59L120.93 125.88L121.42 131.49H120.74L120.12 124.49H121.22L122.87 130.11L123.49 124.49H124.59L125.21 131.49H124.46L123.97 125.83L123.34 131.48Z" fill="#263238"/>
<path d="M125.48 126.15C125.39 125.07 125.86 124.38 126.94 124.38C127.175 124.37 127.41 124.409 127.629 124.494C127.848 124.58 128.047 124.71 128.214 124.876C128.38 125.043 128.51 125.242 128.595 125.461C128.681 125.68 128.72 125.915 128.71 126.15L129.03 129.79C129.12 130.86 128.65 131.56 127.56 131.56C127.326 131.568 127.092 131.528 126.874 131.442C126.656 131.356 126.458 131.226 126.293 131.06C126.128 130.893 125.999 130.695 125.914 130.476C125.829 130.258 125.79 130.024 125.8 129.79L125.48 126.15ZM126.58 129.83C126.58 130.47 126.94 130.83 127.5 130.83C128.06 130.83 128.3 130.45 128.25 129.83L127.92 126.11C127.92 125.48 127.57 125.11 127 125.11C126.43 125.11 126.2 125.5 126.25 126.11L126.58 129.83Z" fill="#263238"/>
<path d="M130.61 131.49H129.91L129.29 124.49H130.29L132.36 129.58L131.92 124.49H132.61L133.23 131.49H132.41L130.12 125.8L130.61 131.49Z" fill="#263238"/>
<path d="M135.07 124.45C136.16 124.45 136.72 125.11 136.82 126.2L137.13 129.75C137.22 130.83 136.78 131.49 135.68 131.49H134L133.39 124.49L135.07 124.45ZM135.61 130.78C136.17 130.78 136.41 130.42 136.36 129.78L136.04 126.16C135.98 125.52 135.68 125.16 135.11 125.16H134.26L134.75 130.77L135.61 130.78Z" fill="#263238"/>
<path d="M138.67 130.07L138.53 131.49H137.8L138.53 124.49H139.67L141.67 131.49H140.89L140.49 130.07H138.67ZM138.72 129.4H140.28L139.13 125.34L138.72 129.4Z" fill="#263238"/>
<path d="M143.27 129L141.39 124.48H142.2L143.6 127.94L144.41 124.48H145.15L144.05 129L144.27 131.52H143.49L143.27 129Z" fill="#263238"/>
<path d="M222.28 127.36C222.306 127.586 222.283 127.816 222.213 128.032C222.143 128.249 222.027 128.449 221.874 128.617C221.72 128.786 221.533 128.919 221.323 129.01C221.114 129.1 220.888 129.144 220.66 129.14C220.176 129.128 219.713 128.941 219.356 128.614C218.999 128.287 218.773 127.841 218.72 127.36C218.694 127.133 218.717 126.902 218.788 126.685C218.859 126.467 218.975 126.267 219.13 126.099C219.284 125.93 219.473 125.796 219.684 125.707C219.894 125.617 220.121 125.574 220.35 125.58C220.832 125.594 221.293 125.782 221.648 126.109C222.003 126.436 222.227 126.88 222.28 127.36Z" fill="#263238"/>
<path d="M229.06 127.36C229.082 127.586 229.057 127.815 228.985 128.031C228.913 128.248 228.796 128.446 228.643 128.614C228.489 128.782 228.301 128.916 228.092 129.006C227.883 129.097 227.658 129.142 227.43 129.14C226.946 129.128 226.483 128.941 226.126 128.614C225.769 128.287 225.543 127.841 225.49 127.36C225.466 127.133 225.49 126.903 225.562 126.687C225.633 126.47 225.749 126.271 225.904 126.102C226.058 125.934 226.246 125.8 226.456 125.71C226.665 125.62 226.892 125.576 227.12 125.58C227.604 125.591 228.067 125.778 228.424 126.106C228.781 126.433 229.007 126.879 229.06 127.36Z" fill="#263238"/>
<path d="M235.83 127.36C235.854 127.587 235.83 127.816 235.758 128.033C235.687 128.25 235.571 128.449 235.416 128.618C235.262 128.786 235.074 128.919 234.864 129.01C234.655 129.1 234.428 129.144 234.2 129.14C233.716 129.128 233.253 128.942 232.896 128.614C232.539 128.287 232.313 127.841 232.26 127.36C232.237 127.133 232.263 126.904 232.335 126.688C232.407 126.472 232.524 126.274 232.677 126.106C232.831 125.938 233.019 125.804 233.228 125.714C233.437 125.623 233.662 125.577 233.89 125.58C234.374 125.592 234.837 125.778 235.194 126.106C235.551 126.433 235.777 126.879 235.83 127.36Z" fill="#263238"/>
<path d="M203.843 305.643C209.121 300.129 208.522 290.991 202.506 285.231C196.49 279.472 187.334 279.273 182.056 284.786C176.778 290.3 177.376 299.438 183.393 305.198C189.409 310.957 198.565 311.156 203.843 305.643Z" fill="#3F72AF"/>
<path d="M193.77 304.58C193.498 304.574 193.237 304.469 193.036 304.285C192.836 304.101 192.709 303.851 192.68 303.58L191.25 287.18C191.236 287.053 191.249 286.924 191.288 286.802C191.328 286.681 191.393 286.569 191.479 286.474C191.565 286.379 191.67 286.304 191.788 286.253C191.905 286.203 192.032 286.178 192.16 286.18C192.432 286.186 192.693 286.29 192.894 286.474C193.094 286.658 193.221 286.909 193.25 287.18L194.68 303.58C194.694 303.707 194.681 303.836 194.642 303.957C194.602 304.079 194.537 304.191 194.451 304.286C194.365 304.38 194.26 304.456 194.142 304.506C194.025 304.557 193.898 304.582 193.77 304.58Z" fill="white"/>
<path d="M201 296.38H184.6C184.328 296.374 184.067 296.27 183.866 296.086C183.666 295.901 183.539 295.651 183.51 295.38C183.496 295.252 183.509 295.122 183.549 295C183.589 294.877 183.655 294.765 183.742 294.67C183.829 294.575 183.936 294.501 184.055 294.45C184.173 294.4 184.301 294.376 184.43 294.38H200.8C201.072 294.386 201.333 294.49 201.534 294.674C201.734 294.858 201.861 295.109 201.89 295.38C201.904 295.505 201.892 295.632 201.853 295.753C201.815 295.873 201.752 295.984 201.668 296.078C201.584 296.173 201.481 296.248 201.366 296.3C201.251 296.352 201.126 296.379 201 296.38Z" fill="white"/>
<path d="M229.05 161.86H132.81C130.142 161.815 127.582 160.792 125.618 158.986C123.653 157.179 122.419 154.715 122.15 152.06C122.012 150.812 122.141 149.549 122.53 148.356C122.918 147.162 123.557 146.065 124.403 145.137C125.249 144.21 126.283 143.474 127.436 142.977C128.589 142.481 129.835 142.237 131.09 142.26H227.33C229.998 142.307 232.556 143.331 234.52 145.136C236.485 146.942 237.719 149.405 237.99 152.06C238.128 153.308 237.999 154.57 237.61 155.764C237.222 156.958 236.583 158.055 235.737 158.982C234.891 159.91 233.857 160.646 232.704 161.142C231.551 161.638 230.305 161.883 229.05 161.86Z" fill="#3F72AF"/>
<path d="M150.42 155.16H149.67L148 149.64L148.48 155.17H147.81L147.2 148.23H148.28L149.91 153.77L150.52 148.23H151.6L152.21 155.17H151.48L150.99 149.59L150.42 155.16Z" fill="white"/>
<path d="M155.17 151.3L155.23 152H153.54L153.75 154.47H155.84L155.9 155.17H153L152.39 148.23H155.25L155.31 148.93H153.23L153.44 151.3H155.17Z" fill="white"/>
<path d="M158.74 151.3L158.8 152H157.11L157.32 154.47H159.41L159.47 155.17H156.61L156 148.23H158.86L158.92 148.93H156.84L157.05 151.3H158.74Z" fill="white"/>
<path d="M161.18 155.17L160.63 148.93H159.36L159.29 148.23H162.62L162.68 148.93H161.4L161.94 155.17H161.18Z" fill="white"/>
<path d="M163.91 148.23L164.52 155.17H163.75L163.14 148.23H163.91Z" fill="white"/>
<path d="M166 155.17H165.3L164.7 148.23H165.7L167.7 153.23L167.26 148.23H168L168.61 155.17H167.8L165.54 149.56L166 155.17Z" fill="white"/>
<path d="M172 149.9L172.05 150.5H171.32L171.26 149.86C171.26 149.24 170.93 148.86 170.36 148.86C169.79 148.86 169.58 149.24 169.64 149.86L169.96 153.53C169.96 154.16 170.3 154.53 170.86 154.53C171.42 154.53 171.64 154.16 171.59 153.53L171.46 152.14H170.75L170.69 151.45H172.14L172.32 153.45C172.41 154.45 171.97 155.2 170.9 155.2C170.67 155.206 170.442 155.164 170.229 155.078C170.017 154.991 169.824 154.862 169.664 154.698C169.503 154.533 169.378 154.338 169.297 154.123C169.215 153.908 169.179 153.679 169.19 153.45L168.88 149.86C168.79 148.81 169.22 148.12 170.28 148.12C170.513 148.111 170.746 148.151 170.963 148.238C171.18 148.325 171.376 148.457 171.538 148.625C171.701 148.793 171.826 148.994 171.905 149.213C171.985 149.433 172.017 149.667 172 149.9Z" fill="white"/>
<path d="M176.55 155.17H175.48L173.92 148.23H174.68L176.01 154.14L176.27 148.24H177L178.28 154.15L178.55 148.23H179.22L178.89 155.17H177.89L176.82 150.46L176.55 155.17Z" fill="white"/>
<path d="M180.65 148.23L181.25 155.17H180.48L179.87 148.23H180.65Z" fill="white"/>
<path d="M183.05 155.17L182.5 148.93H181.22L181.16 148.23H184.48L184.54 148.93H183.27L183.81 155.17H183.05Z" fill="white"/>
<path d="M186.11 152.05L186.39 155.17H185.61L185.01 148.23H185.78L186.05 151.35H187.76L187.49 148.23H188.26L188.87 155.17H188.09L187.82 152.05H186.11Z" fill="white"/>
<path d="M193.8 149.9V150.53H193.07L193.01 149.86C192.96 149.24 192.68 148.86 192.11 148.86C191.54 148.86 191.33 149.24 191.38 149.86L191.71 153.53C191.76 154.16 192.05 154.53 192.61 154.53C193.17 154.53 193.39 154.16 193.33 153.53L193.25 152.63H194L194.07 153.49C194.16 154.49 193.73 155.24 192.66 155.24C192.43 155.246 192.202 155.204 191.989 155.118C191.777 155.031 191.584 154.902 191.424 154.738C191.263 154.573 191.138 154.378 191.057 154.163C190.975 153.948 190.939 153.719 190.95 153.49L190.63 149.9C190.54 148.85 190.98 148.16 192.04 148.16C192.273 148.146 192.507 148.181 192.725 148.263C192.944 148.345 193.143 148.472 193.309 148.636C193.475 148.8 193.605 148.998 193.689 149.216C193.774 149.433 193.812 149.667 193.8 149.9Z" fill="white"/>
<path d="M195 155.17L194.39 148.23H195.17L195.71 154.47H197.71L197.77 155.17H195Z" fill="white"/>
<path d="M198.47 148.23L199.08 155.17H198.3L197.69 148.23H198.47Z" fill="white"/>
<path d="M202 151.3L202.06 152H200.36L200.58 154.47H202.66L202.72 155.17H199.87L199.26 148.23H202.12L202.18 148.93H200.1L200.3 151.3H202Z" fill="white"/>
<path d="M204.12 155.17H203.43L202.82 148.23H203.82L205.82 153.23L205.38 148.23H206.06L206.67 155.17H205.87L203.6 149.56L204.12 155.17Z" fill="white"/>
<path d="M208.49 155.17L207.95 148.93H206.67L206.61 148.23H209.93L209.99 148.93H208.71L209.26 155.17H208.49Z" fill="white"/>
<path d="M139.76 151.71C139.862 152.646 139.764 153.593 139.472 154.488C139.18 155.383 138.701 156.206 138.066 156.901C137.431 157.596 136.655 158.149 135.79 158.521C134.926 158.893 133.991 159.077 133.05 159.06C131.048 159.026 129.128 158.259 127.654 156.905C126.179 155.55 125.253 153.702 125.05 151.71C124.948 150.774 125.046 149.827 125.338 148.932C125.63 148.037 126.109 147.214 126.744 146.519C127.379 145.823 128.155 145.271 129.02 144.899C129.884 144.527 130.819 144.343 131.76 144.36C133.761 144.396 135.68 145.163 137.154 146.518C138.628 147.872 139.555 149.719 139.76 151.71Z" fill="white"/>
<path d="M231.84 193.81H135.6C132.932 193.763 130.374 192.739 128.41 190.933C126.446 189.128 125.211 186.664 124.94 184.01C124.803 182.762 124.934 181.499 125.324 180.305C125.714 179.111 126.353 178.014 127.2 177.087C128.047 176.16 129.081 175.424 130.235 174.928C131.389 174.432 132.635 174.187 133.89 174.21H230.13C232.797 174.259 235.354 175.284 237.318 177.089C239.282 178.894 240.517 181.356 240.79 184.01C240.927 185.258 240.796 186.521 240.406 187.715C240.016 188.909 239.377 190.006 238.53 190.933C237.683 191.86 236.649 192.596 235.495 193.092C234.341 193.588 233.095 193.833 231.84 193.81Z" fill="#3F72AF"/>
<path d="M151.93 181.64C152.144 181.611 152.361 181.63 152.566 181.696C152.771 181.762 152.959 181.872 153.116 182.02C153.273 182.167 153.396 182.348 153.474 182.549C153.553 182.749 153.585 182.965 153.57 183.18V183.51C153.63 184.24 153.47 184.7 152.88 184.89C153.198 184.984 153.475 185.181 153.668 185.452C153.86 185.722 153.956 186.049 153.94 186.38L153.99 186.96C154.08 187.96 153.63 188.59 152.55 188.59H151L150.39 181.59L151.93 181.64ZM152 184.64C152.61 184.64 152.91 184.44 152.85 183.72V183.31C152.8 182.7 152.57 182.4 152.01 182.4H151.25L151.44 184.64H152ZM152.51 187.93C153.08 187.93 153.31 187.64 153.25 186.99L153.2 186.38C153.13 185.6 152.8 185.38 152.14 185.38H151.46L151.69 187.97L152.51 187.93Z" fill="white"/>
<path d="M155.53 187.19L155.38 188.59H154.67L155.39 181.59H156.51L158.44 188.59H157.67L157.28 187.19H155.53ZM155.53 186.52H157.07L155.94 182.52L155.53 186.52Z" fill="white"/>
<path d="M161.64 183.32L161.7 183.95H161L160.94 183.28C160.89 182.66 160.61 182.28 160.04 182.28C159.47 182.28 159.26 182.66 159.32 183.28L159.64 186.95C159.69 187.58 159.98 187.95 160.54 187.95C161.1 187.95 161.32 187.58 161.27 186.95L161.19 186.05H161.92L162 186.91C162.09 187.96 161.65 188.66 160.58 188.66C160.35 188.666 160.122 188.624 159.909 188.538C159.697 188.451 159.504 188.322 159.344 188.158C159.183 187.993 159.058 187.798 158.977 187.583C158.895 187.368 158.859 187.139 158.87 186.91L158.56 183.32C158.47 182.32 158.9 181.57 159.96 181.57C160.187 181.568 160.412 181.613 160.621 181.701C160.83 181.789 161.019 181.92 161.177 182.083C161.334 182.247 161.456 182.441 161.536 182.654C161.615 182.866 161.651 183.093 161.64 183.32Z" fill="white"/>
<path d="M163.72 185.57L163.37 186.26L163.58 188.59H162.8L162.2 181.59H163L163.29 184.95L164.85 181.59H165.63L164.15 184.76L166.3 188.54H165.5L163.72 185.57Z" fill="white"/>
<path d="M169.4 188.59L168.85 182.35H167.57L167.51 181.64H170.83L170.89 182.35H169.61L170.16 188.59H169.4Z" fill="white"/>
<path d="M171.44 183.32C171.35 182.26 171.82 181.57 172.88 181.57C173.112 181.562 173.343 181.601 173.56 181.686C173.776 181.771 173.972 181.9 174.136 182.064C174.3 182.228 174.429 182.424 174.514 182.64C174.599 182.857 174.638 183.088 174.63 183.32L174.94 186.91C175.03 187.96 174.57 188.66 173.5 188.66C173.269 188.667 173.039 188.626 172.824 188.541C172.609 188.455 172.414 188.326 172.251 188.162C172.087 187.998 171.96 187.802 171.875 187.587C171.791 187.372 171.752 187.141 171.76 186.91L171.44 183.32ZM172.52 186.95C172.58 187.59 172.88 187.95 173.44 187.95C174 187.95 174.23 187.59 174.17 186.95L173.85 183.28C173.85 182.66 173.5 182.28 172.94 182.28C172.38 182.28 172.15 182.66 172.2 183.28L172.52 186.95Z" fill="white"/>
<path d="M178.36 188.59L177.81 182.35H176.53L176.47 181.64H179.79L179.85 182.35H178.57L179.12 188.59H178.36Z" fill="white"/>
<path d="M181.42 185.46L181.7 188.59H180.92L180.32 181.59H181.09L181.36 184.72H183.07L182.8 181.59H183.57L184.18 188.59H183.4L183.13 185.46H181.42Z" fill="white"/>
<path d="M187.1 184.72L187.16 185.41H185.46L185.68 187.88H187.76L187.82 188.59H185L184.39 181.59H187.25L187.31 182.3H185.2L185.4 184.67L187.1 184.72Z" fill="white"/>
<path d="M189.55 183.32C189.46 182.26 189.93 181.57 190.99 181.57C191.222 181.562 191.453 181.601 191.67 181.686C191.886 181.771 192.082 181.9 192.246 182.064C192.41 182.228 192.539 182.424 192.624 182.64C192.709 182.857 192.748 183.088 192.74 183.32L193.05 186.91C193.14 187.96 192.68 188.66 191.61 188.66C191.379 188.667 191.149 188.626 190.934 188.541C190.719 188.455 190.524 188.326 190.36 188.162C190.197 187.998 190.07 187.802 189.985 187.587C189.901 187.372 189.862 187.141 189.87 186.91L189.55 183.32ZM190.63 186.95C190.69 187.59 190.99 187.95 191.55 187.95C192.11 187.95 192.34 187.59 192.28 186.95L191.96 183.28C191.91 182.66 191.61 182.28 191.05 182.28C190.49 182.28 190.26 182.66 190.31 183.28L190.63 186.95Z" fill="white"/>
<path d="M196 184.88L196.06 185.58H194.46L194.72 188.58H193.95L193.34 181.58H196.1L196.16 182.29H194.16L194.38 184.82L196 184.88Z" fill="white"/>
<path d="M199.35 184.88L199.41 185.58H197.81L198.07 188.58H197.3L196.69 181.58H199.45L199.51 182.29H197.51L197.73 184.82L199.35 184.88Z" fill="white"/>
<path d="M200.84 181.64L201.44 188.64H200.67L200.06 181.64H200.84Z" fill="white"/>
<path d="M204.84 183.32V183.95H204.11L204.05 183.28C204.05 182.66 203.72 182.28 203.15 182.28C202.58 182.28 202.37 182.66 202.43 183.28L202.75 186.95C202.75 187.58 203.09 187.95 203.65 187.95C204.21 187.95 204.43 187.58 204.37 186.95L204.29 186.05H205.03L205.1 186.91C205.2 187.96 204.76 188.66 203.69 188.66C203.46 188.666 203.232 188.624 203.019 188.538C202.807 188.451 202.614 188.322 202.454 188.158C202.293 187.993 202.168 187.798 202.087 187.583C202.005 187.369 201.969 187.139 201.98 186.91L201.67 183.32C201.57 182.32 202.01 181.57 203.07 181.57C203.304 181.556 203.539 181.591 203.759 181.674C203.979 181.756 204.179 181.884 204.346 182.049C204.513 182.214 204.644 182.413 204.729 182.632C204.814 182.851 204.852 183.085 204.84 183.32Z" fill="white"/>
<path d="M208.13 184.72L208.19 185.41H206.5L206.71 187.88H208.8L208.86 188.59H206L205.39 181.59H208.25L208.31 182.3H206.23L206.44 184.67L208.13 184.72Z" fill="white"/>
<path d="M142.58 184C142.684 184.935 142.587 185.882 142.296 186.777C142.005 187.672 141.527 188.495 140.893 189.191C140.259 189.886 139.484 190.439 138.619 190.811C137.755 191.183 136.821 191.367 135.88 191.35C133.877 191.318 131.956 190.552 130.481 189.197C129.007 187.842 128.081 185.992 127.88 184C127.778 183.065 127.875 182.119 128.167 181.225C128.459 180.332 128.937 179.51 129.571 178.816C130.205 178.121 130.98 177.57 131.843 177.198C132.707 176.826 133.64 176.643 134.58 176.66C136.581 176.691 138.501 177.456 139.976 178.809C141.45 180.162 142.377 182.009 142.58 184Z" fill="white"/>
<path d="M234.68 226.27H138.44C135.643 226.215 132.962 225.142 130.9 223.251C128.838 221.36 127.537 218.782 127.24 216C127.098 214.689 127.237 213.363 127.646 212.109C128.056 210.856 128.728 209.704 129.617 208.73C130.506 207.756 131.592 206.982 132.802 206.459C134.013 205.937 135.321 205.678 136.64 205.7H232.88C235.682 205.754 238.368 206.831 240.432 208.728C242.495 210.625 243.792 213.212 244.08 216C244.217 217.309 244.076 218.632 243.664 219.882C243.252 221.131 242.58 222.28 241.691 223.25C240.803 224.221 239.718 224.992 238.51 225.513C237.301 226.033 235.996 226.291 234.68 226.27Z" fill="#3F72AF"/>
<path d="M156 214.31V214.5H155.27V214.27C155.21 213.65 154.94 213.27 154.39 213.27C153.84 213.27 153.63 213.64 153.68 214.27C153.82 215.83 156.16 215.98 156.33 217.93C156.42 218.98 155.98 219.67 154.92 219.67C154.691 219.677 154.463 219.637 154.25 219.551C154.037 219.466 153.845 219.338 153.684 219.174C153.523 219.011 153.398 218.816 153.317 218.602C153.235 218.387 153.199 218.159 153.21 217.93V217.53H153.94V217.97C153.99 218.6 154.28 218.97 154.84 218.97C155.4 218.97 155.62 218.61 155.56 217.97C155.43 216.42 153.09 216.27 152.92 214.32C152.83 213.25 153.27 212.58 154.31 212.58C155.35 212.58 155.94 213.26 156 214.31Z" fill="white"/>
<path d="M159.31 215.72L159.37 216.41H157.68L157.89 218.88H160L160.06 219.59H157.2L156.59 212.59H159.45L159.51 213.3H157.43L157.64 215.67L159.31 215.72Z" fill="white"/>
<path d="M161.43 219.59H160.74L160.13 212.59H161.13L163.13 217.59L162.69 212.59H163.37L163.98 219.59H163.18L160.94 214L161.43 219.59Z" fill="white"/>
<path d="M165.82 212.64C166.051 212.627 166.281 212.663 166.497 212.745C166.713 212.827 166.909 212.954 167.072 213.118C167.236 213.281 167.363 213.477 167.445 213.693C167.527 213.908 167.563 214.139 167.55 214.37L167.86 217.87C167.95 218.93 167.51 219.59 166.43 219.59H164.8L164.2 212.59L165.82 212.64ZM166.36 218.88C166.91 218.88 167.15 218.54 167.1 217.88L166.78 214.31C166.73 213.68 166.43 213.31 165.86 213.31H165L165.49 218.84L166.36 218.88Z" fill="white"/>
<path d="M171.27 219.59L170.72 213.35H169.44L169.38 212.64H172.7L172.76 213.35H171.48L172.03 219.59H171.27Z" fill="white"/>
<path d="M174.33 216.46L174.61 219.59H173.83L173.23 212.59H174L174.27 215.72H176L175.73 212.59H176.5L177.11 219.59H176.33L176.06 216.46H174.33Z" fill="white"/>
<path d="M180 215.72L180.06 216.41H178.36L178.58 218.88H180.66L180.72 219.59H177.87L177.26 212.59H180.12L180.18 213.3H178.1L178.3 215.67L180 215.72Z" fill="white"/>
<path d="M184 212.64C184.231 212.627 184.461 212.663 184.677 212.745C184.893 212.827 185.089 212.954 185.252 213.118C185.416 213.281 185.543 213.477 185.625 213.693C185.707 213.908 185.743 214.139 185.73 214.37L186.04 217.87C186.13 218.93 185.69 219.59 184.61 219.59H183L182.4 212.59L184 212.64ZM184.54 218.88C185.09 218.88 185.33 218.54 185.27 217.88L184.96 214.31C184.91 213.68 184.61 213.31 184.04 213.31H183.21L183.69 218.84L184.54 218.88Z" fill="white"/>
<path d="M186.39 214.32C186.3 213.26 186.76 212.57 187.82 212.57C188.052 212.562 188.283 212.601 188.5 212.686C188.716 212.771 188.912 212.9 189.076 213.064C189.24 213.228 189.369 213.424 189.454 213.64C189.539 213.857 189.578 214.088 189.57 214.32L189.89 217.91C189.98 218.96 189.51 219.66 188.44 219.66C188.209 219.667 187.979 219.626 187.764 219.541C187.549 219.455 187.354 219.326 187.191 219.162C187.027 218.998 186.9 218.802 186.815 218.587C186.731 218.372 186.692 218.141 186.7 217.91L186.39 214.32ZM187.47 217.95C187.52 218.59 187.82 218.95 188.38 218.95C188.94 218.95 189.17 218.59 189.12 217.95L188.79 214.28C188.79 213.66 188.45 213.28 187.88 213.28C187.31 213.28 187.09 213.66 187.15 214.28L187.47 217.95Z" fill="white"/>
<path d="M193.37 214.32V214.95H192.64L192.58 214.28C192.58 213.66 192.24 213.28 191.68 213.28C191.12 213.28 190.9 213.66 190.95 214.28L191.27 217.95C191.33 218.58 191.62 218.95 192.18 218.95C192.74 218.95 192.96 218.58 192.9 217.95L192.82 217.05H193.56L193.63 217.91C193.72 218.96 193.29 219.66 192.22 219.66C191.99 219.666 191.762 219.624 191.549 219.538C191.337 219.451 191.144 219.322 190.984 219.158C190.823 218.993 190.698 218.798 190.617 218.583C190.535 218.369 190.499 218.139 190.51 217.91L190.19 214.32C190.1 213.32 190.54 212.57 191.6 212.57C191.834 212.556 192.069 212.591 192.289 212.674C192.509 212.756 192.709 212.884 192.876 213.049C193.043 213.214 193.174 213.413 193.259 213.632C193.344 213.851 193.382 214.085 193.37 214.32Z" fill="white"/>
<path d="M195.12 218C195.18 218.63 195.46 219 196.02 219C196.58 219 196.79 218.63 196.74 218L196.27 212.69H197L197.46 217.96C197.55 219.01 197.13 219.72 196.06 219.72C194.99 219.72 194.45 219.01 194.35 217.96L193.89 212.69H194.66L195.12 218Z" fill="white"/>
<path d="M200.92 219.58H200.18L198.55 214.05L199.03 219.59H198.36L197.75 212.59H198.83L200.46 218.14L201.07 212.59H202.15L202.76 219.59H202L201.51 214L200.92 219.58Z" fill="white"/>
<path d="M205.68 215.72L205.74 216.41H204.05L204.26 218.88H206.35L206.41 219.59H203.55L202.94 212.59H205.8L205.86 213.3H203.78L203.99 215.67L205.68 215.72Z" fill="white"/>
<path d="M207.8 219.59H207.11L206.5 212.59H207.5L209.55 217.59L209.11 212.59H209.79L210.4 219.59H209.6L207.31 214L207.8 219.59Z" fill="white"/>
<path d="M212.18 219.59L211.63 213.35H210.35L210.29 212.64H213.61L213.67 213.35H212.39L212.94 219.59H212.18Z" fill="white"/>
<path d="M138.72 223.81C136.584 223.77 134.535 222.95 132.962 221.503C131.389 220.057 130.399 218.086 130.18 215.96C130.072 214.962 130.178 213.952 130.49 212.997C130.802 212.043 131.314 211.166 131.991 210.424C132.668 209.683 133.495 209.094 134.418 208.697C135.34 208.299 136.336 208.103 137.34 208.12C139.475 208.16 141.522 208.979 143.095 210.423C144.668 211.867 145.658 213.836 145.88 215.96C145.988 216.959 145.882 217.969 145.57 218.924C145.258 219.879 144.746 220.756 144.069 221.499C143.392 222.241 142.565 222.831 141.643 223.229C140.721 223.628 139.724 223.826 138.72 223.81Z" fill="white"/>
<path d="M237.48 258.22H141.24C138.43 258.171 135.736 257.096 133.665 255.196C131.594 253.297 130.29 250.705 130 247.91C129.858 246.599 129.996 245.273 130.406 244.019C130.816 242.766 131.488 241.614 132.377 240.64C133.266 239.665 134.351 238.892 135.562 238.369C136.773 237.847 138.081 237.588 139.4 237.61H235.64C238.444 237.663 241.131 238.74 243.196 240.637C245.26 242.534 246.56 245.121 246.85 247.91C246.992 249.219 246.854 250.543 246.446 251.795C246.038 253.047 245.369 254.198 244.484 255.172C243.598 256.147 242.516 256.922 241.309 257.447C240.101 257.973 238.797 258.236 237.48 258.22ZM139.48 238.61C138.289 238.59 137.108 238.824 136.015 239.296C134.921 239.767 133.941 240.466 133.138 241.345C132.335 242.225 131.728 243.265 131.358 244.397C130.988 245.528 130.862 246.726 130.99 247.91C131.251 250.429 132.423 252.766 134.287 254.481C136.151 256.196 138.578 257.17 141.11 257.22H237.35C238.541 257.238 239.722 257.003 240.816 256.53C241.909 256.058 242.89 255.358 243.693 254.478C244.495 253.597 245.102 252.557 245.472 251.425C245.842 250.292 245.968 249.094 245.84 247.91C245.579 245.392 244.406 243.056 242.542 241.343C240.678 239.629 238.251 238.657 235.72 238.61H139.48Z" fill="#3F72AF"/>
<path d="M159.19 247.46L159.25 248.05H158.51V247.42C158.45 246.79 158.17 246.42 157.61 246.42C157.05 246.42 156.83 246.79 156.88 247.42L157.2 251.09C157.26 251.71 157.55 252.09 158.1 252.09C158.65 252.09 158.88 251.71 158.83 251.09L158.71 249.7H157.99L157.93 249.01H159.38L159.56 251.01C159.65 252.01 159.21 252.76 158.14 252.76C157.07 252.76 156.53 252.06 156.43 251.01L156.12 247.42C156.03 246.37 156.46 245.67 157.52 245.67C157.75 245.668 157.978 245.714 158.19 245.805C158.401 245.895 158.592 246.029 158.749 246.198C158.906 246.366 159.026 246.565 159.102 246.782C159.178 247 159.208 247.23 159.19 247.46Z" fill="#3F72AF"/>
<path d="M159.87 247.46C159.77 246.4 160.24 245.71 161.3 245.71C161.532 245.701 161.763 245.741 161.98 245.826C162.196 245.911 162.392 246.04 162.556 246.204C162.72 246.368 162.849 246.564 162.934 246.78C163.019 246.996 163.058 247.228 163.05 247.46L163.36 251.05C163.46 252.05 162.99 252.8 161.92 252.8C161.689 252.807 161.459 252.766 161.244 252.681C161.029 252.595 160.834 252.466 160.67 252.302C160.507 252.138 160.38 251.942 160.295 251.727C160.211 251.511 160.172 251.281 160.18 251.05L159.87 247.46ZM160.95 251.09C161 251.72 161.3 252.09 161.86 252.09C162.42 252.09 162.65 251.72 162.59 251.09L162.27 247.42C162.22 246.79 161.93 246.42 161.36 246.42C160.79 246.42 160.57 246.79 160.63 247.42L160.95 251.09Z" fill="#3F72AF"/>
<path d="M166.28 249.6L166.55 252.73H165.78L165.17 245.78H166L166.27 248.91H167.97L167.7 245.78H168.47L169.08 252.73H168.31L168 249.6H166.28Z" fill="#3F72AF"/>
<path d="M169.3 247.46C169.21 246.4 169.68 245.71 170.74 245.71C170.972 245.701 171.203 245.741 171.42 245.826C171.636 245.911 171.832 246.04 171.996 246.204C172.16 246.368 172.289 246.564 172.374 246.78C172.459 246.996 172.498 247.228 172.49 247.46L172.8 251.05C172.89 252.05 172.43 252.8 171.36 252.8C171.128 252.808 170.897 252.769 170.682 252.684C170.466 252.599 170.271 252.47 170.107 252.306C169.944 252.141 169.816 251.945 169.732 251.729C169.648 251.513 169.61 251.281 169.62 251.05L169.3 247.46ZM170.38 251.09C170.44 251.72 170.74 252.09 171.29 252.09C171.84 252.09 172.09 251.72 172.03 251.09L171.71 247.42C171.65 246.79 171.36 246.42 170.8 246.42C170.24 246.42 170.01 246.79 170.06 247.42L170.38 251.09Z" fill="#3F72AF"/>
<path d="M176.24 252.72H175.49L173.86 247.19L174.34 252.73H173.67L173.06 245.78H174.14L175.77 251.33L176.38 245.78H177.47L178.07 252.73H177.34L176.85 247.14L176.24 252.72Z" fill="#3F72AF"/>
<path d="M181 248.86L181.07 249.55H179.37L179.59 252.02H181.67L181.73 252.73H178.87L178.27 245.78H181.12L181.18 246.49H179.1L179.31 248.86H181Z" fill="#3F72AF"/>
<path d="M141.51 255.76C139.375 255.72 137.328 254.899 135.756 253.453C134.185 252.006 133.197 250.035 132.98 247.91C132.872 246.912 132.978 245.902 133.29 244.947C133.602 243.993 134.114 243.116 134.791 242.374C135.468 241.633 136.295 241.044 137.218 240.647C138.14 240.249 139.136 240.053 140.14 240.07C142.274 240.11 144.319 240.929 145.891 242.373C147.462 243.818 148.451 245.787 148.67 247.91C148.779 248.909 148.675 249.92 148.363 250.876C148.052 251.831 147.54 252.709 146.863 253.452C146.186 254.195 145.358 254.785 144.435 255.182C143.512 255.58 142.515 255.777 141.51 255.76ZM140.23 241.07C139.354 241.055 138.485 241.226 137.68 241.573C136.875 241.92 136.153 242.433 135.562 243.08C134.971 243.727 134.525 244.492 134.252 245.325C133.979 246.158 133.886 247.039 133.98 247.91C134.17 249.763 135.032 251.483 136.402 252.745C137.773 254.006 139.557 254.723 141.42 254.76C142.297 254.775 143.167 254.603 143.973 254.256C144.778 253.909 145.501 253.394 146.092 252.746C146.683 252.098 147.13 251.332 147.402 250.498C147.674 249.664 147.765 248.782 147.67 247.91C147.478 246.058 146.615 244.341 145.245 243.081C143.875 241.822 142.091 241.106 140.23 241.07Z" fill="#3F72AF"/>
<path d="M161 299.37C159.5 299.351 158.06 298.781 156.954 297.768C155.848 296.756 155.152 295.372 155 293.88C154.931 293.183 155.01 292.48 155.23 291.816C155.451 291.151 155.808 290.541 156.279 290.023C156.751 289.506 157.325 289.093 157.966 288.812C158.607 288.53 159.3 288.387 160 288.39C161.499 288.411 162.938 288.982 164.044 289.994C165.15 291.006 165.846 292.389 166 293.88C166.069 294.577 165.99 295.28 165.77 295.944C165.549 296.609 165.192 297.219 164.721 297.737C164.249 298.254 163.675 298.667 163.034 298.948C162.393 299.23 161.7 299.373 161 299.37ZM160.13 289.37C159.555 289.359 158.984 289.472 158.456 289.699C157.927 289.926 157.453 290.264 157.065 290.688C156.677 291.113 156.384 291.616 156.206 292.163C156.027 292.709 155.967 293.288 156.03 293.86C156.154 295.075 156.72 296.203 157.619 297.03C158.518 297.858 159.689 298.327 160.91 298.35C161.488 298.369 162.062 298.262 162.595 298.038C163.127 297.813 163.605 297.476 163.994 297.049C164.384 296.623 164.676 296.117 164.852 295.566C165.027 295.015 165.081 294.433 165.01 293.86C164.881 292.645 164.311 291.519 163.408 290.696C162.505 289.872 161.332 289.408 160.11 289.39L160.13 289.37Z" fill="#3F72AF"/>
<path d="M169.04 303.01L163.69 298.09L164.34 297.38L169.69 302.3L169.04 303.01Z" fill="#3F72AF"/>
<path d="M228.31 302.89L223.16 300.31L218.48 302.89L218.94 297.42L214.62 293.54L220.04 292.74L222.04 287.74L224.93 292.74L230.49 293.54L226.86 297.42L228.31 302.89ZM216.83 294.24L219.98 297.07L219.64 301.07L223.07 299.19L226.82 301.07L225.82 297.07L228.48 294.24L224.42 293.66L222.26 290L220.79 293.64L216.83 294.24Z" fill="#3F72AF"/>
<path d="M131.61 179.75H128.96L134.87 187.82L145.95 173.09H144.7L134.49 183.55L131.61 179.75Z" fill="#263238"/>
<path d="M133.98 210.86H131.33L137.24 218.94L148.32 204.21H147.07L136.87 214.66L133.98 210.86Z" fill="#263238"/>
<path d="M128.76 147.17H126.11L132.02 155.25L143.1 140.52H141.85L131.64 150.98L128.76 147.17Z" fill="#263238"/>
<path d="M220.16 68.8899H212.92V69.6399H220.16V68.8899Z" fill="#3F72AF"/>
<path d="M207.39 68.8899H188.72V69.6399H207.39V68.8899Z" fill="#3F72AF"/>
<path d="M165 382.83H157.58V382.08C169.98 382.08 182.68 382.08 195.31 381.88V382.63C185.19 382.76 175 382.83 165 382.83Z" fill="#3F72AF"/>
<path d="M151.47 382.79C146.14 382.79 140.7 382.7 135.28 382.62V381.87C140.69 381.95 146.14 382.01 151.47 382.04V382.79Z" fill="#3F72AF"/>
<path d="M129.84 381.87H123.78V382.62H129.84V381.87Z" fill="#3F72AF"/>
<path d="M315.2 353.68H297.91V354.43H315.2V353.68Z" fill="#3F72AF"/>
<path d="M293.5 353.68H283.76V354.43H293.5V353.68Z" fill="#3F72AF"/>
<path d="M233.64 358.73L207.05 370.45C206.24 369.8 201.26 360.9 201.26 360.9L224.77 348.9L233.64 358.73Z" fill="#FFB573"/>
<path d="M208 372.92C207.987 372.863 207.989 372.803 208.006 372.746C208.024 372.69 208.056 372.639 208.1 372.6C208.151 372.568 208.21 372.551 208.27 372.551C208.33 372.551 208.389 372.568 208.44 372.6C208.62 372.71 212.8 375.27 213.28 377.32C213.337 377.509 213.355 377.708 213.33 377.905C213.306 378.101 213.241 378.29 213.14 378.46C213.046 378.667 212.889 378.838 212.691 378.949C212.493 379.061 212.265 379.107 212.04 379.08C211.2 379.02 210.29 377.79 209.54 376.41C208.921 375.296 208.405 374.128 208 372.92ZM212.54 376.92C211.553 375.562 210.31 374.41 208.88 373.53C209.68 375.66 211.19 378.37 212.15 378.53C212.28 378.53 212.47 378.53 212.68 378.16C212.743 378.06 212.784 377.947 212.8 377.83C212.815 377.712 212.805 377.593 212.77 377.48C212.721 377.296 212.65 377.118 212.56 376.95L212.54 376.92Z" fill="#3F72AF"/>
<path d="M208.08 372.73C208.093 372.681 208.12 372.636 208.157 372.601C208.194 372.565 208.24 372.541 208.29 372.53C208.42 372.53 211.45 371.19 213.29 371.94C213.552 372.054 213.788 372.221 213.984 372.429C214.179 372.636 214.331 372.882 214.43 373.15C214.56 373.364 214.61 373.616 214.572 373.863C214.533 374.11 214.409 374.336 214.22 374.5C213.13 375.37 209.42 374.07 208.13 373.1L208.04 373L208.08 372.73ZM213.08 372.5C211.716 372.201 210.293 372.338 209.01 372.89C210.53 373.77 213.35 374.57 214.01 374.01C214.01 373.96 214.22 373.83 214.01 373.36L213.88 373.22C213.717 372.885 213.43 372.627 213.08 372.5Z" fill="#3F72AF"/>
<path d="M209.11 370.19L207.37 368.8C206.408 368.034 205.62 367.071 205.06 365.976C204.5 364.881 204.179 363.679 204.12 362.45L203.98 359.54C203.881 359.316 203.703 359.136 203.48 359.035C203.257 358.934 203.004 358.918 202.77 358.99L193 361.16C192 361.44 191.83 363.64 191.88 363.74C194.38 370.55 200.88 384.68 203.16 389.25C205.44 393.82 210.31 392.13 209.77 390.05C207.35 380.73 208.28 376.27 209.33 372.38C209.545 371.649 209.466 370.863 209.11 370.19Z" fill="#263238"/>
<g opacity="0.2">
<path d="M216.54 353.06L224.77 348.85L233.64 358.73L221.47 364.09L219.37 361.74C218.115 360.341 217.304 358.601 217.04 356.74L216.54 353.06Z" fill="black"/>
</g>
<path d="M261.08 253.14C260.311 255.145 259.777 257.232 259.49 259.36C257.78 270.56 252.62 328.07 250.06 329.41C242.39 333.41 237.37 334.75 220.35 349.94C222.66 354.36 224.81 357.46 226.96 362.67C226.96 362.67 257.96 351.92 267.88 341.5C278.08 330.74 290.79 281.58 294.31 268.65C296.31 261.3 298.6 252.53 294.11 246.45C291.59 243 267.93 233.33 261.08 253.14Z" fill="#3F72AF"/>
<path d="M261.08 253.14C260.311 255.145 259.777 257.232 259.49 259.36C257.78 270.56 252.62 328.07 250.06 329.41C242.39 333.41 237.37 334.75 220.35 349.94C222.66 354.36 224.81 357.46 226.96 362.67C226.96 362.67 257.96 351.92 267.88 341.5C278.08 330.74 290.79 281.58 294.31 268.65C296.31 261.3 298.6 252.53 294.11 246.45C291.59 243 267.93 233.33 261.08 253.14Z" fill="#3F72AF"/>
<path opacity="0.5" d="M261.08 253.14C260.311 255.145 259.777 257.232 259.49 259.36C257.78 270.56 252.62 328.07 250.06 329.41C242.39 333.41 237.37 334.75 220.35 349.94C222.66 354.36 224.81 357.46 226.96 362.67C226.96 362.67 257.96 351.92 267.88 341.5C278.08 330.74 290.79 281.58 294.31 268.65C296.31 261.3 298.6 252.53 294.11 246.45C291.59 243 267.93 233.33 261.08 253.14Z" fill="black"/>
<path d="M342.83 190.49L322 220.49C320.748 222.323 318.877 223.644 316.73 224.21C313.62 224.99 309.09 225.21 305.44 221.41C302.15 218.335 299.079 215.033 296.25 211.53C290.637 204.863 285.11 198.11 279.67 191.27C277.51 188.55 275.31 185.73 274.27 182.42C273.23 179.11 273.55 175.12 275.99 172.64C278.78 169.79 285.1 168.2 288.7 169.92C295.2 173.03 306.6 193.64 313.17 204.72C320.5 198.19 334.17 186.63 334.17 186.63L342.83 190.49Z" fill="#3F72AF"/>
<path opacity="0.6" d="M342.83 190.49L322 220.49C320.748 222.323 318.877 223.644 316.73 224.21C313.62 224.99 309.09 225.21 305.44 221.41C302.15 218.335 299.079 215.033 296.25 211.53C290.637 204.863 285.11 198.11 279.67 191.27C277.51 188.55 275.31 185.73 274.27 182.42C273.23 179.11 273.55 175.12 275.99 172.64C278.78 169.79 285.1 168.2 288.7 169.92C295.2 173.03 306.6 193.64 313.17 204.72C320.5 198.19 334.17 186.63 334.17 186.63L342.83 190.49Z" fill="white"/>
<path d="M296.48 233.55C295.67 239.72 261.48 241.94 254.97 236.55L240.4 186.72C239.93 185.104 239.803 183.408 240.026 181.74C240.249 180.072 240.818 178.469 241.696 177.034C242.574 175.598 243.742 174.362 245.126 173.404C246.509 172.446 248.077 171.787 249.73 171.47C250.63 171.3 251.43 171.15 252.11 171C253.56 170.7 254.37 170.48 254 170.45C254 170.45 254.72 170.2 256 169.85C262.036 168.087 268.283 167.149 274.57 167.06C280.28 171.47 284.98 179.06 286.75 184.01C290.53 194.58 289.85 206.47 287.93 217.35C286.854 223.87 285.181 230.277 282.93 236.49C282.19 238.49 285.42 239.21 286.16 237.24C292.16 221.24 295.56 201.36 290.5 184.8C288.342 178.035 284.363 171.994 279 167.34C284.12 167.97 288.92 169.76 292.11 173.61C295.11 177.22 295.72 182.93 296.34 186.15C297.63 193 297.28 227.38 296.48 233.55Z" fill="#3F72AF"/>
<path d="M286.12 237.24C285.38 239.24 282.12 238.48 282.89 236.49C285.141 230.277 286.815 223.87 287.89 217.35C289.81 206.47 290.49 194.58 286.71 184.01C284.94 179.07 280.24 171.47 274.53 167.06C276.014 167.068 277.497 167.161 278.97 167.34C284.326 171.997 288.297 178.037 290.45 184.8C295.52 201.36 292.09 221.27 286.12 237.24Z" fill="#3F72AF"/>
<path d="M296.48 233.55C298.642 243.551 298.398 253.922 295.77 263.81L293.47 272.49C293.47 272.49 267.23 285.29 256.11 274.09C244.99 262.89 255 236.56 255 236.56C268.898 237.33 282.838 236.319 296.48 233.55Z" fill="#3F72AF"/>
<path opacity="0.5" d="M296.48 233.55C298.642 243.551 298.398 253.922 295.77 263.81L293.47 272.49C293.47 272.49 267.23 285.29 256.11 274.09C244.99 262.89 255 236.56 255 236.56C268.898 237.33 282.838 236.319 296.48 233.55Z" fill="black"/>
<path opacity="0.4" d="M258.7 264.5C261.7 265.26 289.7 288.78 289.7 288.78L283 309.09L257.57 281.94L258.7 264.5Z" fill="black"/>
<path d="M344 374.92L347.44 403.77C346.58 404.36 337.12 409.27 336.62 406.52C335.1 398.14 331.96 380.52 331.96 380.52L344 374.92Z" fill="#FFB573"/>
<path d="M349.51 402.84C349.453 402.857 349.392 402.857 349.335 402.839C349.278 402.821 349.227 402.787 349.19 402.74C349.159 402.691 349.142 402.633 349.142 402.575C349.142 402.517 349.159 402.459 349.19 402.41C349.3 402.23 351.81 398.02 353.85 397.5C354.039 397.444 354.237 397.427 354.433 397.449C354.629 397.471 354.818 397.533 354.99 397.63C355.196 397.724 355.368 397.879 355.482 398.074C355.597 398.269 355.648 398.495 355.63 398.72C355.57 399.56 354.36 400.49 352.98 401.25C351.877 401.889 350.715 402.422 349.51 402.84ZM353.51 398.25C352.165 399.257 351.03 400.517 350.17 401.96C352.28 401.12 354.97 399.59 355.08 398.62C355.08 398.49 355.08 398.31 354.7 398.09C354.597 398.026 354.481 397.984 354.36 397.969C354.239 397.953 354.116 397.964 354 398C353.82 398.057 353.646 398.13 353.48 398.22L353.51 398.25Z" fill="#3F72AF"/>
<path d="M349.32 402.8C349.269 402.788 349.222 402.762 349.185 402.725C349.148 402.688 349.122 402.641 349.11 402.59C349.06 402.46 347.73 399.45 348.45 397.59C348.564 397.327 348.73 397.09 348.938 396.892C349.146 396.695 349.392 396.541 349.66 396.44C349.865 396.297 350.117 396.236 350.365 396.269C350.613 396.302 350.84 396.428 351 396.62C351.88 397.7 350.64 401.43 349.68 402.73L349.59 402.82L349.32 402.8ZM349.02 397.8C348.742 399.17 348.899 400.593 349.47 401.87C350.33 400.33 351.08 397.5 350.47 396.87C350.42 396.87 350.3 396.66 349.83 396.87L349.69 397C349.369 397.172 349.123 397.457 349 397.8H349.02Z" fill="#3F72AF"/>
<path d="M346.76 401.8L336.18 407.07C335.957 407.173 335.78 407.354 335.683 407.579C335.585 407.804 335.573 408.057 335.65 408.29L337.94 418.08C338.24 419.08 340.44 419.22 340.54 419.17C347.31 416.57 361.36 409.93 365.9 407.55C370.44 405.17 368.68 400.36 366.61 400.93C357.32 403.47 352.86 402.6 348.95 401.6C348.222 401.379 347.436 401.451 346.76 401.8Z" fill="#263238"/>
<g opacity="0.2">
<path d="M333.53 389.23L331.97 380.52L344.01 374.93L345.28 386.75L333.53 389.23Z" fill="black"/>
</g>
<path d="M253.17 270.49C259.78 281.11 289.17 301.4 303.73 317.85C314.73 330.24 323.99 367.75 331.14 383.66C337.39 382.13 343.02 382.12 346.65 380.66C346.65 380.66 342.19 334.77 339.3 322.3C333.98 299.3 303.52 271.13 273.87 246.12C268.87 241.94 261.72 240.9 254.72 245.47C253.44 246.28 246.77 260.18 253.17 270.49Z" fill="#3F72AF"/>
<path opacity="0.5" d="M253.17 270.49C259.78 281.11 289.17 301.4 303.73 317.85C314.73 330.24 323.99 367.75 331.14 383.66C337.39 382.13 343.02 382.12 346.65 380.66C346.65 380.66 342.19 334.77 339.3 322.3C333.98 299.3 303.52 271.13 273.87 246.12C268.87 241.94 261.72 240.9 254.72 245.47C253.44 246.28 246.77 260.18 253.17 270.49Z" fill="black"/>
<path d="M286.12 237.24C285.38 239.24 282.12 238.48 282.89 236.49C285.141 230.277 286.815 223.87 287.89 217.35C289.81 206.47 290.49 194.58 286.71 184.01C284.94 179.07 280.24 171.47 274.53 167.06C269.98 163.55 259.53 163.95 255.96 169.85C254.71 170.2 253.96 170.45 253.96 170.45C254.33 170.45 253.52 170.7 252.07 171C253.636 168.098 256.04 165.736 258.97 164.223C261.9 162.71 265.218 162.117 268.49 162.52C272.86 163.11 275.43 164.36 278.94 167.34C284.296 171.997 288.267 178.037 290.42 184.8C295.52 201.36 292.09 221.27 286.12 237.24Z" fill="#263238"/>
<path d="M231.967 206.343L284.954 233.388C285.719 233.779 286.298 234.457 286.563 235.275C286.828 236.092 286.757 236.981 286.367 237.747L271.615 266.65C270.941 267.97 269.77 268.969 268.359 269.426C266.949 269.883 265.415 269.761 264.094 269.087L215.293 244.179C213.973 243.505 212.974 242.334 212.517 240.924C212.06 239.513 212.182 237.979 212.856 236.659L227.608 207.756C227.999 206.991 228.677 206.412 229.495 206.147C230.312 205.882 231.201 205.952 231.967 206.343Z" fill="#3F72AF"/>
<path opacity="0.3" d="M231.967 206.343L284.954 233.388C285.719 233.779 286.298 234.457 286.563 235.275C286.828 236.092 286.757 236.981 286.367 237.747L271.615 266.65C270.941 267.97 269.77 268.969 268.359 269.426C266.949 269.883 265.415 269.761 264.094 269.087L215.293 244.179C213.973 243.505 212.974 242.334 212.517 240.924C212.06 239.513 212.182 237.979 212.856 236.659L227.608 207.756C227.999 206.991 228.677 206.412 229.495 206.147C230.312 205.882 231.201 205.952 231.967 206.343Z" fill="white"/>
<path opacity="0.2" d="M283.12 236.66L230.31 209.71C229.521 209.307 228.604 209.234 227.761 209.506C226.917 209.777 226.216 210.372 225.81 211.16L225.26 212.25C224.697 213.35 224.356 214.551 224.257 215.783C224.158 217.015 224.303 218.254 224.684 219.43C225.065 220.606 225.674 221.696 226.476 222.636C227.279 223.576 228.259 224.349 229.36 224.91L271.36 246.35C273.583 247.485 276.165 247.691 278.539 246.922C280.913 246.153 282.885 244.472 284.02 242.25L284.58 241.16C284.979 240.369 285.05 239.452 284.776 238.609C284.503 237.767 283.908 237.066 283.12 236.66Z" fill="black"/>
<path d="M284.87 233.34L232.06 206.34C231.269 205.941 230.352 205.87 229.509 206.144C228.667 206.417 227.966 207.012 227.56 207.8L227.01 208.89C226.447 209.99 226.106 211.191 226.007 212.423C225.908 213.655 226.053 214.894 226.434 216.07C226.815 217.246 227.424 218.336 228.226 219.276C229.029 220.216 230.009 220.989 231.11 221.55L273.11 242.99C275.333 244.122 277.914 244.327 280.288 243.558C282.661 242.789 284.633 241.11 285.77 238.89L286.33 237.8C286.717 237.013 286.78 236.106 286.508 235.273C286.235 234.44 285.647 233.746 284.87 233.34Z" fill="#3F72AF"/>
<path d="M284.87 233.34L232.06 206.34C231.269 205.941 230.352 205.87 229.509 206.144C228.667 206.417 227.966 207.012 227.56 207.8L227.01 208.89C226.447 209.99 226.106 211.191 226.007 212.423C225.908 213.655 226.053 214.894 226.434 216.07C226.815 217.246 227.424 218.336 228.226 219.276C229.029 220.216 230.009 220.989 231.11 221.55L273.11 242.99C275.333 244.122 277.914 244.327 280.288 243.558C282.661 242.789 284.633 241.11 285.77 238.89L286.33 237.8C286.717 237.013 286.78 236.106 286.508 235.273C286.235 234.44 285.647 233.746 284.87 233.34Z" fill="#3F72AF"/>
<path opacity="0.5" d="M284.87 233.34L232.06 206.34C231.269 205.941 230.352 205.87 229.509 206.144C228.667 206.417 227.966 207.012 227.56 207.8L227.01 208.89C226.447 209.99 226.106 211.191 226.007 212.423C225.908 213.655 226.053 214.894 226.434 216.07C226.815 217.246 227.424 218.336 228.226 219.276C229.029 220.216 230.009 220.989 231.11 221.55L273.11 242.99C275.333 244.122 277.914 244.327 280.288 243.558C282.661 242.789 284.633 241.11 285.77 238.89L286.33 237.8C286.717 237.013 286.78 236.106 286.508 235.273C286.235 234.44 285.647 233.746 284.87 233.34Z" fill="white"/>
<path d="M241.584 220.593L239.438 219.497C238.478 219.008 237.304 219.388 236.814 220.348L232.559 228.685C232.069 229.644 232.45 230.818 233.409 231.308L235.556 232.403C236.515 232.893 237.69 232.512 238.179 231.553L242.434 223.216C242.924 222.257 242.543 221.083 241.584 220.593Z" fill="#3F72AF"/>
<path d="M270.012 235.112L267.865 234.017C266.906 233.527 265.731 233.908 265.242 234.867L260.988 243.205C260.499 244.164 260.88 245.339 261.839 245.828L263.986 246.923C264.945 247.413 266.12 247.032 266.609 246.073L270.863 237.735C271.352 236.776 270.971 235.601 270.012 235.112Z" fill="#3F72AF"/>
<path opacity="0.3" d="M241.584 220.593L239.438 219.497C238.478 219.008 237.304 219.388 236.814 220.348L232.559 228.685C232.069 229.644 232.45 230.818 233.409 231.308L235.556 232.403C236.515 232.893 237.69 232.512 238.179 231.553L242.434 223.216C242.924 222.257 242.543 221.083 241.584 220.593Z" fill="black"/>
<path opacity="0.3" d="M270.012 235.112L267.865 234.017C266.906 233.527 265.731 233.908 265.242 234.867L260.988 243.205C260.499 244.164 260.88 245.339 261.839 245.828L263.986 246.923C264.945 247.413 266.12 247.032 266.609 246.073L270.863 237.735C271.352 236.776 270.971 235.601 270.012 235.112Z" fill="black"/>
<path opacity="0.2" d="M219.49 246.32C219.49 246.32 238.2 257.32 244.14 247.93L239.69 256.63L219.49 246.32Z" fill="black"/>
<path d="M257.19 172.8C257.62 174.11 262.85 184.25 265.63 187.74C266.534 186.365 267.687 185.171 269.03 184.22C269.426 183.957 269.883 183.799 270.357 183.76C270.831 183.722 271.307 183.804 271.74 184C275.39 185.64 278.21 187.16 278.21 187.16C279.063 184.801 280.303 182.601 281.88 180.65C283.16 179.28 286.15 182.15 287.88 182.93C287.02 178.25 283.01 170.35 278.56 168.03C274.57 165.94 254.44 164.34 257.19 172.8Z" fill="white"/>
<path d="M348.83 374.48C348.94 374.48 349.29 382.69 349.29 382.69L328.24 386.33L326.87 379L348.83 374.48Z" fill="#3F72AF"/>
<path opacity="0.6" d="M348.83 374.48C348.94 374.48 349.29 382.69 349.29 382.69L328.24 386.33L326.87 379L348.83 374.48Z" fill="white"/>
<path d="M233.55 363C233.55 363.09 226.38 366.14 226.38 366.14L216.85 347L223.02 343.33L233.55 363Z" fill="#3F72AF"/>
<path opacity="0.6" d="M233.55 363C233.55 363.09 226.38 366.14 226.38 366.14L216.85 347L223.02 343.33L233.55 363Z" fill="white"/>
<path d="M338 186.12L328.75 186.5C328.271 186.53 327.791 186.457 327.342 186.286C326.894 186.115 326.487 185.85 326.149 185.509C325.811 185.169 325.55 184.759 325.382 184.309C325.215 183.859 325.146 183.379 325.18 182.9L326.35 157.34C326.376 156.903 326.562 156.491 326.871 156.181C327.181 155.872 327.593 155.686 328.03 155.66L339.41 155.19C339.889 155.16 340.369 155.233 340.818 155.404C341.266 155.575 341.673 155.84 342.011 156.181C342.349 156.521 342.611 156.931 342.778 157.381C342.945 157.831 343.014 158.311 342.98 158.79L341.91 182.21C341.846 183.226 341.414 184.184 340.694 184.904C339.974 185.624 339.016 186.056 338 186.12Z" fill="#3F72AF"/>
<path opacity="0.2" d="M338 186.12L328.75 186.5C328.271 186.53 327.791 186.457 327.342 186.286C326.894 186.115 326.487 185.85 326.149 185.509C325.811 185.169 325.55 184.759 325.382 184.309C325.215 183.859 325.146 183.379 325.18 182.9L326.35 157.34C326.376 156.903 326.562 156.491 326.871 156.181C327.181 155.872 327.593 155.686 328.03 155.66L339.41 155.19C339.889 155.16 340.369 155.233 340.818 155.404C341.266 155.575 341.673 155.84 342.011 156.181C342.349 156.521 342.611 156.931 342.778 157.381C342.945 157.831 343.014 158.311 342.98 158.79L341.91 182.21C341.846 183.226 341.414 184.184 340.694 184.904C339.974 185.624 339.016 186.056 338 186.12Z" fill="black"/>
<path d="M338.52 186.57L329.27 186.96C328.791 186.988 328.312 186.914 327.864 186.743C327.416 186.571 327.01 186.306 326.672 185.966C326.335 185.625 326.073 185.217 325.906 184.768C325.738 184.318 325.668 183.839 325.7 183.36L326.87 157.79C326.894 157.353 327.079 156.941 327.39 156.633C327.7 156.324 328.113 156.142 328.55 156.12L339.93 155.64C340.409 155.612 340.888 155.686 341.336 155.858C341.784 156.029 342.19 156.294 342.528 156.634C342.865 156.975 343.127 157.383 343.294 157.832C343.462 158.282 343.532 158.762 343.5 159.24L342.43 182.66C342.371 183.678 341.939 184.638 341.219 185.359C340.498 186.079 339.538 186.511 338.52 186.57Z" fill="#3F72AF"/>
<path opacity="0.5" d="M338.43 186.58L329.37 186.95C328.88 186.978 328.39 186.901 327.931 186.726C327.473 186.551 327.056 186.28 326.71 185.933C326.363 185.585 326.094 185.168 325.92 184.709C325.746 184.251 325.671 183.76 325.7 183.27L326.87 157.87C326.901 157.412 327.097 156.98 327.423 156.656C327.749 156.332 328.182 156.138 328.64 156.11L339.83 155.65C340.32 155.621 340.812 155.696 341.271 155.871C341.73 156.045 342.147 156.316 342.494 156.663C342.841 157.011 343.11 157.429 343.283 157.889C343.457 158.348 343.531 158.84 343.5 159.33L342.43 182.59C342.366 183.629 341.924 184.608 341.187 185.343C340.45 186.079 339.469 186.518 338.43 186.58Z" fill="white"/>
<path opacity="0.3" d="M332.43 163.53L328.37 163.7C328.143 163.713 327.916 163.678 327.703 163.597C327.491 163.515 327.298 163.389 327.138 163.227C326.978 163.066 326.855 162.872 326.776 162.658C326.697 162.445 326.664 162.217 326.68 161.99L326.87 157.83C326.896 157.382 327.086 156.96 327.403 156.643C327.72 156.326 328.142 156.136 328.59 156.11L332.78 155.94C333.006 155.927 333.232 155.962 333.443 156.043C333.654 156.124 333.846 156.249 334.005 156.41C334.164 156.571 334.287 156.764 334.365 156.976C334.444 157.188 334.476 157.414 334.46 157.64L334.28 161.64C334.255 162.126 334.053 162.587 333.712 162.934C333.371 163.282 332.916 163.494 332.43 163.53Z" fill="white"/>
<path d="M332.07 163.2L328.38 163.36C328.153 163.372 327.927 163.335 327.715 163.253C327.503 163.171 327.311 163.045 327.152 162.884C326.992 162.722 326.868 162.529 326.789 162.316C326.709 162.104 326.676 161.877 326.69 161.65L326.86 157.96C326.895 157.481 327.101 157.03 327.441 156.691C327.78 156.351 328.231 156.145 328.71 156.11L332.4 155.96C332.626 155.947 332.853 155.982 333.064 156.063C333.276 156.144 333.468 156.269 333.628 156.429C333.788 156.59 333.912 156.783 333.991 156.995C334.071 157.207 334.105 157.434 334.09 157.66L333.92 161.35C333.885 161.829 333.679 162.28 333.339 162.619C333 162.959 332.549 163.165 332.07 163.2Z" fill="#263238"/>
<path opacity="0.1" d="M332.07 163.2L328.38 163.36C328.153 163.372 327.927 163.335 327.715 163.253C327.503 163.171 327.311 163.045 327.152 162.884C326.992 162.722 326.868 162.529 326.789 162.316C326.709 162.104 326.676 161.877 326.69 161.65L326.86 157.96C326.895 157.481 327.101 157.03 327.441 156.691C327.78 156.351 328.231 156.145 328.71 156.11L332.4 155.96C332.626 155.947 332.853 155.982 333.064 156.063C333.276 156.144 333.468 156.269 333.628 156.429C333.788 156.59 333.912 156.783 333.991 156.995C334.071 157.207 334.105 157.434 334.09 157.66L333.92 161.35C333.885 161.829 333.679 162.28 333.339 162.619C333 162.959 332.549 163.165 332.07 163.2Z" fill="white"/>
<path d="M336.47 171.6C336.448 172.123 336.23 172.619 335.86 172.99C335.489 173.36 334.993 173.578 334.47 173.6C334.229 173.616 333.986 173.581 333.76 173.495C333.533 173.41 333.328 173.277 333.157 173.105C332.987 172.934 332.855 172.728 332.771 172.501C332.687 172.274 332.652 172.031 332.67 171.79C332.697 171.268 332.916 170.775 333.285 170.405C333.655 170.036 334.148 169.816 334.67 169.79C334.911 169.777 335.151 169.815 335.376 169.901C335.601 169.988 335.806 170.121 335.976 170.292C336.146 170.462 336.277 170.667 336.363 170.893C336.448 171.118 336.484 171.359 336.47 171.6Z" fill="white"/>
<path d="M343 190.46L344.46 187.46C345.326 185.773 345.643 183.857 345.365 181.981C345.087 180.105 344.228 178.363 342.91 177L339.66 173.94C339.66 173.94 334.17 186.83 335.54 186.99C336.22 187.07 336.54 188.32 338.9 189.87C339.482 190.298 340.161 190.576 340.876 190.679C341.591 190.782 342.321 190.707 343 190.46Z" fill="#FFB573"/>
<path d="M339.66 173.92C339.66 173.92 335.35 173.06 334.15 174.53C332.95 176 332.15 182.06 332.05 182.86C331.85 184.99 335.54 186.97 335.54 186.97L339.66 173.92Z" fill="#FFB573"/>
<path d="M261.38 157.67C257.65 154.78 254.32 151.18 252.69 146.72C250.94 141.96 251.52 136.09 255.06 132.51C255.35 132.23 255.73 131.93 256.11 132.07C256.25 132.151 256.371 132.261 256.465 132.392C256.56 132.523 256.626 132.672 256.66 132.83C256.74 133.03 256.81 133.25 256.88 133.46C256.95 133.67 257.04 133.93 257.11 134.17C256.643 135.126 256.287 136.133 256.05 137.17C255.608 139.148 255.625 141.2 256.1 143.17C256.44 144.65 256.73 145.98 257.03 147.22C258.15 152 259.11 155 261.38 157.67Z" fill="#263238"/>
<path d="M262.15 158.26L261.4 157.69C259.13 155.06 258.17 151.98 257.05 147.2C256.75 145.96 256.46 144.63 256.12 143.15C255.645 141.18 255.628 139.127 256.07 137.15C256.307 136.113 256.663 135.106 257.13 134.15C258.46 138.4 258.81 142.86 259.4 147.25C259.76 151.037 260.687 154.749 262.15 158.26Z" fill="#263238"/>
<path d="M262.9 153C263.65 157.93 264.31 164.86 261.8 168.9C261.357 169.577 261.125 170.37 261.136 171.179C261.147 171.988 261.399 172.775 261.86 173.44C263.54 175.76 267.31 179.21 275.8 182.99C278.12 179.87 278.91 177.38 279 175.5C279.033 174.431 278.736 173.377 278.149 172.483C277.562 171.588 276.714 170.896 275.72 170.5C271.64 168.78 271.98 166.36 273.06 162.57L262.9 153Z" fill="#FFB573"/>
<path opacity="0.2" d="M267 156.89L273 162.61C272.697 163.609 272.483 164.633 272.36 165.67C270.01 165.23 266.36 163.05 266.01 160.43C266.05 159.187 266.39 157.973 267 156.89Z" fill="black"/>
<path d="M283.89 152.06C283.759 154.927 282.565 157.642 280.541 159.676C278.516 161.71 275.806 162.916 272.94 163.06H272.87C270.641 163.16 268.425 162.678 266.44 161.66C265.704 161.288 265.001 160.853 264.34 160.36C264.07 160.17 263.8 159.96 263.56 159.76C262.776 159.133 262.053 158.433 261.4 157.67C259.13 155.04 258.17 151.96 257.05 147.18C256.75 145.94 256.46 144.61 256.12 143.13C255.645 141.16 255.628 139.108 256.07 137.13C256.307 136.093 256.663 135.086 257.13 134.13C257.336 133.708 257.57 133.3 257.83 132.91C259.222 130.698 261.271 128.975 263.689 127.982C266.107 126.989 268.775 126.775 271.32 127.37C275.69 128.37 278.81 131.72 280.86 135.94C281.06 136.36 281.25 136.79 281.43 137.22C283.341 141.923 284.182 146.992 283.89 152.06Z" fill="#FFB573"/>
<path d="M271.15 143.09C271.29 143.85 271.79 144.4 272.27 144.33C272.75 144.26 273.05 143.55 272.93 142.79C272.81 142.03 272.3 141.48 271.82 141.55C271.34 141.62 271.07 142.36 271.15 143.09Z" fill="#263238"/>
<path d="M279.61 141.67C279.74 142.45 280.24 142.98 280.72 142.91C281.2 142.84 281.51 142.13 281.39 141.37C281.27 140.61 280.76 140.06 280.27 140.15C279.78 140.24 279.49 140.91 279.61 141.67Z" fill="#263238"/>
<path d="M277.23 143.5C278.187 145.119 279.358 146.602 280.71 147.91C280.376 148.254 279.972 148.522 279.525 148.695C279.078 148.867 278.598 148.941 278.12 148.91L277.23 143.5Z" fill="#ED893E"/>
<path d="M274.54 152.55C274.915 152.546 275.29 152.513 275.66 152.45C275.717 152.44 275.769 152.409 275.804 152.362C275.84 152.316 275.856 152.258 275.85 152.2C275.838 152.142 275.804 152.092 275.756 152.058C275.708 152.025 275.648 152.011 275.59 152.02C274.66 152.193 273.703 152.143 272.795 151.876C271.888 151.608 271.057 151.13 270.37 150.48C270.349 150.458 270.325 150.441 270.297 150.429C270.27 150.417 270.24 150.411 270.21 150.411C270.18 150.411 270.15 150.417 270.123 150.429C270.095 150.441 270.071 150.458 270.05 150.48C270.008 150.523 269.985 150.58 269.985 150.64C269.985 150.7 270.008 150.757 270.05 150.8C270.642 151.378 271.345 151.831 272.117 152.132C272.888 152.433 273.712 152.575 274.54 152.55Z" fill="#263238"/>
<path d="M267.47 141.93C267.565 141.933 267.658 141.905 267.734 141.848C267.81 141.792 267.865 141.712 267.89 141.62C268.192 140.953 268.627 140.355 269.168 139.863C269.71 139.372 270.347 138.996 271.04 138.76C271.155 138.723 271.25 138.643 271.306 138.536C271.363 138.43 271.375 138.305 271.34 138.19C271.324 138.134 271.297 138.082 271.261 138.036C271.224 137.991 271.179 137.953 271.128 137.925C271.077 137.897 271.02 137.88 270.962 137.874C270.904 137.868 270.846 137.873 270.79 137.89C269.954 138.161 269.188 138.611 268.544 139.209C267.9 139.806 267.393 140.537 267.06 141.35C267.026 141.461 267.037 141.582 267.091 141.685C267.146 141.788 267.239 141.866 267.35 141.9C267.386 141.921 267.428 141.932 267.47 141.93Z" fill="#263238"/>
<path d="M281.49 137.26C281.592 137.263 281.692 137.232 281.774 137.17C281.856 137.109 281.914 137.022 281.94 136.923C281.966 136.824 281.957 136.719 281.915 136.626C281.873 136.533 281.801 136.457 281.71 136.41C281.105 136.022 280.413 135.793 279.696 135.744C278.979 135.695 278.262 135.828 277.61 136.13C277.508 136.18 277.43 136.267 277.391 136.373C277.352 136.479 277.355 136.596 277.4 136.7C277.425 136.752 277.461 136.798 277.505 136.836C277.549 136.874 277.6 136.903 277.655 136.921C277.71 136.938 277.768 136.945 277.825 136.939C277.883 136.934 277.939 136.917 277.99 136.89C278.507 136.673 279.069 136.584 279.628 136.631C280.187 136.678 280.726 136.86 281.2 137.16C281.239 137.195 281.285 137.222 281.335 137.239C281.385 137.256 281.437 137.263 281.49 137.26Z" fill="#263238"/>
<path opacity="0.2" d="M261.79 149.58C261.42 150.11 260.03 147.38 259.38 147.27C258.604 147.14 257.814 147.11 257.03 147.18C256.73 145.94 256.44 144.61 256.1 143.13C255.626 141.16 255.608 139.108 256.05 137.13C256.287 136.093 256.643 135.086 257.11 134.13C257.04 133.89 256.97 133.65 256.88 133.42C257.17 133.221 257.478 133.05 257.8 132.91C258.535 132.589 259.344 132.471 260.14 132.57C260.733 132.686 261.29 132.942 261.764 133.316C262.239 133.69 262.618 134.171 262.87 134.72C259.88 141 263 147.91 261.79 149.58Z" fill="black"/>
<path d="M261.24 122.82C258.005 123.728 255.205 125.769 253.35 128.57C252.26 130.31 251.62 132.92 252.85 134.49C253.85 135.79 255.64 135.66 257.15 135.44L276.68 132.51C278.93 132.17 281.32 131.76 283.02 129.99C283.772 129.157 284.33 128.169 284.655 127.095C284.98 126.022 285.064 124.89 284.9 123.78C284.99 124.4 279.41 124.72 278.9 124.69C276.733 124.521 274.624 123.901 272.71 122.87C269.15 121 265 121.66 261.24 122.82Z" fill="#263238"/>
<path d="M254.79 150.76C255.638 152.337 257.076 153.513 258.79 154.03C261.06 154.67 262.2 152.61 261.57 150.41C260.99 148.41 259.13 145.73 256.85 146.01C256.348 146.104 255.878 146.322 255.481 146.642C255.083 146.963 254.772 147.377 254.574 147.848C254.376 148.318 254.297 148.83 254.345 149.339C254.394 149.847 254.567 150.335 254.85 150.76H254.79Z" fill="#FFB573"/>
<path d="M262.88 134.68C262.88 134.68 262.79 136.08 262.74 137.36C262.726 137.891 262.537 138.402 262.202 138.814C261.868 139.227 261.407 139.517 260.89 139.64L254.66 141.13C254.66 141.13 251.71 135.97 254.41 135.03C257.11 134.09 263 132.89 262.88 134.68Z" fill="#263238"/>
<path d="M247.92 253.75L255.57 264.43C255.57 264.43 264.36 259.68 264.97 258.91C264.97 258.91 262.75 253.72 258.55 251.51L254.55 249.8L247.92 253.75Z" fill="#FFB573"/>
<path d="M254.29 262.73L264.72 258.56L267.36 262.84C267.474 263.028 267.547 263.238 267.574 263.456C267.601 263.674 267.581 263.896 267.516 264.106C267.451 264.316 267.342 264.509 267.196 264.674C267.05 264.838 266.871 264.97 266.67 265.06L261.09 267.53C260.504 267.791 259.849 267.853 259.224 267.707C258.599 267.561 258.039 267.214 257.63 266.72L254.29 262.73Z" fill="#FFB573"/>
<path d="M234.16 183.18C229.4 194.24 223.89 204.13 225.08 215.67C226.21 226.67 239.47 247.35 247.49 254.98C246.24 254.42 257.76 249.39 257.76 249.39C257.63 245.86 245.7 225.21 241.58 216.52C238.79 210.63 257.75 189.23 256.33 182.52C252.71 165.29 237.33 175.84 234.16 183.18Z" fill="#3F72AF"/>
<path opacity="0.7" d="M234.16 183.18C229.4 194.24 223.89 204.13 225.08 215.67C226.21 226.67 239.47 247.35 247.49 254.98C246.24 254.42 257.76 249.39 257.76 249.39C257.63 245.86 245.7 225.21 241.58 216.52C238.79 210.63 257.75 189.23 256.33 182.52C252.71 165.29 237.33 175.84 234.16 183.18Z" fill="white"/>
<path d="M307.69 138.62C306.497 138.632 305.305 138.532 304.13 138.32L302.79 138.02L304 137.38C308 135.29 310.34 132.95 311 130.38C311.336 129.023 311.131 127.589 310.43 126.38H310.21V126.17C302.72 122.17 298.43 116.23 298.43 109.88C298.43 98.2701 312.87 88.8201 330.62 88.8201C348.37 88.8201 362.82 98.2701 362.82 109.88C362.82 121.49 348.32 131 330.57 131C328.008 131.005 325.45 130.805 322.92 130.4C318.83 137.43 311.9 138.62 307.69 138.62ZM305.78 137.54C309.17 137.85 317.7 137.74 322.22 129.59L322.39 129.28L322.74 129.33C325.327 129.767 327.946 129.985 330.57 129.98C347.77 129.98 361.77 120.98 361.77 109.92C361.77 98.8601 347.77 89.8601 330.57 89.8601C313.37 89.8601 299.38 98.8601 299.38 109.92C299.38 115.92 303.54 121.58 310.8 125.42H310.93L311 125.52L311.16 125.6V125.75C311.607 126.475 311.906 127.281 312.038 128.123C312.17 128.964 312.134 129.823 311.93 130.65C311.31 133.17 309.25 135.48 305.78 137.54Z" fill="#3F72AF"/>
<path d="M317.89 102.43H311.85L325.32 120.86L350.59 87.25H347.75L324.47 111.1L317.89 102.43Z" fill="#263238"/>
</svg>
