<svg width="500" height="500" viewBox="0 0 500 500" fill="none" xmlns="http://www.w3.org/2000/svg">
<path d="M348.33 393.56H337.85V393.81H348.33V393.56Z" fill="#E6E6E6"/>
<path d="M414.72 263.55H328.9L334.25 382.4H420.08L414.72 263.55Z" fill="#EBEBEB"/>
<path d="M415.97 263.55H330.14L335.5 382.4H421.32L415.97 263.55Z" fill="#F5F5F5"/>
<path d="M344.29 382.4H366.81V355.42H344.29V382.4Z" fill="#EBEBEB"/>
<path d="M449.1 355.42H366.81V382.4H449.1V355.42Z" fill="#FAFAFA"/>
<g style="mix-blend-mode:multiply" opacity="0.7">
<path d="M344.29 360.73H449.33V358.88H344.29V360.73Z" fill="#E0E0E0"/>
</g>
<path d="M343.05 359.65H366.81V354.3H343.05V359.65Z" fill="#EBEBEB"/>
<path d="M450.34 354.3H366.81V359.65H450.34V354.3Z" fill="#FAFAFA"/>
<path d="M351.77 354.3H385.98V297.37H351.77V354.3Z" fill="#E6E6E6"/>
<path d="M427.76 297.37H385.97V354.3H427.76V297.37Z" fill="#F0F0F0"/>
<g style="mix-blend-mode:multiply" opacity="0.7">
<path d="M351.77 305.43H428.13V302.62H351.77V305.43Z" fill="#E0E0E0"/>
</g>
<path d="M349.87 303.8H385.97V290.87H349.87V303.8Z" fill="#E6E6E6"/>
<path d="M429.65 290.87H385.97V303.8H429.65V290.87Z" fill="#F0F0F0"/>
<path d="M329.91 382.39C342.016 382.39 351.83 372.576 351.83 360.47C351.83 348.364 342.016 338.55 329.91 338.55C317.804 338.55 307.99 348.364 307.99 360.47C307.99 372.576 317.804 382.39 329.91 382.39Z" fill="#E6E6E6"/>
<g style="mix-blend-mode:multiply" opacity="0.7">
<path d="M340.65 347.41C339.34 346.06 338.82 344.41 339.48 343.8C340.14 343.19 341.74 343.74 343.04 345.1C344.34 346.46 344.87 348.1 344.21 348.7C343.55 349.3 342 348.76 340.65 347.41Z" fill="#E0E0E0"/>
</g>
<g style="mix-blend-mode:multiply" opacity="0.7">
<path d="M331.54 343.3C329.69 342.94 328.34 341.92 328.54 341.02C328.74 340.12 330.35 339.67 332.2 340.02C334.05 340.37 335.4 341.39 335.2 342.29C335 343.19 333.39 343.65 331.54 343.3Z" fill="#E0E0E0"/>
</g>
<g style="mix-blend-mode:multiply" opacity="0.7">
<path d="M333.41 351C331.64 350.38 330.51 349 330.89 347.9C331.27 346.8 333.02 346.43 334.79 347.06C336.56 347.69 337.7 349.06 337.31 350.16C336.92 351.26 335.18 351.57 333.41 351Z" fill="#E0E0E0"/>
</g>
<path d="M313.92 73.6799H62.34V217.81H313.92V73.6799Z" fill="white"/>
<path d="M317.66 73.6799H64.09V217.81H317.66V73.6799Z" fill="#F5F5F5"/>
<path d="M312.42 211.92V79.5601L69.32 79.5601V211.92L312.42 211.92Z" fill="#FAFAFA"/>
<path d="M132.27 211.92L163.02 79.5601H203.32L172.57 211.92H132.27Z" fill="white"/>
<path d="M179.1 211.92L209.84 79.5601H228.04L197.3 211.92H179.1Z" fill="white"/>
<path d="M312.42 211.92V79.5601H311.75V211.92H312.42Z" fill="white"/>
<path d="M58.41 73.4401V130.56H73.52C73.52 130.56 100.67 112.85 106.84 76.4201C106.989 75.5479 106.945 74.6536 106.712 73.8001C106.478 72.9466 106.061 72.1543 105.49 71.4789C104.918 70.8035 104.206 70.2612 103.403 69.89C102.6 69.5188 101.725 69.3277 100.84 69.3301H62.52C61.43 69.3301 60.3846 69.7631 59.6138 70.5339C58.8431 71.3047 58.41 72.3501 58.41 73.4401Z" fill="#E6E6E6"/>
<path d="M58.41 237.67V135.17H73.52C73.52 135.17 104.18 196.45 107.74 237.67H58.41Z" fill="#E6E6E6"/>
<path d="M73.08 130.56H58.9599C58.126 130.56 57.45 131.236 57.45 132.07V133.66C57.45 134.494 58.126 135.17 58.9599 135.17H73.08C73.9139 135.17 74.5899 134.494 74.5899 133.66V132.07C74.5899 131.236 73.9139 130.56 73.08 130.56Z" fill="#F5F5F5"/>
<path d="M321.94 73.4399V130.56H306.83C306.83 130.56 279.68 112.85 273.51 76.4199C273.36 75.5474 273.402 74.6525 273.635 73.7982C273.867 72.9439 274.284 72.151 274.856 71.4751C275.428 70.7993 276.141 70.257 276.945 69.8863C277.749 69.5157 278.625 69.3258 279.51 69.3299H317.87C318.953 69.3404 319.988 69.7781 320.75 70.5477C321.513 71.3174 321.94 72.3568 321.94 73.4399Z" fill="#E6E6E6"/>
<path d="M321.94 237.67V135.17H306.83C306.83 135.17 276.16 196.45 272.6 237.67H321.94Z" fill="#E6E6E6"/>
<path d="M307.26 135.16H321.38C322.214 135.16 322.89 134.484 322.89 133.65V132.06C322.89 131.226 322.214 130.55 321.38 130.55H307.26C306.426 130.55 305.75 131.226 305.75 132.06V133.65C305.75 134.484 306.426 135.16 307.26 135.16Z" fill="#F5F5F5"/>
<path d="M251.97 289.11H230.64V382.39H251.97V289.11Z" fill="#E6E6E6"/>
<path d="M242.73 382.4H251.97V366.92H233.04L242.73 382.4Z" fill="#FAFAFA"/>
<path d="M86.49 289.11H65.16V382.39H86.49V289.11Z" fill="#E6E6E6"/>
<path d="M251.97 289.11H78.4301V377.07H251.97V289.11Z" fill="#FAFAFA"/>
<path d="M87.6601 382.4H78.4301V366.92H97.3501L87.6601 382.4Z" fill="#FAFAFA"/>
<path d="M244.8 296.51H85.59V328.95H244.8V296.51Z" fill="#EBEBEB"/>
<path d="M160.31 312.74C160.312 313.707 160.6 314.651 161.139 315.454C161.677 316.257 162.442 316.882 163.336 317.251C164.229 317.619 165.212 317.715 166.16 317.525C167.108 317.335 167.978 316.869 168.661 316.184C169.344 315.5 169.809 314.629 169.997 313.68C170.185 312.732 170.087 311.749 169.717 310.856C169.346 309.964 168.72 309.2 167.916 308.664C167.112 308.127 166.167 307.84 165.2 307.84C164.557 307.84 163.92 307.967 163.326 308.213C162.732 308.46 162.193 308.821 161.739 309.276C161.284 309.731 160.924 310.271 160.679 310.866C160.434 311.46 160.309 312.097 160.31 312.74Z" fill="white"/>
<path d="M244.8 336.79H85.59V369.23H244.8V336.79Z" fill="#EBEBEB"/>
<path d="M160.31 353C160.31 353.967 160.597 354.912 161.134 355.717C161.671 356.521 162.435 357.148 163.329 357.518C164.222 357.888 165.205 357.985 166.154 357.796C167.103 357.607 167.974 357.142 168.658 356.458C169.342 355.774 169.807 354.902 169.996 353.954C170.185 353.005 170.088 352.022 169.718 351.129C169.348 350.235 168.721 349.471 167.917 348.934C167.113 348.397 166.167 348.11 165.2 348.11C163.903 348.11 162.659 348.625 161.742 349.542C160.825 350.459 160.31 351.703 160.31 353Z" fill="white"/>
<path d="M424.25 92.95H352.58V202.83H424.25V92.95Z" fill="#E6E6E6"/>
<path d="M430.31 92.95H354.24V202.83H430.31V92.95Z" fill="#F5F5F5"/>
<path d="M425.46 197.99V97.8101H359.09V197.99H425.46Z" fill="white"/>
<path d="M413.78 185.43V110.38H370.77V185.43H413.78Z" fill="#F5F5F5"/>
<path d="M250 427.56C357.082 427.56 443.89 422.492 443.89 416.24C443.89 409.988 357.082 404.92 250 404.92C142.917 404.92 56.11 409.988 56.11 416.24C56.11 422.492 142.917 427.56 250 427.56Z" fill="#F5F5F5"/>
<path d="M203.5 255.06C203.5 256.28 202.92 256.06 202.5 256.25L201.27 256.65L198.83 257.46C197.18 257.97 195.55 258.46 193.9 258.99C190.61 259.99 187.29 260.91 183.9 261.68C183.836 261.695 183.769 261.697 183.704 261.686C183.639 261.674 183.577 261.651 183.521 261.615C183.465 261.58 183.417 261.534 183.379 261.48C183.341 261.426 183.314 261.365 183.3 261.3C183.277 261.188 183.292 261.071 183.343 260.967C183.393 260.864 183.477 260.781 183.58 260.73C186.73 259.3 189.92 258.02 193.14 256.8C194.75 256.19 196.37 255.61 197.98 255.02L200.42 254.18L201.63 253.75C202.06 253.68 202.34 253.16 203.12 254.11C203.356 254.372 203.49 254.708 203.5 255.06Z" fill="#3F72AF"/>
<path opacity="0.8" d="M203.5 255.06C203.5 256.28 202.92 256.06 202.5 256.25L201.27 256.65L198.83 257.46C197.18 257.97 195.55 258.46 193.9 258.99C190.61 259.99 187.29 260.91 183.9 261.68C183.836 261.695 183.769 261.697 183.704 261.686C183.639 261.674 183.577 261.651 183.521 261.615C183.465 261.58 183.417 261.534 183.379 261.48C183.341 261.426 183.314 261.365 183.3 261.3C183.277 261.188 183.292 261.071 183.343 260.967C183.393 260.864 183.477 260.781 183.58 260.73C186.73 259.3 189.92 258.02 193.14 256.8C194.75 256.19 196.37 255.61 197.98 255.02L200.42 254.18L201.63 253.75C202.06 253.68 202.34 253.16 203.12 254.11C203.356 254.372 203.49 254.708 203.5 255.06Z" fill="white"/>
<path d="M199.72 258.33C199.72 258.33 199.35 269.48 185.45 269.48C171.55 269.48 171.17 258.33 171.17 258.33H199.72Z" fill="#3F72AF"/>
<g opacity="0.6">
<path d="M199.72 258.33C199.72 258.33 199.35 269.48 185.45 269.48C171.55 269.48 171.17 258.33 171.17 258.33H199.72Z" fill="black"/>
</g>
<path d="M267.23 253.83C267.042 253.84 266.855 253.86 266.67 253.89V252.63C266.67 252.211 266.503 251.809 266.207 251.513C265.911 251.217 265.509 251.05 265.09 251.05H252.76C252.34 251.05 251.937 251.216 251.639 251.512C251.341 251.808 251.173 252.21 251.17 252.63V268.4C251.17 268.686 251.284 268.961 251.486 269.164C251.689 269.366 251.963 269.48 252.25 269.48H265.6C265.741 269.48 265.881 269.452 266.012 269.398C266.142 269.343 266.261 269.264 266.36 269.163C266.46 269.063 266.538 268.944 266.591 268.813C266.645 268.682 266.671 268.541 266.67 268.4V266.64C266.856 266.667 267.043 266.683 267.23 266.69C267.845 266.69 268.454 266.569 269.022 266.333C269.59 266.097 270.105 265.751 270.539 265.315C270.973 264.879 271.317 264.362 271.55 263.793C271.784 263.224 271.903 262.615 271.9 262V258.5C271.897 257.262 271.404 256.076 270.529 255.201C269.654 254.326 268.468 253.833 267.23 253.83ZM269.9 262.03C269.897 262.736 269.615 263.413 269.114 263.912C268.614 264.41 267.936 264.69 267.23 264.69C267.042 264.69 266.854 264.67 266.67 264.63V255.89C266.855 255.855 267.042 255.835 267.23 255.83C267.937 255.833 268.615 256.115 269.115 256.615C269.615 257.115 269.897 257.793 269.9 258.5V262.03Z" fill="#263238"/>
<path d="M259.71 232.24C260.351 233.627 260.666 235.142 260.63 236.67C260.578 238.172 260.266 239.654 259.71 241.05C259.22 242.36 258.71 243.49 258.28 244.73C257.85 245.97 257.39 247.28 256.72 248.67C256.705 248.703 256.677 248.728 256.644 248.741C256.61 248.754 256.573 248.754 256.54 248.74C256.524 248.734 256.509 248.725 256.497 248.713C256.485 248.701 256.476 248.686 256.47 248.67C255.849 247.281 255.545 245.771 255.58 244.25C255.63 242.752 255.927 241.272 256.46 239.87C256.93 238.55 257.46 237.42 257.86 236.18C258.324 234.84 258.858 233.524 259.46 232.24C259.477 232.209 259.505 232.186 259.538 232.175C259.572 232.164 259.608 232.166 259.64 232.18C259.64 232.18 259.69 232.22 259.71 232.24Z" fill="#E0E0E0"/>
<path d="M266.49 227C267.135 228.386 267.45 229.902 267.41 231.43C267.361 232.931 267.053 234.413 266.5 235.81C266.01 237.11 265.5 238.25 265.07 239.49C264.64 240.73 264.17 242.04 263.5 243.43C263.485 243.463 263.457 243.488 263.424 243.501C263.39 243.514 263.353 243.514 263.32 243.5C263.292 243.482 263.268 243.458 263.25 243.43C262.639 242.038 262.335 240.53 262.36 239.01C262.412 237.511 262.713 236.031 263.25 234.63C263.72 233.31 264.19 232.18 264.65 230.94C265.11 229.6 265.641 228.284 266.24 227C266.247 226.984 266.258 226.969 266.271 226.957C266.285 226.946 266.3 226.937 266.317 226.931C266.334 226.925 266.352 226.923 266.369 226.925C266.387 226.926 266.404 226.932 266.42 226.94C266.449 226.952 266.474 226.973 266.49 227Z" fill="#E0E0E0"/>
<path d="M300.86 275.92H294.82V416.23H300.86V275.92Z" fill="#3F72AF"/>
<path d="M98.3599 416.24H104.4L104.4 275.93H98.3599L98.3599 416.24Z" fill="#3F72AF"/>
<path d="M152.33 275.92H146.29V416.23H152.33V275.92Z" fill="#3F72AF"/>
<path d="M349.07 275.92H343.03V416.23H349.07V275.92Z" fill="#3F72AF"/>
<path d="M349.07 269.48H146.29V275.93H349.07V269.48Z" fill="#3F72AF"/>
<path d="M92.3299 275.92H146.3V269.47H92.3299V275.92Z" fill="#3F72AF"/>
<g opacity="0.3">
<path d="M92.3299 275.92H146.3V269.47H92.3299V275.92Z" fill="black"/>
</g>
<path d="M98.3599 275.92H92.3199V416.23H98.3599V275.92Z" fill="#3F72AF"/>
<path opacity="0.3" d="M98.3599 275.92H92.3199V416.23H98.3599V275.92Z" fill="black"/>
<path d="M140.26 416.24H146.3L146.3 275.93H140.26L140.26 416.24Z" fill="#3F72AF"/>
<path opacity="0.3" d="M140.26 416.24H146.3L146.3 275.93H140.26L140.26 416.24Z" fill="black"/>
<path d="M288.77 416.24H294.81V275.93H288.77V416.24Z" fill="#3F72AF"/>
<path opacity="0.3" d="M288.77 416.24H294.81V275.93H288.77V416.24Z" fill="#3F72AF"/>
<path opacity="0.3" d="M288.77 416.24H294.81V275.93H288.77V416.24Z" fill="black"/>
<path d="M336.99 416.24H343.03V275.93H336.99V416.24Z" fill="#3F72AF"/>
<path opacity="0.3" d="M336.99 416.24H343.03V275.93H336.99V416.24Z" fill="#3F72AF"/>
<path opacity="0.3" d="M336.99 416.24H343.03V275.93H336.99V416.24Z" fill="black"/>
<path d="M178.89 215.77H136.46V269.47H178.89V215.77Z" fill="#3F72AF"/>
<path d="M178.89 230.44H146.46V254.81H178.89V230.44Z" fill="#3F72AF"/>
<path opacity="0.2" d="M178.89 230.44H146.46V254.81H178.89V230.44Z" fill="black"/>
<path d="M126.02 269.48H136.46V215.78H126.02V269.48Z" fill="#3F72AF"/>
<path opacity="0.2" d="M126.02 269.48H136.46V215.78H126.02V269.48Z" fill="black"/>
<path d="M126.01 215.77H136.46L134.33 212.15H123.89L126.01 215.77Z" fill="#3F72AF"/>
<path opacity="0.2" d="M126.01 215.77H136.46L134.33 212.15H123.89L126.01 215.77Z" fill="black"/>
<path d="M178.89 215.77H168.44L170.57 212.15H181.01L178.89 215.77Z" fill="#3F72AF"/>
<path opacity="0.2" d="M178.89 215.77H168.44L170.57 212.15H181.01L178.89 215.77Z" fill="black"/>
<path d="M210.83 184.32V182C210.826 181.289 211.043 180.595 211.45 180.012C211.857 179.429 212.434 178.986 213.103 178.745C213.772 178.504 214.499 178.476 215.184 178.665C215.869 178.854 216.479 179.25 216.93 179.8C215.605 179.949 214.343 180.445 213.271 181.239C212.2 182.033 211.358 183.096 210.83 184.32Z" fill="#3F72AF"/>
<path opacity="0.4" d="M210.83 184.32V182C210.826 181.289 211.043 180.595 211.45 180.012C211.857 179.429 212.434 178.986 213.103 178.745C213.772 178.504 214.499 178.476 215.184 178.665C215.869 178.854 216.479 179.25 216.93 179.8C215.605 179.949 214.343 180.445 213.271 181.239C212.2 182.033 211.358 183.096 210.83 184.32Z" fill="white"/>
<path d="M214.42 181.06C214.157 182.081 214.309 183.164 214.84 184.074C215.372 184.984 216.242 185.648 217.26 185.92L219.26 178.22C218.242 177.964 217.164 178.118 216.258 178.649C215.353 179.18 214.693 180.046 214.42 181.06Z" fill="#3F72AF"/>
<path opacity="0.4" d="M214.42 181.06C214.157 182.081 214.309 183.164 214.84 184.074C215.372 184.984 216.242 185.648 217.26 185.92L219.26 178.22C218.242 177.964 217.164 178.118 216.258 178.649C215.353 179.18 214.693 180.046 214.42 181.06Z" fill="white"/>
<path d="M214.33 253.2C214.253 253.2 214.179 253.17 214.125 253.115C214.07 253.061 214.04 252.987 214.04 252.91V184.74C214.04 184.663 214.07 184.59 214.125 184.535C214.179 184.481 214.253 184.45 214.33 184.45C214.407 184.45 214.481 184.481 214.535 184.535C214.589 184.59 214.62 184.663 214.62 184.74V252.91C214.62 252.987 214.589 253.061 214.535 253.115C214.481 253.17 214.407 253.2 214.33 253.2Z" fill="#3F72AF"/>
<path opacity="0.2" d="M214.33 253.2C214.253 253.2 214.179 253.17 214.125 253.115C214.07 253.061 214.04 252.987 214.04 252.91V184.74C214.04 184.663 214.07 184.59 214.125 184.535C214.179 184.481 214.253 184.45 214.33 184.45C214.407 184.45 214.481 184.481 214.535 184.535C214.589 184.59 214.62 184.663 214.62 184.74V252.91C214.62 252.987 214.589 253.061 214.535 253.115C214.481 253.17 214.407 253.2 214.33 253.2Z" fill="black"/>
<path d="M217.74 187.33C217.692 188.214 217.308 189.047 216.665 189.656C216.022 190.265 215.17 190.604 214.285 190.604C213.399 190.604 212.548 190.265 211.905 189.656C211.262 189.047 210.878 188.214 210.83 187.33V184.33C211.362 183.111 212.206 182.054 213.277 181.266C214.348 180.478 215.608 179.986 216.93 179.84C217.451 180.455 217.738 181.234 217.74 182.04V187.33Z" fill="#3F72AF"/>
<path opacity="0.2" d="M217.74 187.33C217.692 188.214 217.308 189.047 216.665 189.656C216.022 190.265 215.17 190.604 214.285 190.604C213.399 190.604 212.548 190.265 211.905 189.656C211.262 189.047 210.878 188.214 210.83 187.33V184.33C211.362 183.111 212.206 182.054 213.277 181.266C214.348 180.478 215.608 179.986 216.93 179.84C217.451 180.455 217.738 181.234 217.74 182.04V187.33Z" fill="black"/>
<path d="M213.87 181.55C214.132 182.572 213.98 183.657 213.446 184.567C212.912 185.477 212.04 186.14 211.02 186.41L209.02 178.71C210.039 178.451 211.12 178.603 212.028 179.135C212.935 179.666 213.597 180.534 213.87 181.55Z" fill="#3F72AF"/>
<path opacity="0.2" d="M213.87 181.55C214.132 182.572 213.98 183.657 213.446 184.567C212.912 185.477 212.04 186.14 211.02 186.41L209.02 178.71C210.039 178.451 211.12 178.603 212.028 179.135C212.935 179.666 213.597 180.534 213.87 181.55Z" fill="black"/>
<path d="M216.1 183.1C216.29 182.822 216.532 182.584 216.814 182.4C217.095 182.216 217.41 182.089 217.741 182.027C218.072 181.965 218.411 181.968 218.741 182.038C219.07 182.107 219.382 182.24 219.66 182.43L216.77 186.66C216.492 186.47 216.254 186.228 216.07 185.946C215.886 185.665 215.759 185.349 215.697 185.019C215.635 184.688 215.638 184.349 215.707 184.019C215.777 183.69 215.91 183.378 216.1 183.1Z" fill="#3F72AF"/>
<path opacity="0.2" d="M216.1 183.1C216.29 182.822 216.532 182.584 216.814 182.4C217.095 182.216 217.41 182.089 217.741 182.027C218.072 181.965 218.411 181.968 218.741 182.038C219.07 182.107 219.382 182.24 219.66 182.43L216.77 186.66C216.492 186.47 216.254 186.228 216.07 185.946C215.886 185.665 215.759 185.349 215.697 185.019C215.635 184.688 215.638 184.349 215.707 184.019C215.777 183.69 215.91 183.378 216.1 183.1Z" fill="black"/>
<path d="M210.06 198.85L213.42 202.69C214.008 203.367 214.331 204.233 214.33 205.13V211L209.73 205.74C209.14 205.064 208.817 204.197 208.82 203.3V199.3C208.824 199.158 208.871 199.021 208.955 198.906C209.038 198.791 209.154 198.703 209.287 198.655C209.421 198.606 209.566 198.599 209.704 198.634C209.841 198.669 209.966 198.744 210.06 198.85Z" fill="#3F72AF"/>
<path opacity="0.2" d="M210.06 198.85L213.42 202.69C214.008 203.367 214.331 204.233 214.33 205.13V211L209.73 205.74C209.14 205.064 208.817 204.197 208.82 203.3V199.3C208.824 199.158 208.871 199.021 208.955 198.906C209.038 198.791 209.154 198.703 209.287 198.655C209.421 198.606 209.566 198.599 209.704 198.634C209.841 198.669 209.966 198.744 210.06 198.85Z" fill="black"/>
<path d="M218.6 206.85L215.25 210.69C214.659 211.366 214.332 212.233 214.33 213.13V219L218.93 213.74C219.523 213.065 219.85 212.198 219.85 211.3V207.3C219.848 207.156 219.802 207.016 219.718 206.898C219.634 206.781 219.516 206.692 219.381 206.643C219.245 206.594 219.097 206.588 218.958 206.625C218.818 206.662 218.694 206.74 218.6 206.85Z" fill="#3F72AF"/>
<path opacity="0.2" d="M218.6 206.85L215.25 210.69C214.659 211.366 214.332 212.233 214.33 213.13V219L218.93 213.74C219.523 213.065 219.85 212.198 219.85 211.3V207.3C219.848 207.156 219.802 207.016 219.718 206.898C219.634 206.781 219.516 206.692 219.381 206.643C219.245 206.594 219.097 206.588 218.958 206.625C218.818 206.662 218.694 206.74 218.6 206.85Z" fill="black"/>
<path opacity="0.7" d="M217.83 250C217.39 238.67 214.38 234.69 217.09 223.24H211.58C214.28 234.69 211.28 238.67 210.83 250C210.38 261.33 209.74 269.48 214.33 269.48C218.92 269.48 218.28 261.33 217.83 250Z" fill="#EBEBEB"/>
<path d="M357.11 416.31C356.782 416.308 356.465 416.188 356.219 415.971C355.973 415.754 355.813 415.455 355.77 415.13L343.51 321.66H323.08L310.82 415.13C310.809 415.317 310.761 415.499 310.676 415.666C310.592 415.833 310.474 415.981 310.331 416.1C310.187 416.22 310.02 416.308 309.84 416.36C309.66 416.412 309.472 416.427 309.287 416.402C309.101 416.378 308.923 416.316 308.762 416.22C308.602 416.124 308.463 415.996 308.355 415.843C308.246 415.691 308.17 415.518 308.131 415.335C308.093 415.152 308.092 414.963 308.13 414.78L320.55 320.13C320.591 319.804 320.75 319.504 320.997 319.287C321.244 319.07 321.561 318.95 321.89 318.95H344.7C345.029 318.95 345.346 319.07 345.593 319.287C345.84 319.504 345.999 319.804 346.04 320.13L358.46 414.78C358.484 414.957 358.472 415.136 358.426 415.309C358.38 415.481 358.301 415.643 358.192 415.784C358.083 415.925 357.947 416.044 357.793 416.132C357.638 416.221 357.467 416.278 357.29 416.3L357.11 416.31Z" fill="#3F72AF"/>
<path opacity="0.5" d="M357.11 416.31C356.782 416.308 356.465 416.188 356.219 415.971C355.973 415.754 355.813 415.455 355.77 415.13L343.51 321.66H323.08L310.82 415.13C310.809 415.317 310.761 415.499 310.676 415.666C310.592 415.833 310.474 415.981 310.331 416.1C310.187 416.22 310.02 416.308 309.84 416.36C309.66 416.412 309.472 416.427 309.287 416.402C309.101 416.378 308.923 416.316 308.762 416.22C308.602 416.124 308.463 415.996 308.355 415.843C308.246 415.691 308.17 415.518 308.131 415.335C308.093 415.152 308.092 414.963 308.13 414.78L320.55 320.13C320.591 319.804 320.75 319.504 320.997 319.287C321.244 319.07 321.561 318.95 321.89 318.95H344.7C345.029 318.95 345.346 319.07 345.593 319.287C345.84 319.504 345.999 319.804 346.04 320.13L358.46 414.78C358.484 414.957 358.472 415.136 358.426 415.309C358.38 415.481 358.301 415.643 358.192 415.784C358.083 415.925 357.947 416.044 357.793 416.132C357.638 416.221 357.467 416.278 357.29 416.3L357.11 416.31Z" fill="black"/>
<path d="M391.43 416.31C391.102 416.308 390.785 416.188 390.539 415.971C390.293 415.754 390.133 415.455 390.09 415.13L377.82 321.66H357.4L345.13 415.13C345.12 415.317 345.071 415.499 344.986 415.666C344.902 415.833 344.785 415.981 344.641 416.1C344.497 416.22 344.33 416.308 344.15 416.36C343.97 416.412 343.782 416.427 343.597 416.403C343.411 416.378 343.233 416.316 343.072 416.22C342.912 416.124 342.773 415.996 342.665 415.843C342.556 415.691 342.48 415.518 342.442 415.335C342.403 415.152 342.402 414.963 342.44 414.78L354.86 320.13C354.904 319.803 355.065 319.503 355.313 319.286C355.561 319.069 355.88 318.95 356.21 318.95H379C379.329 318.948 379.648 319.067 379.895 319.284C380.142 319.502 380.301 319.803 380.34 320.13L392.76 414.78C392.784 414.956 392.773 415.135 392.727 415.307C392.682 415.478 392.603 415.64 392.495 415.781C392.388 415.922 392.253 416.04 392.099 416.13C391.946 416.219 391.776 416.277 391.6 416.3L391.43 416.31Z" fill="#3F72AF"/>
<path opacity="0.5" d="M391.43 416.31C391.102 416.308 390.785 416.188 390.539 415.971C390.293 415.754 390.133 415.455 390.09 415.13L377.82 321.66H357.4L345.13 415.13C345.12 415.317 345.071 415.499 344.986 415.666C344.902 415.833 344.785 415.981 344.641 416.1C344.497 416.22 344.33 416.308 344.15 416.36C343.97 416.412 343.782 416.427 343.597 416.403C343.411 416.378 343.233 416.316 343.072 416.22C342.912 416.124 342.773 415.996 342.665 415.843C342.556 415.691 342.48 415.518 342.442 415.335C342.403 415.152 342.402 414.963 342.44 414.78L354.86 320.13C354.904 319.803 355.065 319.503 355.313 319.286C355.561 319.069 355.88 318.95 356.21 318.95H379C379.329 318.948 379.648 319.067 379.895 319.284C380.142 319.502 380.301 319.803 380.34 320.13L392.76 414.78C392.784 414.956 392.773 415.135 392.727 415.307C392.682 415.478 392.603 415.64 392.495 415.781C392.388 415.922 392.253 416.04 392.099 416.13C391.946 416.219 391.776 416.277 391.6 416.3L391.43 416.31Z" fill="black"/>
<path d="M335.62 320.3H380.78C384.923 320.301 388.902 318.677 391.862 315.777C394.821 312.877 396.526 308.933 396.61 304.79L398.3 236.16C398.33 234.625 398.055 233.1 397.488 231.673C396.922 230.246 396.077 228.947 395.002 227.851C393.928 226.755 392.645 225.884 391.23 225.29C389.815 224.696 388.295 224.39 386.76 224.39H358.45C355.619 224.394 352.888 225.438 350.777 227.324C348.665 229.211 347.321 231.807 347 234.62L335.62 320.3Z" fill="#3F72AF"/>
<path opacity="0.6" d="M335.62 320.3H380.78C384.923 320.301 388.902 318.677 391.862 315.777C394.821 312.877 396.526 308.933 396.61 304.79L398.3 236.16C398.33 234.625 398.055 233.1 397.488 231.673C396.922 230.246 396.077 228.947 395.002 227.851C393.928 226.755 392.645 225.884 391.23 225.29C389.815 224.696 388.295 224.39 386.76 224.39H358.45C355.619 224.394 352.888 225.438 350.777 227.324C348.665 229.211 347.321 231.807 347 234.62L335.62 320.3Z" fill="white"/>
<path d="M365.87 320.3H306.87C306.135 320.3 305.431 320.008 304.911 319.488C304.392 318.969 304.1 318.264 304.1 317.53V317.27C304.1 315.257 304.9 313.326 306.323 311.903C307.746 310.479 309.677 309.68 311.69 309.68H365.87V320.3Z" fill="#3F72AF"/>
<path opacity="0.6" d="M365.87 320.3H306.87C306.135 320.3 305.431 320.008 304.911 319.488C304.392 318.969 304.1 318.264 304.1 317.53V317.27C304.1 315.257 304.9 313.326 306.323 311.903C307.746 310.479 309.677 309.68 311.69 309.68H365.87V320.3Z" fill="white"/>
<path d="M355.62 163C353.62 160.17 336.34 157.33 329.72 168.33C323.1 179.33 333.79 220.05 319.89 225.46C331 235.17 369.62 244.33 366.75 211.92C364.71 189 372.56 166.56 355.62 163Z" fill="#263238"/>
<path d="M322.96 405.62H312.56L309.21 381.53H319.61L322.96 405.62Z" fill="#EEC1BB"/>
<path d="M282.71 405.62H272.31L270.71 381.53H281.11L282.71 405.62Z" fill="#EEC1BB"/>
<path d="M270.71 381.54L271.53 393.95H281.94L281.12 381.54H270.71Z" fill="#DB9792"/>
<path d="M319.62 381.54H309.21L310.94 393.95H321.35L319.62 381.54Z" fill="#DB9792"/>
<path d="M330.6 279.13C330.6 279.13 260.86 285.62 261.54 317.34C262.25 350.34 269.31 391.55 269.31 391.55H283.71C283.71 391.55 284.95 356.67 285.36 324.19C285.58 307.26 352.97 303.87 352.97 303.87L361.67 279.13H330.6Z" fill="#3F72AF"/>
<path opacity="0.7" d="M330.6 279.13C330.6 279.13 260.86 285.62 261.54 317.34C262.25 350.34 269.31 391.55 269.31 391.55H283.71C283.71 391.55 284.95 356.67 285.36 324.19C285.58 307.26 352.97 303.87 352.97 303.87L361.67 279.13H330.6Z" fill="black"/>
<path d="M332.89 229.72C332.75 230.49 332.63 231.03 332.49 231.66C332.35 232.29 332.2 232.86 332.05 233.46C331.74 234.64 331.42 235.81 331.05 236.97C330.38 239.28 329.6 241.56 328.78 243.8C327.14 248.3 325.27 252.67 323.22 256.96L322.44 258.56L322.04 259.37C321.841 259.781 321.621 260.182 321.38 260.57C320.391 262.175 319.038 263.525 317.43 264.51C315.959 265.4 314.334 266.007 312.64 266.3C311.173 266.54 309.683 266.611 308.2 266.51C305.563 266.297 302.967 265.732 300.48 264.83C299.29 264.42 298.14 263.92 297.01 263.4C295.862 262.878 294.744 262.294 293.66 261.65L295.84 256.74C299.96 257.74 304.52 258.48 308.2 258.14C309.639 258.088 311.031 257.611 312.2 256.77C312.519 256.463 312.774 256.096 312.95 255.69L314 252.98C315.62 248.77 317.16 244.53 318.54 240.27C319.25 238.14 319.88 236 320.54 233.88C320.86 232.82 321.15 231.76 321.43 230.7L321.84 229.13L322.19 227.68L332.89 229.72Z" fill="#EEC1BB"/>
<path d="M297 256.94L291 250.88L288.84 261.23C291.369 262.163 294.11 262.368 296.75 261.82L297 256.94Z" fill="#EEC1BB"/>
<path d="M311.91 404.41H323.6C323.801 404.408 323.996 404.479 324.148 404.609C324.301 404.74 324.401 404.921 324.43 405.12L325.76 414.37C325.785 414.604 325.761 414.841 325.688 415.064C325.616 415.288 325.497 415.494 325.339 415.669C325.182 415.844 324.989 415.983 324.773 416.078C324.558 416.173 324.325 416.221 324.09 416.22C320.02 416.15 318.09 415.91 312.91 415.91C309.75 415.91 301.64 416.24 297.28 416.24C292.92 416.24 292.68 411.92 294.5 411.53C302.65 409.78 307.43 407.36 310.17 405.05C310.659 404.643 311.274 404.417 311.91 404.41Z" fill="#263238"/>
<path d="M271.5 404.41H283.18C283.381 404.406 283.577 404.476 283.73 404.607C283.883 404.737 283.983 404.92 284.01 405.12L285.35 414.37C285.374 414.603 285.348 414.84 285.275 415.063C285.202 415.286 285.083 415.491 284.926 415.666C284.768 415.84 284.576 415.979 284.362 416.075C284.147 416.17 283.915 416.22 283.68 416.22C279.6 416.15 277.68 415.91 272.5 415.91C269.34 415.91 262.8 416.24 258.44 416.24C254.08 416.24 253.84 411.92 255.66 411.53C263.81 409.78 267.01 407.36 269.76 405.05C270.249 404.643 270.864 404.417 271.5 404.41Z" fill="#263238"/>
<path d="M284.83 391.84H268.19L266.96 386.04L285.36 384.75L284.83 391.84Z" fill="#3F72AF"/>
<path d="M308.35 406.16C307.664 406.223 306.978 406.035 306.42 405.63C306.254 405.474 306.131 405.278 306.063 405.061C305.995 404.844 305.983 404.613 306.03 404.39C306.043 404.253 306.091 404.122 306.17 404.01C306.249 403.898 306.356 403.808 306.48 403.75C307.66 403.22 310.78 405.24 311.14 405.47C311.166 405.492 311.186 405.519 311.198 405.551C311.21 405.582 311.214 405.616 311.21 405.65C311.205 405.684 311.19 405.715 311.166 405.74C311.143 405.765 311.113 405.782 311.08 405.79C310.186 406.011 309.271 406.135 308.35 406.16ZM307 404C306.881 403.999 306.762 404.019 306.65 404.06C306.579 404.092 306.518 404.144 306.476 404.21C306.433 404.275 306.411 404.352 306.41 404.43C306.371 404.597 306.375 404.771 306.422 404.935C306.469 405.1 306.558 405.249 306.68 405.37C307.24 405.88 308.68 405.94 310.62 405.53C309.529 404.78 308.298 404.259 307 404Z" fill="#3F72AF"/>
<path d="M311 405.79C310.971 405.799 310.939 405.799 310.91 405.79C309.82 405.17 308.09 402.96 308.3 401.89C308.335 401.712 308.431 401.551 308.571 401.436C308.712 401.321 308.888 401.259 309.07 401.26C309.249 401.231 309.433 401.244 309.606 401.298C309.78 401.352 309.938 401.445 310.07 401.57C311.18 402.57 311.19 405.51 311.19 405.64C311.19 405.67 311.183 405.699 311.169 405.725C311.155 405.751 311.135 405.774 311.11 405.79H311ZM309.23 401.58H309.11C308.75 401.63 308.67 401.81 308.64 401.94C308.48 402.74 309.85 404.56 310.82 405.29C310.82 404.5 310.61 402.51 309.82 401.81C309.671 401.668 309.475 401.586 309.27 401.58H309.23Z" fill="#3F72AF"/>
<path d="M267.59 406.16C266.72 406.238 265.85 406.019 265.12 405.54C264.963 405.398 264.843 405.22 264.77 405.022C264.697 404.823 264.673 404.61 264.7 404.4C264.704 404.275 264.741 404.154 264.808 404.048C264.875 403.943 264.969 403.857 265.08 403.8C266.32 403.12 270.43 405.22 270.9 405.46C270.932 405.476 270.958 405.503 270.974 405.535C270.991 405.568 270.996 405.604 270.99 405.64C270.986 405.677 270.97 405.711 270.945 405.738C270.92 405.766 270.886 405.784 270.85 405.79C269.777 406.012 268.685 406.136 267.59 406.16ZM265.75 404C265.577 403.99 265.405 404.024 265.25 404.1C265.189 404.129 265.138 404.174 265.103 404.231C265.068 404.287 265.049 404.353 265.05 404.42C265.024 404.575 265.038 404.735 265.09 404.884C265.142 405.032 265.232 405.165 265.35 405.27C266.02 405.87 267.84 405.96 270.28 405.53C268.867 404.769 267.335 404.252 265.75 404Z" fill="#3F72AF"/>
<path d="M270.82 405.79H270.75C269.52 405.23 267.1 403.03 267.29 401.88C267.29 401.63 267.51 401.31 268.15 401.25C268.385 401.224 268.622 401.247 268.848 401.318C269.073 401.388 269.282 401.505 269.46 401.66C270.75 402.73 270.98 405.5 270.99 405.66C270.995 405.691 270.991 405.722 270.979 405.75C270.966 405.779 270.946 405.803 270.92 405.82C270.885 405.82 270.85 405.809 270.82 405.79ZM268.34 401.58H268.19C267.68 401.63 267.65 401.86 267.63 401.93C267.51 402.7 269.29 404.58 270.63 405.32C270.53 404.57 270.19 402.69 269.26 401.91C269.003 401.692 268.676 401.575 268.34 401.58Z" fill="#3F72AF"/>
<path d="M341.75 279.13C341.75 279.13 296.68 294.08 295.55 312.58C293.45 346.64 308.43 391.58 308.43 391.58H322.61C322.61 391.58 321.81 361.78 320.11 330.92C317.98 292.15 386.4 330.39 372.84 279.16L341.75 279.13Z" fill="#3F72AF"/>
<path opacity="0.7" d="M341.75 279.13C341.75 279.13 296.68 294.08 295.55 312.58C293.45 346.64 308.43 391.58 308.43 391.58H322.61C322.61 391.58 321.81 361.78 320.11 330.92C317.98 292.15 386.4 330.39 372.84 279.16L341.75 279.13Z" fill="black"/>
<path d="M323.75 391.84H307.11L305.88 386.04L324.2 385.8L323.75 391.84Z" fill="#3F72AF"/>
<path d="M373.47 276.66L373.81 280.44C373.96 280.73 373.61 281.03 373.12 281.03H330.39C330.01 281.03 329.69 280.84 329.67 280.6L329.29 276.82C329.29 276.56 329.59 276.34 330.01 276.34H372.79C372.921 276.329 373.053 276.352 373.173 276.409C373.292 276.465 373.395 276.551 373.47 276.66Z" fill="#3F72AF"/>
<path d="M367.73 281.44H368.87C369.1 281.44 369.28 281.32 369.26 281.18L368.72 276.26C368.72 276.12 368.51 276 368.28 276H367.13C366.91 276 366.73 276.12 366.75 276.26L367.29 281.18C367.3 281.32 367.5 281.44 367.73 281.44Z" fill="#3F72AF"/>
<path d="M333.61 281.44H334.75C334.98 281.44 335.16 281.32 335.14 281.18L334.6 276.26C334.6 276.12 334.39 276 334.16 276H333C332.78 276 332.6 276.12 332.62 276.26L333.16 281.18C333.18 281.32 333.38 281.44 333.61 281.44Z" fill="#3F72AF"/>
<path d="M350.67 281.44H351.82C352.04 281.44 352.22 281.32 352.2 281.18L351.66 276.26C351.66 276.12 351.45 276 351.22 276H350.07C349.85 276 349.67 276.12 349.69 276.26L350.23 281.18C350.24 281.32 350.44 281.44 350.67 281.44Z" fill="#3F72AF"/>
<g opacity="0.7">
<path d="M367.73 281.44H368.87C369.1 281.44 369.28 281.32 369.26 281.18L368.72 276.26C368.72 276.12 368.51 276 368.28 276H367.13C366.91 276 366.73 276.12 366.75 276.26L367.29 281.18C367.3 281.32 367.5 281.44 367.73 281.44Z" fill="black"/>
<path d="M333.61 281.44H334.75C334.98 281.44 335.16 281.32 335.14 281.18L334.6 276.26C334.6 276.12 334.39 276 334.16 276H333C332.78 276 332.6 276.12 332.62 276.26L333.16 281.18C333.18 281.32 333.38 281.44 333.61 281.44Z" fill="black"/>
<path d="M350.67 281.44H351.82C352.04 281.44 352.22 281.32 352.2 281.18L351.66 276.26C351.66 276.12 351.45 276 351.22 276H350.07C349.85 276 349.67 276.12 349.69 276.26L350.23 281.18C350.24 281.32 350.44 281.44 350.67 281.44Z" fill="black"/>
</g>
<path d="M325.63 216.36C321.34 217.45 318.34 235.09 318.34 235.09L330.16 243.09C330.16 243.09 341.48 225.3 338.16 220.58C334.75 215.71 331.88 214.76 325.63 216.36Z" fill="#3F72AF"/>
<path opacity="0.8" d="M325.63 216.36C321.34 217.45 318.34 235.09 318.34 235.09L330.16 243.09C330.16 243.09 341.48 225.3 338.16 220.58C334.75 215.71 331.88 214.76 325.63 216.36Z" fill="white"/>
<path d="M325.63 216.36C325.63 216.36 320.63 218.1 330.63 279.13H372.87C372.16 261.94 372.14 251.34 380.36 216.06C374.445 214.836 368.449 214.044 362.42 213.69C356.035 213.235 349.625 213.235 343.24 213.69C335 214.45 325.63 216.36 325.63 216.36Z" fill="#3F72AF"/>
<path opacity="0.8" d="M325.63 216.36C325.63 216.36 320.63 218.1 330.63 279.13H372.87C372.16 261.94 372.14 251.34 380.36 216.06C374.445 214.836 368.449 214.044 362.42 213.69C356.035 213.235 349.625 213.235 343.24 213.69C335 214.45 325.63 216.36 325.63 216.36Z" fill="white"/>
<path d="M390.68 258.09C390.32 252.856 389.541 247.659 388.35 242.55C387.23 237.55 385.93 232.69 384.35 227.76L374 231C375.33 235.59 376.65 240.36 377.83 245C379.052 249.555 379.997 254.18 380.66 258.85C380.76 259.63 380.83 260.43 380.86 261.14C380.153 260.999 379.458 260.805 378.78 260.56C376.623 259.768 374.519 258.84 372.48 257.78C371.42 257.24 370.34 256.69 369.28 256.11L366.13 254.36L362.78 258.57C366.477 262.392 370.708 265.659 375.34 268.27C376.699 269.006 378.134 269.593 379.62 270.02C380.569 270.279 381.546 270.42 382.53 270.44C383.161 270.443 383.79 270.386 384.41 270.27C385.169 270.111 385.9 269.842 386.58 269.47C387.335 269.05 388.012 268.502 388.58 267.85C389.098 267.253 389.52 266.578 389.83 265.85C390.305 264.757 390.586 263.59 390.66 262.4C390.749 260.965 390.756 259.526 390.68 258.09Z" fill="#EEC1BB"/>
<path d="M360.49 192.09C359.28 198.27 358.07 209.57 362.39 213.69C362.39 213.69 360.7 219.95 349.24 219.95C336.63 219.95 343.24 213.69 343.24 213.69C350.12 212.05 349.94 206.94 348.75 202.15L360.49 192.09Z" fill="#EEC1BB"/>
<path d="M355.69 196.2L348.69 202.14C348.987 203.257 349.184 204.398 349.28 205.55C351.91 205.17 355.52 202.28 355.8 199.55C355.966 198.436 355.929 197.301 355.69 196.2Z" fill="#DB9792"/>
<path d="M359.81 174.89C362.06 184.96 363.23 189.18 359.69 195.7C354.38 205.52 341.51 206.08 336.3 196.87C331.6 188.59 328.72 173.51 337.3 166.77C339.179 165.283 341.406 164.301 343.771 163.915C346.136 163.53 348.56 163.754 350.814 164.567C353.068 165.38 355.077 166.755 356.651 168.561C358.226 170.368 359.313 172.546 359.81 174.89Z" fill="#EEC1BB"/>
<path d="M347.94 167.39C347.44 173.11 355.7 186.55 361.42 182.26C367.14 177.97 360.11 167.67 360.11 167.67L353.23 164.44L347.94 167.39Z" fill="#263238"/>
<path d="M354.72 165.28C351.88 173.79 334.72 176.96 330.17 176.39C332.67 168.11 336.46 162.83 342.17 161.89C347.88 160.95 354.72 165.28 354.72 165.28Z" fill="#263238"/>
<path d="M365 183.65C364.989 184.639 364.783 185.617 364.393 186.526C364.004 187.435 363.438 188.259 362.73 188.95C360.83 190.78 358.63 189.38 358.11 186.95C357.65 184.74 358.11 181.13 360.49 180.22C362.87 179.31 365 181.2 365 183.65Z" fill="#EEC1BB"/>
<path d="M345.59 182C345.83 182.8 345.59 183.58 345.06 183.73C344.53 183.88 343.92 183.35 343.68 182.55C343.44 181.75 343.68 180.97 344.22 180.81C344.76 180.65 345.36 181.18 345.59 182Z" fill="#263238"/>
<path d="M336.48 184.62C336.71 185.42 336.48 186.2 335.95 186.35C335.42 186.5 334.81 185.97 334.57 185.17C334.33 184.37 334.57 183.58 335.11 183.43C335.65 183.28 336.25 183.81 336.48 184.62Z" fill="#263238"/>
<path d="M335.35 183.41H333.26C333.26 183.41 334.68 184.64 335.35 183.41Z" fill="#263238"/>
<path d="M339.29 185.31C339.103 187.364 338.636 189.383 337.9 191.31C338.391 191.481 338.914 191.544 339.432 191.494C339.95 191.444 340.451 191.282 340.9 191.02L339.29 185.31Z" fill="#D4827D"/>
<path d="M344.61 193.27C344.576 193.267 344.543 193.255 344.516 193.233C344.49 193.212 344.47 193.183 344.46 193.15C344.451 193.11 344.457 193.068 344.477 193.033C344.498 192.998 344.531 192.972 344.57 192.96C345.595 192.69 346.541 192.181 347.332 191.476C348.123 190.77 348.735 189.888 349.12 188.9C349.126 188.881 349.135 188.863 349.148 188.848C349.161 188.832 349.176 188.819 349.194 188.81C349.212 188.801 349.231 188.795 349.251 188.793C349.271 188.792 349.291 188.794 349.31 188.8C349.33 188.805 349.349 188.813 349.366 188.826C349.382 188.838 349.396 188.853 349.406 188.871C349.417 188.889 349.423 188.909 349.426 188.929C349.428 188.95 349.426 188.97 349.42 188.99C349.018 190.026 348.377 190.952 347.55 191.694C346.723 192.436 345.733 192.972 344.66 193.26L344.61 193.27Z" fill="#263238"/>
<path d="M346.86 177.76C346.795 177.759 346.732 177.738 346.68 177.7C346.074 177.263 345.374 176.973 344.637 176.851C343.9 176.73 343.144 176.781 342.43 177C342.392 177.015 342.351 177.023 342.31 177.022C342.269 177.021 342.229 177.013 342.191 176.996C342.154 176.98 342.12 176.957 342.091 176.927C342.062 176.898 342.04 176.863 342.025 176.825C342.01 176.787 342.002 176.746 342.003 176.705C342.004 176.664 342.012 176.624 342.029 176.586C342.045 176.549 342.068 176.515 342.098 176.486C342.127 176.458 342.162 176.435 342.2 176.42C343.01 176.156 343.871 176.088 344.713 176.222C345.554 176.356 346.352 176.688 347.04 177.19C347.075 177.213 347.105 177.243 347.128 177.278C347.15 177.313 347.166 177.352 347.174 177.393C347.181 177.434 347.18 177.476 347.171 177.517C347.162 177.558 347.144 177.596 347.12 177.63C347.089 177.67 347.05 177.703 347.005 177.725C346.96 177.748 346.91 177.76 346.86 177.76Z" fill="#263238"/>
<path d="M331 182.38C330.964 182.389 330.926 182.389 330.89 182.38C330.852 182.365 330.817 182.344 330.787 182.316C330.758 182.288 330.734 182.254 330.717 182.217C330.7 182.18 330.691 182.14 330.69 182.099C330.689 182.059 330.695 182.018 330.71 181.98C330.954 181.263 331.368 180.616 331.917 180.093C332.465 179.571 333.132 179.189 333.86 178.98C333.9 178.971 333.941 178.97 333.982 178.978C334.022 178.985 334.061 179 334.095 179.023C334.129 179.045 334.159 179.074 334.182 179.108C334.205 179.142 334.222 179.18 334.23 179.22C334.248 179.302 334.233 179.388 334.188 179.459C334.143 179.53 334.072 179.581 333.99 179.6C333.37 179.784 332.802 180.113 332.334 180.56C331.866 181.006 331.512 181.559 331.3 182.17C331.277 182.231 331.237 182.284 331.183 182.322C331.129 182.36 331.065 182.38 331 182.38Z" fill="#263238"/>
<path d="M344.46 180.78H342.37C342.37 180.78 343.8 182 344.46 180.78Z" fill="#263238"/>
<path d="M305.67 213.78L352.58 210.37L367.42 284.31L320.75 287.71C320.681 287.714 320.612 287.693 320.557 287.65C320.502 287.608 320.464 287.548 320.45 287.48L305.67 213.78Z" fill="#FAFAFA"/>
<path d="M320.69 287.67L290.61 281.84L275.8 207.9L306.24 213.8L321 287.38C321.011 287.422 321.011 287.467 320.999 287.509C320.987 287.551 320.964 287.589 320.932 287.618C320.9 287.648 320.861 287.669 320.818 287.678C320.776 287.687 320.731 287.684 320.69 287.67Z" fill="#FAFAFA"/>
<path d="M307.79 230.89L281.25 225.75L278.44 211.72L304.98 216.87L307.79 230.89Z" fill="#3F72AF"/>
<path d="M296.83 244.67L284.56 242.29L281.75 228.27L294.02 230.64L296.83 244.67Z" fill="#3F72AF"/>
<path d="M308.57 234.8L295.91 232.35L295.63 230.95L308.29 233.41L308.57 234.8Z" fill="#3F72AF"/>
<path d="M309.41 239.01L296.75 236.56L296.47 235.17L309.13 237.62L309.41 239.01Z" fill="#3F72AF"/>
<path d="M310.26 243.22L297.59 240.77L297.31 239.38L309.98 241.83L310.26 243.22Z" fill="#3F72AF"/>
<path d="M311.1 247.44L298.44 244.98L298.16 243.59L310.82 246.04L311.1 247.44Z" fill="#3F72AF"/>
<path d="M312.06 252.25L285.53 247.11L285.25 245.72L311.79 250.86L312.06 252.25Z" fill="#3F72AF"/>
<path d="M312.91 256.46L286.37 251.32L286.09 249.93L312.63 255.07L312.91 256.46Z" fill="#3F72AF"/>
<path d="M313.75 260.67L287.21 255.53L286.94 254.14L313.47 259.28L313.75 260.67Z" fill="#3F72AF"/>
<path d="M316.28 273.31L310.96 272.28L309 262.46L314.32 263.49L316.28 273.31Z" fill="#3F72AF"/>
<path d="M307.58 263.53L288.06 259.74L287.78 258.35L307.3 262.13L307.58 263.53Z" fill="#3F72AF"/>
<path d="M308.43 267.74L288.9 263.96L288.62 262.56L308.15 266.35L308.43 267.74Z" fill="#3F72AF"/>
<path d="M309.27 271.95L289.74 268.17L289.46 266.77L308.99 270.56L309.27 271.95Z" fill="#3F72AF"/>
<path d="M317.13 277.52L290.59 272.38L290.31 270.99L316.85 276.13L317.13 277.52Z" fill="#3F72AF"/>
<path d="M318.41 283.92L291.87 278.77L291.02 274.55L317.56 279.69L318.41 283.92Z" fill="#3F72AF"/>
<g opacity="0.6">
<path d="M307.79 230.89L281.25 225.75L278.44 211.72L304.98 216.87L307.79 230.89Z" fill="white"/>
<path d="M296.83 244.67L284.56 242.29L281.75 228.27L294.02 230.64L296.83 244.67Z" fill="white"/>
<path d="M308.57 234.8L295.91 232.35L295.63 230.95L308.29 233.41L308.57 234.8Z" fill="white"/>
<path d="M309.41 239.01L296.75 236.56L296.47 235.17L309.13 237.62L309.41 239.01Z" fill="white"/>
<path d="M310.26 243.22L297.59 240.77L297.31 239.38L309.98 241.83L310.26 243.22Z" fill="white"/>
<path d="M311.1 247.44L298.44 244.98L298.16 243.59L310.82 246.04L311.1 247.44Z" fill="white"/>
<path d="M312.06 252.25L285.53 247.11L285.25 245.72L311.79 250.86L312.06 252.25Z" fill="white"/>
<path d="M312.91 256.46L286.37 251.32L286.09 249.93L312.63 255.07L312.91 256.46Z" fill="white"/>
<path d="M313.75 260.67L287.21 255.53L286.94 254.14L313.47 259.28L313.75 260.67Z" fill="white"/>
<path d="M316.28 273.31L310.96 272.28L309 262.46L314.32 263.49L316.28 273.31Z" fill="white"/>
<path d="M307.58 263.53L288.06 259.74L287.78 258.35L307.3 262.13L307.58 263.53Z" fill="white"/>
<path d="M308.43 267.74L288.9 263.96L288.62 262.56L308.15 266.35L308.43 267.74Z" fill="white"/>
<path d="M309.27 271.95L289.74 268.17L289.46 266.77L308.99 270.56L309.27 271.95Z" fill="white"/>
<path d="M317.13 277.52L290.59 272.38L290.31 270.99L316.85 276.13L317.13 277.52Z" fill="white"/>
<path d="M318.41 283.92L291.87 278.77L291.02 274.55L317.56 279.69L318.41 283.92Z" fill="white"/>
</g>
<path d="M320.01 270.04L360.9 267.06L363.71 281.08L322.82 284.06L320.01 270.04Z" fill="#3F72AF"/>
<path d="M338.67 251.89L357.58 250.52L360.39 264.54L341.49 265.92L338.67 251.89Z" fill="#3F72AF"/>
<path d="M319.22 266.13L338.74 264.71L339.02 266.1L319.5 267.52L319.22 266.13Z" fill="#3F72AF"/>
<path d="M318.38 261.92L337.89 260.5L338.17 261.89L318.66 263.31L318.38 261.92Z" fill="#3F72AF"/>
<path d="M317.53 257.7L337.05 256.28L337.33 257.68L317.81 259.1L317.53 257.7Z" fill="#3F72AF"/>
<path d="M316.69 253.49L336.2 252.07L336.48 253.47L316.97 254.89L316.69 253.49Z" fill="#3F72AF"/>
<path d="M315.72 248.68L356.62 245.7L356.89 247.09L316 250.07L315.72 248.68Z" fill="#3F72AF"/>
<path d="M314.88 244.47L355.77 241.49L356.05 242.88L315.16 245.86L314.88 244.47Z" fill="#3F72AF"/>
<path d="M314.03 240.25L354.93 237.28L355.2 238.67L314.31 241.65L314.03 240.25Z" fill="#3F72AF"/>
<path d="M311.5 227.62L319.69 227.02L321.66 236.84L313.47 237.44L311.5 227.62Z" fill="#3F72AF"/>
<path d="M323.99 235.26L354.08 233.06L354.36 234.46L324.27 236.65L323.99 235.26Z" fill="#3F72AF"/>
<path d="M323.15 231.04L353.24 228.85L353.51 230.25L323.43 232.44L323.15 231.04Z" fill="#3F72AF"/>
<path d="M322.3 226.83L352.39 224.64L352.67 226.03L322.58 228.23L322.3 226.83Z" fill="#3F72AF"/>
<path d="M310.65 223.41L351.55 220.43L351.82 221.82L310.93 224.8L310.65 223.41Z" fill="#3F72AF"/>
<path d="M309.37 217.01L350.26 214.03L351.11 218.26L310.22 221.24L309.37 217.01Z" fill="#3F72AF"/>
<g opacity="0.6">
<path d="M320.01 270.04L360.9 267.06L363.71 281.08L322.82 284.06L320.01 270.04Z" fill="white"/>
<path d="M338.67 251.89L357.58 250.52L360.39 264.54L341.49 265.92L338.67 251.89Z" fill="white"/>
<path d="M319.22 266.13L338.74 264.71L339.02 266.1L319.5 267.52L319.22 266.13Z" fill="white"/>
<path d="M318.38 261.92L337.89 260.5L338.17 261.89L318.66 263.31L318.38 261.92Z" fill="white"/>
<path d="M317.53 257.7L337.05 256.28L337.33 257.68L317.81 259.1L317.53 257.7Z" fill="white"/>
<path d="M316.69 253.49L336.2 252.07L336.48 253.47L316.97 254.89L316.69 253.49Z" fill="white"/>
<path d="M315.72 248.68L356.62 245.7L356.89 247.09L316 250.07L315.72 248.68Z" fill="white"/>
<path d="M314.88 244.47L355.77 241.49L356.05 242.88L315.16 245.86L314.88 244.47Z" fill="white"/>
<path d="M314.03 240.25L354.93 237.28L355.2 238.67L314.31 241.65L314.03 240.25Z" fill="white"/>
<path d="M311.5 227.62L319.69 227.02L321.66 236.84L313.47 237.44L311.5 227.62Z" fill="white"/>
<path d="M323.99 235.26L354.08 233.06L354.36 234.46L324.27 236.65L323.99 235.26Z" fill="white"/>
<path d="M323.15 231.04L353.24 228.85L353.51 230.25L323.43 232.44L323.15 231.04Z" fill="white"/>
<path d="M322.3 226.83L352.39 224.64L352.67 226.03L322.58 228.23L322.3 226.83Z" fill="white"/>
<path d="M310.65 223.41L351.55 220.43L351.82 221.82L310.93 224.8L310.65 223.41Z" fill="white"/>
<path d="M309.37 217.01L350.26 214.03L351.11 218.26L310.22 221.24L309.37 217.01Z" fill="white"/>
</g>
<path d="M367.72 255.53L359.55 249.46L360.28 260.01C360.28 260.01 366.34 262.82 369.8 260.22L367.72 255.53Z" fill="#EEC1BB"/>
<path d="M350.81 249.74L351.9 258.54L360.28 260.01L359.56 249.46L350.81 249.74Z" fill="#EEC1BB"/>
<path d="M282.51 248.78L281.17 257.55L288.84 261.23L291 250.88L282.51 248.78Z" fill="#EEC1BB"/>
<path d="M380.53 216C384.76 217.29 389.84 231.86 389.84 231.86L373.42 243.6C373.42 243.6 367.42 231.43 369.21 225.96C371.06 220.23 375.7 214.49 380.53 216Z" fill="#3F72AF"/>
<path opacity="0.8" d="M380.53 216C384.76 217.29 389.84 231.86 389.84 231.86L373.42 243.6C373.42 243.6 367.42 231.43 369.21 225.96C371.06 220.23 375.7 214.49 380.53 216Z" fill="white"/>
</svg>
