<svg width="500" height="500" viewBox="0 0 500 500" fill="none" xmlns="http://www.w3.org/2000/svg">
<path d="M331.22 401.21H322.53V401.46H331.22V401.21Z" fill="#EBEBEB"/>
<path d="M415.78 389.21H396.59V389.46H415.78V389.21Z" fill="#EBEBEB"/>
<path d="M95.65 390.89H52.46V391.14H95.65V390.89Z" fill="#EBEBEB"/>
<path d="M110.89 390.89H104.56V391.14H110.89V390.89Z" fill="#EBEBEB"/>
<path d="M225.15 395.11H131.47V395.36H225.15V395.11Z" fill="#EBEBEB"/>
<path d="M178.74 143.51L149.6 141.81C148.569 141.749 147.544 141.993 146.65 142.51C137.02 150.85 126.65 145.28 122.06 141.99C120.326 140.731 118.269 139.992 116.13 139.86L83.66 138C71.48 137.29 69.54 120.06 81.27 116.73L81.73 116.61C69.62 105.26 98.84 84.53 127.37 117.25C125.6 106.8 152.37 112.09 159.77 126.66C163.24 117.55 188 135.11 178.74 143.51Z" fill="#FAFAFA"/>
<path d="M201.5 105.83C205.24 95.1801 213.15 81.3301 241.22 84.3501C269.29 87.3701 255.22 104.35 271.22 106.35C287.22 108.35 284.93 100.05 297.95 113.35C310.97 126.65 309.46 115.08 320.54 121.68C331.62 128.28 192.74 130.8 201.5 105.83Z" fill="#F5F5F5"/>
<path d="M364.33 138.33L384.87 137.93L386.58 138.66C391.225 140.634 396.253 141.54 401.295 141.312C406.337 141.083 411.263 139.726 415.71 137.34L432.89 137.01C432.89 137.01 448.89 130.65 446.46 114.65C444.03 98.6501 420.06 112.48 420.06 112.48C420.06 112.48 427 90.0001 403.6 96.7701C380.2 103.54 378.36 125.77 378.36 125.77C378.36 125.77 347.38 121 364.33 138.33Z" fill="#F5F5F5"/>
<path d="M214.47 170.94H89.07V384.05H214.47V170.94Z" fill="#E6E6E6"/>
<path d="M113.16 141.16V170.94H123.04H180.51H190.39V141.16H113.16Z" fill="#E6E6E6"/>
<path d="M86.49 171.1L217.07 171.1V167.88L86.49 167.88V171.1Z" fill="#E0E0E0"/>
<path d="M109.87 141.16H193.67V137.94H109.87V141.16Z" fill="#E0E0E0"/>
<path d="M188.33 170.94H62.93V384.05H188.33V170.94Z" fill="#F0F0F0"/>
<path d="M87.01 141.16V170.94H96.9H154.36H164.25V141.16H87.01Z" fill="#F0F0F0"/>
<path d="M87.01 178.83H70.95V194.61H87.01V178.83Z" fill="white"/>
<path d="M118.11 178.83H102.05V194.61H118.11V178.83Z" fill="white"/>
<path d="M149.21 178.83H133.15V194.61H149.21V178.83Z" fill="white"/>
<path d="M180.31 178.83H164.25V194.61H180.31V178.83Z" fill="white"/>
<path d="M87.01 207.5H70.95V223.28H87.01V207.5Z" fill="white"/>
<path d="M118.11 207.5H102.05V223.28H118.11V207.5Z" fill="white"/>
<path d="M149.21 207.5H133.15V223.28H149.21V207.5Z" fill="white"/>
<path d="M180.31 207.5H164.25V223.28H180.31V207.5Z" fill="white"/>
<path d="M87.01 236.17H70.95V251.95H87.01V236.17Z" fill="white"/>
<path d="M118.11 236.17H102.05V251.95H118.11V236.17Z" fill="white"/>
<path d="M149.21 236.17H133.15V251.95H149.21V236.17Z" fill="white"/>
<path d="M118.11 154.05H102.05V169.83H118.11V154.05Z" fill="white"/>
<path d="M149.21 154.05H133.15V169.83H149.21V154.05Z" fill="white"/>
<path d="M180.31 236.17H164.25V251.95H180.31V236.17Z" fill="white"/>
<path d="M87.01 264.84H70.95V280.62H87.01V264.84Z" fill="white"/>
<path d="M118.11 264.84H102.05V280.62H118.11V264.84Z" fill="white"/>
<path d="M149.21 264.84H133.15V280.62H149.21V264.84Z" fill="white"/>
<path d="M180.31 264.84H164.25V280.62H180.31V264.84Z" fill="white"/>
<path d="M87.01 293.51H70.95V309.29H87.01V293.51Z" fill="white"/>
<path d="M118.11 293.51H102.05V309.29H118.11V293.51Z" fill="white"/>
<path d="M149.21 293.51H133.15V309.29H149.21V293.51Z" fill="white"/>
<path d="M180.31 293.51H164.25V309.29H180.31V293.51Z" fill="white"/>
<path d="M87.01 322.18H70.95V337.96H87.01V322.18Z" fill="white"/>
<path d="M118.11 322.18H102.05V337.96H118.11V322.18Z" fill="white"/>
<path d="M149.21 322.18H133.15V337.96H149.21V322.18Z" fill="white"/>
<path d="M180.31 322.18H164.25V337.96H180.31V322.18Z" fill="white"/>
<path d="M87.01 350.85H70.95V366.63H87.01V350.85Z" fill="white"/>
<path d="M118.11 350.85H102.05V366.63H118.11V350.85Z" fill="white"/>
<path d="M149.21 350.85H133.15V366.63H149.21V350.85Z" fill="white"/>
<path d="M180.31 350.85H164.25V366.63H180.31V350.85Z" fill="white"/>
<path d="M60.34 171.1L190.92 171.1V167.88L60.34 167.88V171.1Z" fill="#EBEBEB"/>
<path d="M83.73 141.16H167.53V137.94H83.73V141.16Z" fill="#EBEBEB"/>
<path d="M274.19 274.78H204V383.14H316.02V274.78V226.73L274.19 274.78Z" fill="#F5F5F5"/>
<path d="M336.93 226.73H316.02V383.14H336.93V226.73Z" fill="#E6E6E6"/>
<path d="M225.89 296.74H209.22V313.13H225.89V296.74Z" fill="#E0E0E0"/>
<path opacity="0.3" d="M225.9 296.74H211.08V313.13H225.9V296.74Z" fill="white"/>
<path d="M225.89 324.31H209.22V340.7H225.89V324.31Z" fill="#E0E0E0"/>
<path opacity="0.3" d="M225.9 324.31H211.08V340.7H225.9V324.31Z" fill="white"/>
<path d="M225.89 351.88H209.22V368.27H225.89V351.88Z" fill="#E0E0E0"/>
<path opacity="0.3" d="M225.9 351.88H211.08V368.27H225.9V351.88Z" fill="white"/>
<path opacity="0.2" d="M227.75 351.88H211.08V368.26H227.75V351.88Z" fill="white"/>
<path d="M254 296.74H237.33V313.13H254V296.74Z" fill="#E0E0E0"/>
<path opacity="0.3" d="M254 296.74H239.18V313.13H254V296.74Z" fill="white"/>
<path d="M254 324.31H237.33V340.7H254V324.31Z" fill="#E0E0E0"/>
<path opacity="0.3" d="M254 324.31H239.18V340.7H254V324.31Z" fill="white"/>
<path d="M254 351.88H237.33V368.27H254V351.88Z" fill="#E0E0E0"/>
<path opacity="0.3" d="M254 351.88H239.18V368.27H254V351.88Z" fill="white"/>
<path opacity="0.2" d="M255.85 351.88H239.18V368.26H255.85V351.88Z" fill="white"/>
<path d="M282.1 296.74H265.43V313.13H282.1V296.74Z" fill="#E0E0E0"/>
<path opacity="0.3" d="M282.11 296.74H267.29V313.13H282.11V296.74Z" fill="white"/>
<path d="M282.1 324.31H265.43V340.7H282.1V324.31Z" fill="#E0E0E0"/>
<path opacity="0.3" d="M282.11 324.31H267.29V340.7H282.11V324.31Z" fill="white"/>
<path d="M282.1 351.88H265.43V368.27H282.1V351.88Z" fill="#E0E0E0"/>
<path opacity="0.3" d="M282.11 351.88H267.29V368.27H282.11V351.88Z" fill="white"/>
<path opacity="0.2" d="M283.96 351.88H267.29V368.26H283.96V351.88Z" fill="white"/>
<path d="M310.21 296.74H293.54V313.13H310.21V296.74Z" fill="#E0E0E0"/>
<path opacity="0.3" d="M310.21 296.74H295.39V313.13H310.21V296.74Z" fill="white"/>
<path d="M310.21 324.31H293.54V340.7H310.21V324.31Z" fill="#E0E0E0"/>
<path opacity="0.3" d="M310.21 324.31H295.39V340.7H310.21V324.31Z" fill="white"/>
<path d="M310.21 351.88H293.54V368.27H310.21V351.88Z" fill="#E0E0E0"/>
<path opacity="0.3" d="M310.21 351.88H295.39V368.27H310.21V351.88Z" fill="white"/>
<path opacity="0.2" d="M312.06 351.88H295.39V368.26H312.06V351.88Z" fill="white"/>
<path d="M435.74 204.78H330.25V384.05H435.74V204.78Z" fill="#F0F0F0"/>
<path d="M350.51 179.72V204.78H358.83H407.16H415.48V179.72H350.51Z" fill="#EBEBEB"/>
<path d="M350.51 211.42H337V224.69H350.51V211.42Z" fill="#FAFAFA"/>
<path d="M376.67 211.42H363.16V224.69H376.67V211.42Z" fill="#FAFAFA"/>
<path d="M402.83 211.42H389.32V224.69H402.83V211.42Z" fill="#FAFAFA"/>
<path d="M428.99 211.42H415.48V224.69H428.99V211.42Z" fill="#FAFAFA"/>
<path d="M350.51 235.53H337V248.8H350.51V235.53Z" fill="#FAFAFA"/>
<path d="M376.67 235.53H363.16V248.8H376.67V235.53Z" fill="#FAFAFA"/>
<path d="M402.83 235.53H389.32V248.8H402.83V235.53Z" fill="#FAFAFA"/>
<path d="M428.99 235.53H415.48V248.8H428.99V235.53Z" fill="#FAFAFA"/>
<path d="M350.51 259.65H337V272.92H350.51V259.65Z" fill="#FAFAFA"/>
<path d="M376.67 259.65H363.16V272.92H376.67V259.65Z" fill="#FAFAFA"/>
<path d="M402.83 259.65H389.32V272.92H402.83V259.65Z" fill="#FAFAFA"/>
<path d="M376.67 190.57H363.16V203.84H376.67V190.57Z" fill="#FAFAFA"/>
<path d="M402.83 190.57H389.32V203.84H402.83V190.57Z" fill="#FAFAFA"/>
<path d="M428.99 259.65H415.48V272.92H428.99V259.65Z" fill="#FAFAFA"/>
<path d="M350.51 283.77H337V297.04H350.51V283.77Z" fill="#FAFAFA"/>
<path d="M376.67 283.77H363.16V297.04H376.67V283.77Z" fill="#FAFAFA"/>
<path d="M402.83 283.77H389.32V297.04H402.83V283.77Z" fill="#FAFAFA"/>
<path d="M428.99 283.77H415.48V297.04H428.99V283.77Z" fill="#FAFAFA"/>
<path d="M350.51 307.89H337V321.16H350.51V307.89Z" fill="#FAFAFA"/>
<path d="M376.67 307.89H363.16V321.16H376.67V307.89Z" fill="#FAFAFA"/>
<path d="M402.83 307.89H389.32V321.16H402.83V307.89Z" fill="#FAFAFA"/>
<path d="M428.99 307.89H415.48V321.16H428.99V307.89Z" fill="#FAFAFA"/>
<path d="M350.51 332H337V345.27H350.51V332Z" fill="#FAFAFA"/>
<path d="M376.67 332H363.16V345.27H376.67V332Z" fill="#FAFAFA"/>
<path d="M402.83 332H389.32V345.27H402.83V332Z" fill="#FAFAFA"/>
<path d="M428.99 332H415.48V345.27H428.99V332Z" fill="#FAFAFA"/>
<path d="M350.51 356.12H337V369.39H350.51V356.12Z" fill="#FAFAFA"/>
<path d="M376.67 356.12H363.16V369.39H376.67V356.12Z" fill="#FAFAFA"/>
<path d="M402.83 356.12H389.32V369.39H402.83V356.12Z" fill="#FAFAFA"/>
<path d="M428.99 356.12H415.48V369.39H428.99V356.12Z" fill="#FAFAFA"/>
<path d="M328.07 204.91H437.92V202.2H328.07V204.91Z" fill="#F5F5F5"/>
<path d="M245.18 423.71C352.262 423.71 439.07 418.642 439.07 412.39C439.07 406.138 352.262 401.07 245.18 401.07C138.098 401.07 51.29 406.138 51.29 412.39C51.29 418.642 138.098 423.71 245.18 423.71Z" fill="#F5F5F5"/>
<path d="M351.7 122H339.9C341.076 121.222 341.965 120.081 342.43 118.75C343.129 116.614 343.632 114.418 343.93 112.19C344.176 110.451 344.307 108.697 344.32 106.94C344.302 104.572 343.966 102.218 343.32 99.9399H348.2C347.908 100.991 347.684 102.06 347.53 103.14C347.334 104.407 347.237 105.688 347.24 106.97C347.281 110.982 347.918 114.965 349.13 118.79C349.617 120.11 350.519 121.236 351.7 122Z" fill="#3F72AF"/>
<path opacity="0.2" d="M348.24 99.8699C348.04 101.02 347.81 102.08 347.57 103.07C346.852 106.275 345.623 109.345 343.93 112.16C344.176 110.42 344.306 108.667 344.32 106.91C344.302 104.542 343.966 102.188 343.32 99.9099L348.24 99.8699Z" fill="black"/>
<path d="M337.5 86.1399L336 87.9999L335.21 87.0799C334.141 86.0139 332.717 85.377 331.21 85.2899C331.097 85.2796 330.983 85.2796 330.87 85.2899C330.541 85.3388 330.225 85.4523 329.94 85.624C329.655 85.7956 329.407 86.0219 329.21 86.2899C328.891 86.7094 328.66 87.189 328.53 87.6999C328.49 87.8343 328.46 87.9713 328.44 88.1099C328.279 89.1849 328.396 90.283 328.78 91.2999C329.52 93.2999 331.03 94.6199 332.61 94.6199H333.71V97.2399H332.61C330.15 97.2399 327.86 95.3199 326.76 92.3499C326.69 92.1599 326.62 91.9599 326.56 91.7599C326.147 90.5593 326.022 89.2783 326.196 88.0206C326.37 86.7628 326.837 85.5636 327.56 84.5199C327.972 83.9572 328.507 83.4955 329.123 83.1698C329.74 82.8441 330.423 82.6629 331.12 82.6399C332.078 82.6311 333.026 82.829 333.9 83.2199C334.97 83.6857 335.934 84.3664 336.73 85.2199L337.5 86.1399Z" fill="#3F72AF"/>
<path opacity="0.2" d="M333.88 83.2699C333.821 83.4035 333.744 83.5281 333.65 83.6399C333.319 83.9322 332.935 84.1595 332.52 84.3099C331.912 84.5684 331.341 84.9046 330.82 85.3099C330.491 85.3588 330.175 85.4724 329.89 85.644C329.605 85.8156 329.357 86.042 329.16 86.3099C328.758 86.8441 328.493 87.4692 328.39 88.1299C328.017 88.7625 327.712 89.433 327.48 90.1299C327.337 90.7831 326.986 91.3725 326.48 91.8099C325.825 89.7957 325.946 87.6093 326.82 85.6799C327.007 85.2848 327.238 84.9124 327.51 84.5699C327.922 84.0072 328.457 83.5455 329.073 83.2198C329.69 82.8941 330.373 82.7129 331.07 82.6899H331.44C332.283 82.7282 333.11 82.925 333.88 83.2699Z" fill="white"/>
<path opacity="0.3" d="M331.47 82.6899C331.47 82.6899 331.47 82.7499 331.47 82.7799C331.261 83.5391 330.762 84.1856 330.08 84.5799C329.26 85.1173 328.337 85.4783 327.37 85.6399C327.2 85.6506 327.03 85.6506 326.86 85.6399C327.047 85.2448 327.278 84.8724 327.55 84.5299C327.962 83.9671 328.497 83.5055 329.113 83.1798C329.73 82.8541 330.413 82.6729 331.11 82.6499L331.47 82.6899Z" fill="white"/>
<path opacity="0.2" d="M332.78 94.67C332.592 94.9207 332.324 95.0998 332.02 95.178C331.717 95.2561 331.396 95.2286 331.11 95.1C330.398 94.8324 329.76 94.4003 329.247 93.8389C328.735 93.2776 328.362 92.6029 328.16 91.87C327.806 90.4993 327.918 89.0496 328.48 87.75C328.44 87.8844 328.41 88.0214 328.39 88.16C328.229 89.2349 328.346 90.3331 328.73 91.35C329.47 93.35 330.98 94.67 332.56 94.67H332.78Z" fill="black"/>
<path d="M354.38 86.14L355.92 88L356.71 87.08C357.779 86.014 359.203 85.3771 360.71 85.29C360.82 85.2797 360.93 85.2797 361.04 85.29C361.369 85.3378 361.686 85.4509 361.971 85.6226C362.256 85.7943 362.504 86.0212 362.7 86.29C363.019 86.7095 363.25 87.1891 363.38 87.7C363.38 87.84 363.45 87.97 363.48 88.11C363.637 89.1858 363.517 90.284 363.13 91.3C362.39 93.3 360.88 94.62 359.3 94.62H358.2V97.24H359.3C361.76 97.24 364.06 95.32 365.15 92.35C365.227 92.157 365.294 91.9601 365.35 91.76C365.764 90.5595 365.889 89.2784 365.715 88.0205C365.542 86.7626 365.074 85.5633 364.35 84.52C363.936 83.9589 363.401 83.4983 362.785 83.1728C362.169 82.8473 361.487 82.6652 360.79 82.64C359.829 82.6301 358.877 82.8279 358 83.22C356.93 83.6858 355.966 84.3665 355.17 85.22L354.38 86.14Z" fill="#3F72AF"/>
<path opacity="0.2" d="M358 83.2699C358.059 83.4059 358.14 83.5311 358.24 83.6399C358.566 83.9339 358.947 84.1615 359.36 84.3099C359.967 84.5684 360.539 84.9046 361.06 85.3099C361.389 85.3577 361.706 85.4708 361.991 85.6425C362.276 85.8143 362.524 86.0412 362.72 86.3099C363.125 86.8436 363.393 87.4685 363.5 88.1299C363.866 88.765 364.167 89.435 364.4 90.1299C364.551 90.78 364.901 91.3671 365.4 91.8099C366.055 89.7957 365.934 87.6093 365.06 85.6799C364.873 85.2872 364.645 84.9151 364.38 84.5699C363.966 84.0088 363.431 83.5483 362.815 83.2227C362.199 82.8972 361.517 82.7151 360.82 82.6899H360.44C359.597 82.7282 358.77 82.925 358 83.2699Z" fill="white"/>
<path opacity="0.3" d="M360.41 82.6899C360.41 82.6899 360.41 82.7499 360.41 82.7799C360.619 83.5391 361.118 84.1856 361.8 84.5799C362.62 85.1173 363.543 85.4783 364.51 85.6399C364.68 85.6502 364.85 85.6502 365.02 85.6399C364.833 85.2471 364.605 84.8751 364.34 84.5299C363.926 83.9688 363.391 83.5082 362.775 83.1827C362.159 82.8572 361.477 82.6751 360.78 82.6499L360.41 82.6899Z" fill="white"/>
<path opacity="0.2" d="M359.1 94.67C359.288 94.9207 359.556 95.0998 359.86 95.178C360.163 95.2561 360.484 95.2286 360.77 95.1C361.49 94.8369 362.137 94.407 362.658 93.8455C363.18 93.2841 363.561 92.6071 363.77 91.87C364.116 90.4977 364 89.0498 363.44 87.75C363.44 87.89 363.51 88.02 363.54 88.16C363.697 89.2358 363.577 90.334 363.19 91.35C362.45 93.35 360.94 94.67 359.36 94.67H359.1Z" fill="black"/>
<path d="M359.62 94.25C359.583 94.6161 359.526 94.98 359.45 95.34C359.086 97.3966 357.944 99.2339 356.26 100.47C352.12 103.25 345.53 104.05 340.15 102.47L339.67 102.33C338.322 101.908 337.047 101.281 335.89 100.47C335.175 99.9429 334.556 99.2968 334.06 98.56C333.197 97.2742 332.671 95.7922 332.53 94.25C332.393 92.8068 332.581 91.3511 333.08 89.99C333.13 89.84 333.19 89.69 333.25 89.54C333.544 88.8569 333.91 88.2066 334.34 87.6C334.88 86.84 335.51 86.18 336.02 85.43C336.542 84.734 336.807 83.879 336.77 83.01L346.07 83.83L355.36 83.01C355.322 83.8808 355.591 84.7373 356.12 85.43C356.62 86.18 357.25 86.84 357.79 87.6C358.34 88.3672 358.778 89.2091 359.09 90.1C359.565 91.4286 359.746 92.8446 359.62 94.25Z" fill="#3F72AF"/>
<path opacity="0.1" d="M347.89 90.76C342.53 93.05 336.65 91.41 334.22 90.49C333.833 90.3406 333.455 90.1669 333.09 89.97C333.112 89.8984 333.139 89.8283 333.17 89.76C333.469 88.9863 333.866 88.2538 334.35 87.58C334.89 86.82 335.52 86.16 336.03 85.41C336.552 84.714 336.817 83.859 336.78 82.99L346.08 83.81L353.21 83.34C353.4 84.27 353.55 88.35 347.89 90.76Z" fill="white"/>
<path opacity="0.1" d="M359.62 94.25C359.542 95.4679 359.202 96.6545 358.622 97.7283C358.042 98.802 357.236 99.7374 356.26 100.47C350.8 104.14 341.26 104.34 335.89 100.47C334.928 99.724 334.132 98.7855 333.554 97.7144C332.975 96.6434 332.627 95.4635 332.53 94.25C332.53 93.89 332.53 93.53 332.53 93.18C336.12 97.38 343.08 98.73 348.62 95.94C351.595 94.4522 353.857 91.8447 354.91 88.69C355.534 86.8594 355.621 84.8884 355.16 83.01H355.41C355.372 83.8808 355.641 84.7373 356.17 85.43C356.67 86.18 357.3 86.84 357.84 87.6C359.211 89.5316 359.843 91.8916 359.62 94.25Z" fill="black"/>
<path opacity="0.1" d="M359.45 95.34C359.086 97.3966 357.944 99.2339 356.26 100.47C351.99 103.34 345.13 104.1 339.67 102.33C338.98 102.06 338.3 101.75 337.67 101.42C336.293 100.723 335.074 99.7492 334.09 98.56C333.227 97.2742 332.701 95.7921 332.56 94.25C332.426 92.7994 332.617 91.3371 333.12 89.97C334.717 90.8327 336.427 91.4688 338.2 91.86C339.541 92.2335 340.913 92.4846 342.3 92.61C346 92.95 353.3 93.06 359.13 90.08C359.599 91.7924 359.708 93.5833 359.45 95.34Z" fill="black"/>
<path opacity="0.2" d="M359.62 94.2499C359.542 95.4678 359.202 96.6545 358.622 97.7282C358.042 98.8019 357.236 99.7373 356.26 100.47C350.8 104.14 341.26 104.34 335.89 100.47C334.928 99.7239 334.132 98.7854 333.554 97.7144C332.975 96.6434 332.627 95.4634 332.53 94.2499C332.53 93.8899 334.29 97.8599 334.29 97.4599C338.29 102.26 345.86 102.52 351.76 99.8199C358.89 96.5599 357.66 89.0099 356.14 85.4399C356.64 86.1799 357.27 86.8299 357.8 87.5799C359.19 89.5115 359.836 91.88 359.62 94.2499Z" fill="black"/>
<path opacity="0.3" d="M355.67 84.6001C343.78 87.9801 336.17 83.2201 336.1 82.6001L346.1 83.7701L355.39 82.9501C355.325 83.5155 355.422 84.0878 355.67 84.6001Z" fill="black"/>
<path d="M356.4 81.6399C356.415 82.1997 356.277 82.753 356 83.2399C351 85.0499 340.89 84.9399 336.15 83.2399C335.873 82.753 335.735 82.1997 335.75 81.6399C337.36 82.7199 342.61 82.9799 346.08 83.0699C349.54 82.9999 354.79 82.7199 356.4 81.6399Z" fill="#3F72AF"/>
<path opacity="0.1" d="M353.25 83.9999H353.16C348.319 84.7926 343.379 84.7588 338.55 83.8999C337.735 83.7459 336.933 83.532 336.15 83.2599C335.873 82.773 335.735 82.2197 335.75 81.6599C336.75 82.3399 339.25 82.6599 341.83 82.8899C343.31 82.9999 344.83 83.0499 346.08 83.0899C348.366 83.048 350.649 82.8912 352.92 82.6199H353C353.13 82.9999 353.22 83.9999 353.25 83.9999Z" fill="#3F72AF"/>
<path d="M356.4 81.64C356.48 82.43 351.86 83.09 346.08 83.09C340.3 83.09 335.67 82.43 335.75 81.64C335.83 80.85 340.45 80.23 346.08 80.23C351.71 80.23 356.32 80.86 356.4 81.64Z" fill="#3F72AF"/>
<path opacity="0.2" d="M355.38 81.4999C355.38 82.0899 351.31 82.4999 346.2 82.4999C341.09 82.4999 336.98 82.0399 337.02 81.4999C337.06 80.9599 341.16 80.4399 346.2 80.4399C351.24 80.4399 355.34 80.9099 355.38 81.4999Z" fill="black"/>
<path opacity="0.3" d="M340.93 87.43C340.817 87.7331 340.611 87.9929 340.342 88.1724C340.072 88.3519 339.753 88.442 339.43 88.43C339.188 88.4499 338.945 88.4174 338.717 88.3345C338.49 88.2517 338.282 88.1205 338.11 87.95C337.96 87.8 337.51 87.06 337.94 86.65L337.99 86.6C338.351 86.406 338.757 86.3087 339.167 86.3174C339.577 86.3262 339.977 86.4407 340.33 86.65C341 87 341 87.2 340.93 87.43Z" fill="white"/>
<path opacity="0.3" d="M339.55 86.3699C340.3 86.4799 340.12 87.4699 339.33 87.4799C339.23 87.4888 339.13 87.4888 339.03 87.4799C338.25 87.3599 338.46 86.3799 339.26 86.3599C339.357 86.3491 339.454 86.3525 339.55 86.3699Z" fill="white"/>
<path opacity="0.2" d="M341.72 82.9999C341.193 83.3813 340.589 83.644 339.95 83.7699C339.49 83.8702 339.021 83.9238 338.55 83.9299C337.735 83.7759 336.933 83.5619 336.15 83.2899C335.948 82.9322 335.819 82.5379 335.77 82.1299C336.011 82.2165 336.264 82.2605 336.52 82.2599H336.9C336.9 82.3199 336.96 82.3699 337.08 82.4099C337.198 82.4467 337.318 82.4734 337.44 82.4899L338.61 82.6999L339.61 82.8199L340.47 82.9099C340.87 82.8899 341.29 82.9299 341.72 82.9999Z" fill="white"/>
<path opacity="0.2" d="M347.5 83.0899C346.67 83.9485 345.543 84.4567 344.35 84.5099C343.75 84.5666 343.146 84.5498 342.55 84.4599L342.03 84.3699C341.312 84.2413 340.613 84.0229 339.95 83.7199C339.404 83.5098 338.936 83.1361 338.61 82.6499C339.5 82.7699 340.55 82.8799 341.72 82.9499C342.89 83.0199 344.52 83.0899 346.08 83.0899H347.48H347.5Z" fill="white"/>
<path opacity="0.3" d="M340.48 82.86C340.461 82.9508 340.41 83.0319 340.337 83.0887C340.264 83.1455 340.173 83.1744 340.08 83.17C340.08 83.17 339.51 83.17 339.62 82.77L340.48 82.86Z" fill="white"/>
<path d="M359.71 123.24H332.16C334.768 121.776 337.709 121.005 340.7 121H351.18C354.167 121 357.105 121.768 359.71 123.23V123.24Z" fill="#3F72AF"/>
<path opacity="0.3" d="M359.71 123.24H332.16C334.768 121.776 337.709 121.005 340.7 121H351.18C354.167 121 357.105 121.768 359.71 123.23V123.24Z" fill="white"/>
<g opacity="0.8">
<path d="M346.73 88.23V96.62H345.17V89.53H343.4V88.23H346.73Z" fill="white"/>
</g>
<path d="M365.53 94.6199C365.53 94.6199 365.06 97.9899 364.32 101.8C363.89 104.03 360.63 105.29 358.45 105.91C361.45 106.01 363.57 108.28 364.76 110.65C365.95 113.02 366.32 118.41 366.32 118.41C366.32 118.41 366.89 111.84 368.72 109.2C369.85 107.57 372.44 106.29 374.25 105.51C368.32 105.28 366.21 99.6699 365.53 94.6199Z" fill="#3F72AF"/>
<path opacity="0.7" d="M365.53 94.6199C365.53 94.6199 365.06 97.9899 364.32 101.8C363.89 104.03 360.63 105.29 358.45 105.91C361.45 106.01 363.57 108.28 364.76 110.65C365.95 113.02 366.32 118.41 366.32 118.41C366.32 118.41 366.89 111.84 368.72 109.2C369.85 107.57 372.44 106.29 374.25 105.51C368.32 105.28 366.21 99.6699 365.53 94.6199Z" fill="white"/>
<path d="M370.2 72.4299C370.2 72.4299 369.85 74.9599 369.29 77.8099C368.97 79.4799 366.52 80.4299 364.89 80.8999C367.14 80.9699 368.73 82.6699 369.62 84.4499C370.51 86.2299 370.79 90.2699 370.79 90.2699C370.79 90.2699 371.22 85.3399 372.59 83.3599C373.44 82.1399 375.38 81.1799 376.74 80.5999C372.29 80.4199 370.71 76.2199 370.2 72.4299Z" fill="#3F72AF"/>
<path opacity="0.7" d="M370.2 72.4299C370.2 72.4299 369.85 74.9599 369.29 77.8099C368.97 79.4799 366.52 80.4299 364.89 80.8999C367.14 80.9699 368.73 82.6699 369.62 84.4499C370.51 86.2299 370.79 90.2699 370.79 90.2699C370.79 90.2699 371.22 85.3399 372.59 83.3599C373.44 82.1399 375.38 81.1799 376.74 80.5999C372.29 80.4199 370.71 76.2199 370.2 72.4299Z" fill="white"/>
<path d="M319.36 85.6699C319.36 85.6699 318.94 88.6699 318.29 91.9599C317.91 93.9599 315.06 95.0099 313.15 95.5599C315.78 95.6499 317.63 97.6399 318.68 99.7199C319.73 101.8 320.05 106.52 320.05 106.52C320.05 106.52 320.55 100.75 322.15 98.4499C323.15 97.0199 325.42 95.8999 327 95.2099C321.8 94.9999 320 90.0899 319.36 85.6699Z" fill="#3F72AF"/>
<path opacity="0.7" d="M319.36 85.6699C319.36 85.6699 318.94 88.6699 318.29 91.9599C317.91 93.9599 315.06 95.0099 313.15 95.5599C315.78 95.6499 317.63 97.6399 318.68 99.7199C319.73 101.8 320.05 106.52 320.05 106.52C320.05 106.52 320.55 100.75 322.15 98.4499C323.15 97.0199 325.42 95.8999 327 95.2099C321.8 94.9999 320 90.0899 319.36 85.6699Z" fill="white"/>
<path d="M305 77.5601C304.92 77.5593 304.841 77.5387 304.77 77.5001L293.52 71.5001C293.457 71.472 293.401 71.4314 293.355 71.3807C293.309 71.3301 293.274 71.2704 293.252 71.2056C293.229 71.1407 293.221 71.072 293.226 71.0036C293.232 70.9353 293.251 70.8689 293.284 70.8084C293.316 70.7479 293.36 70.6947 293.414 70.6522C293.468 70.6096 293.53 70.5785 293.596 70.5608C293.662 70.5432 293.731 70.5393 293.799 70.5495C293.867 70.5597 293.932 70.5837 293.99 70.6201L305.24 76.6201C305.338 76.6731 305.416 76.7573 305.46 76.8594C305.505 76.9616 305.515 77.0757 305.487 77.1838C305.459 77.2918 305.396 77.3876 305.308 77.4557C305.22 77.5239 305.111 77.5607 305 77.5601Z" fill="#3F72AF"/>
<path d="M312.63 81.5901C312.549 81.5906 312.47 81.57 312.4 81.5301L308.61 79.5301C308.544 79.5051 308.484 79.4663 308.434 79.4163C308.384 79.3663 308.345 79.3064 308.32 79.2403C308.295 79.1743 308.284 79.1036 308.288 79.0331C308.293 78.9626 308.312 78.8937 308.344 78.8311C308.377 78.7685 308.423 78.7135 308.478 78.6698C308.534 78.6261 308.598 78.5947 308.667 78.5776C308.735 78.5605 308.806 78.5581 308.876 78.5706C308.946 78.5831 309.012 78.6102 309.07 78.6502L312.87 80.6502C312.968 80.7031 313.046 80.7874 313.09 80.8895C313.135 80.9916 313.145 81.1058 313.117 81.2138C313.089 81.3219 313.026 81.4176 312.938 81.4858C312.85 81.554 312.741 81.5907 312.63 81.5901Z" fill="#3F72AF"/>
<path d="M305 92.4202H287.72C287.587 92.4202 287.46 92.3675 287.366 92.2737C287.273 92.18 287.22 92.0528 287.22 91.9202C287.22 91.7876 287.273 91.6604 287.366 91.5666C287.46 91.4728 287.587 91.4202 287.72 91.4202H305C305.133 91.4202 305.26 91.4728 305.354 91.5666C305.447 91.6604 305.5 91.7876 305.5 91.9202C305.5 92.0528 305.447 92.18 305.354 92.2737C305.26 92.3675 305.133 92.4202 305 92.4202Z" fill="#3F72AF"/>
<path d="M293.8 113.26C293.708 113.26 293.617 113.235 293.538 113.188C293.458 113.14 293.393 113.072 293.35 112.99C293.29 112.873 293.278 112.738 293.318 112.612C293.357 112.487 293.444 112.382 293.56 112.32L312.07 102.49C312.128 102.454 312.193 102.43 312.261 102.42C312.329 102.409 312.398 102.413 312.464 102.431C312.53 102.449 312.592 102.48 312.646 102.522C312.7 102.565 312.744 102.618 312.776 102.679C312.809 102.739 312.828 102.805 312.834 102.874C312.839 102.942 312.83 103.011 312.808 103.076C312.786 103.141 312.751 103.2 312.705 103.251C312.659 103.302 312.603 103.342 312.54 103.37L294 113.2C293.938 113.233 293.87 113.254 293.8 113.26Z" fill="#3F72AF"/>
<path d="M381.07 81.5901C380.98 81.5904 380.892 81.5663 380.814 81.5206C380.737 81.4748 380.673 81.409 380.63 81.3301C380.569 81.2118 380.558 81.0745 380.597 80.9474C380.636 80.8204 380.723 80.7137 380.84 80.6501L399.68 70.6501C399.738 70.6138 399.803 70.5897 399.871 70.5795C399.939 70.5693 400.008 70.5732 400.074 70.5909C400.14 70.6085 400.202 70.6396 400.256 70.6822C400.31 70.7248 400.354 70.778 400.386 70.8384C400.419 70.8989 400.438 70.9653 400.444 71.0337C400.449 71.102 400.441 71.1707 400.418 71.2356C400.396 71.3005 400.361 71.3601 400.315 71.4108C400.269 71.4614 400.212 71.502 400.15 71.5301L381.31 81.5301C381.236 81.5688 381.154 81.5893 381.07 81.5901Z" fill="#3F72AF"/>
<path d="M406 92.4202H388.66C388.527 92.4202 388.4 92.3675 388.306 92.2737C388.213 92.18 388.16 92.0528 388.16 91.9202C388.16 91.7876 388.213 91.6604 388.306 91.5666C388.4 91.4728 388.527 91.4202 388.66 91.4202H406C406.133 91.4202 406.26 91.4728 406.354 91.5666C406.447 91.6604 406.5 91.7876 406.5 91.9202C406.5 92.0528 406.447 92.18 406.354 92.2737C406.26 92.3675 406.133 92.4202 406 92.4202Z" fill="#3F72AF"/>
<path d="M392.19 109.15C392.107 109.153 392.025 109.136 391.95 109.1L381.17 103.37C381.107 103.342 381.051 103.302 381.005 103.251C380.959 103.2 380.924 103.141 380.902 103.076C380.879 103.011 380.871 102.942 380.876 102.874C380.882 102.805 380.901 102.739 380.934 102.679C380.966 102.618 381.01 102.565 381.064 102.522C381.118 102.48 381.18 102.449 381.246 102.431C381.312 102.413 381.381 102.409 381.449 102.42C381.517 102.43 381.582 102.454 381.64 102.49L392.42 108.21C392.479 108.241 392.531 108.283 392.573 108.333C392.616 108.384 392.648 108.443 392.667 108.506C392.687 108.57 392.693 108.636 392.687 108.702C392.681 108.768 392.661 108.832 392.63 108.89C392.588 108.97 392.524 109.036 392.447 109.082C392.369 109.128 392.28 109.152 392.19 109.15Z" fill="#3F72AF"/>
<path d="M399.91 113.26C399.829 113.261 399.75 113.24 399.68 113.2L396.21 111.36C396.152 111.329 396.101 111.286 396.06 111.235C396.018 111.184 395.987 111.125 395.969 111.062C395.95 110.998 395.944 110.932 395.951 110.867C395.958 110.801 395.978 110.738 396.01 110.68C396.072 110.564 396.177 110.477 396.302 110.438C396.427 110.398 396.563 110.41 396.68 110.47L400.15 112.32C400.266 112.382 400.353 112.487 400.392 112.612C400.432 112.737 400.42 112.873 400.36 112.99C400.316 113.072 400.252 113.14 400.172 113.187C400.093 113.235 400.002 113.26 399.91 113.26Z" fill="#3F72AF"/>
<path d="M92.71 346.56C93.4222 353.304 95.1063 359.909 97.71 366.17C106.88 387.76 109.32 391.17 109.32 391.17L106 393.76C106 393.76 88.8 355.28 90.77 346.29C92.74 337.3 92.71 346.56 92.71 346.56Z" fill="#3F72AF"/>
<path opacity="0.4" d="M92.71 346.56C93.4222 353.304 95.1063 359.909 97.71 366.17C106.88 387.76 109.32 391.17 109.32 391.17L106 393.76C106 393.76 88.8 355.28 90.77 346.29C92.74 337.3 92.71 346.56 92.71 346.56Z" fill="black"/>
<path d="M92.36 344.89C90.5 345.52 90.52 345.83 89.24 346.94C89.13 345.28 88.5 343.27 89.77 340.57C90.3682 339.495 91.2983 338.642 92.4212 338.139C93.5441 337.636 94.7995 337.51 96 337.78C96.0925 337.798 96.1878 337.796 96.2793 337.773C96.3708 337.751 96.4563 337.709 96.53 337.65C96.6129 337.587 96.6801 337.505 96.7264 337.411C96.7726 337.318 96.7967 337.215 96.7967 337.11C96.7967 337.006 96.7726 336.903 96.7264 336.809C96.6801 336.715 96.6129 336.634 96.53 336.57C95.7382 336.049 94.8229 335.746 93.8766 335.692C92.9303 335.637 91.9863 335.833 91.14 336.26C91.97 334.14 93.25 331.7 95.14 330.4C97.14 328.97 101.57 329.46 103.28 331.15C103.358 331.217 103.457 331.254 103.56 331.254C103.663 331.254 103.762 331.217 103.84 331.15C103.947 331.077 104.021 330.964 104.046 330.837C104.07 330.709 104.043 330.578 103.97 330.47C103.418 329.642 102.678 328.957 101.81 328.47C101.316 328.171 100.754 328.006 100.177 327.99C99.6001 327.974 99.0292 328.109 98.52 328.38C99.16 325.68 104.83 323.38 104.75 323.69C106.65 324.08 108.25 325.91 108.95 326.82C109.075 326.98 109.255 327.087 109.455 327.12C109.655 327.154 109.86 327.111 110.03 327C110.257 326.867 110.422 326.649 110.49 326.394C110.557 326.139 110.521 325.869 110.39 325.64C109.675 324.464 108.683 323.482 107.5 322.78C108.18 321.88 109.63 321.92 110.68 321.94C114.02 322 116.22 324.64 118.49 326.72C119.186 329.482 119.127 332.379 118.32 335.11C117.687 337.123 116.371 338.853 114.6 340C114.37 338.1 114.04 336 113.79 334C113.78 333.914 113.753 333.832 113.711 333.756C113.669 333.681 113.612 333.615 113.544 333.562C113.476 333.509 113.399 333.47 113.315 333.448C113.232 333.425 113.145 333.419 113.06 333.43C112.868 333.465 112.695 333.567 112.571 333.717C112.447 333.867 112.379 334.055 112.38 334.25C112.45 336.81 112.83 338.79 112.85 341.42C111.52 342.84 106.85 345.1 107.04 344.69C107.11 342.43 107.7 338.62 107.04 336.49C107.014 336.416 106.971 336.349 106.917 336.294C106.862 336.238 106.795 336.195 106.722 336.167C106.649 336.139 106.57 336.128 106.492 336.134C106.414 336.14 106.338 336.162 106.27 336.2C106.156 336.262 106.062 336.355 106 336.468C105.938 336.582 105.91 336.711 105.92 336.84C106.206 339.759 106.007 342.706 105.33 345.56C102.95 347.26 101.13 348.49 99.45 348.68C99.45 346.84 99.45 344.04 99.45 341.9C99.45 341.754 99.392 341.614 99.2889 341.511C99.1858 341.408 99.0459 341.35 98.9 341.35C98.7541 341.35 98.6142 341.408 98.5111 341.511C98.4079 341.614 98.35 341.754 98.35 341.9C97.79 344.66 98.45 347.9 96.74 350.12C96.74 350.12 93.74 353.05 92.26 352.05C93.6 349.76 93.19 344.61 92.36 344.89Z" fill="#3F72AF"/>
<path opacity="0.1" d="M92.36 344.89C90.5 345.52 90.52 345.83 89.24 346.94C89.13 345.28 88.5 343.27 89.77 340.57C90.3682 339.495 91.2983 338.642 92.4212 338.139C93.5441 337.636 94.7995 337.51 96 337.78C96.0925 337.798 96.1878 337.796 96.2793 337.773C96.3708 337.751 96.4563 337.709 96.53 337.65C96.6129 337.587 96.6801 337.505 96.7264 337.411C96.7726 337.318 96.7967 337.215 96.7967 337.11C96.7967 337.006 96.7726 336.903 96.7264 336.809C96.6801 336.715 96.6129 336.634 96.53 336.57C95.7382 336.049 94.8229 335.746 93.8766 335.692C92.9303 335.637 91.9863 335.833 91.14 336.26C91.97 334.14 93.25 331.7 95.14 330.4C97.14 328.97 101.57 329.46 103.28 331.15C103.358 331.217 103.457 331.254 103.56 331.254C103.663 331.254 103.762 331.217 103.84 331.15C103.947 331.077 104.021 330.964 104.046 330.837C104.07 330.709 104.043 330.578 103.97 330.47C103.418 329.642 102.678 328.957 101.81 328.47C101.316 328.171 100.754 328.006 100.177 327.99C99.6001 327.974 99.0292 328.109 98.52 328.38C99.16 325.68 104.83 323.38 104.75 323.69C106.65 324.08 108.25 325.91 108.95 326.82C109.075 326.98 109.255 327.087 109.455 327.12C109.655 327.154 109.86 327.111 110.03 327C110.257 326.867 110.422 326.649 110.49 326.394C110.557 326.139 110.521 325.869 110.39 325.64C109.675 324.464 108.683 323.482 107.5 322.78C108.18 321.88 109.63 321.92 110.68 321.94C114.02 322 116.22 324.64 118.49 326.72C119.186 329.482 119.127 332.379 118.32 335.11C117.687 337.123 116.371 338.853 114.6 340C114.37 338.1 114.04 336 113.79 334C113.78 333.914 113.753 333.832 113.711 333.756C113.669 333.681 113.612 333.615 113.544 333.562C113.476 333.509 113.399 333.47 113.315 333.448C113.232 333.425 113.145 333.419 113.06 333.43C112.868 333.465 112.695 333.567 112.571 333.717C112.447 333.867 112.379 334.055 112.38 334.25C112.45 336.81 112.83 338.79 112.85 341.42C111.52 342.84 106.85 345.1 107.04 344.69C107.11 342.43 107.7 338.62 107.04 336.49C107.014 336.416 106.971 336.349 106.917 336.294C106.862 336.238 106.795 336.195 106.722 336.167C106.649 336.139 106.57 336.128 106.492 336.134C106.414 336.14 106.338 336.162 106.27 336.2C106.156 336.262 106.062 336.355 106 336.468C105.938 336.582 105.91 336.711 105.92 336.84C106.206 339.759 106.007 342.706 105.33 345.56C102.95 347.26 101.13 348.49 99.45 348.68C99.45 346.84 99.45 344.04 99.45 341.9C99.45 341.754 99.392 341.614 99.2889 341.511C99.1858 341.408 99.0459 341.35 98.9 341.35C98.7541 341.35 98.6142 341.408 98.5111 341.511C98.4079 341.614 98.35 341.754 98.35 341.9C97.79 344.66 98.45 347.9 96.74 350.12C96.74 350.12 93.74 353.05 92.26 352.05C93.6 349.76 93.19 344.61 92.36 344.89Z" fill="white"/>
<path d="M87.12 343C90.7516 348.727 93.5371 354.947 95.39 361.47C101.65 384.07 101.87 388.27 101.87 388.27L106.13 388.19C106.13 388.19 95.6 347.39 88.46 341.59C81.32 335.79 87.12 343 87.12 343Z" fill="#3F72AF"/>
<path opacity="0.2" d="M87.12 343C90.7516 348.727 93.5371 354.947 95.39 361.47C101.65 384.07 101.87 388.27 101.87 388.27L106.13 388.19C106.13 388.19 95.6 347.39 88.46 341.59C81.32 335.79 87.12 343 87.12 343Z" fill="black"/>
<path d="M86.35 341.48C88.19 340.82 88.35 341.07 90.06 341.14C89.12 339.78 88.36 337.81 85.68 336.49C84.5318 336.006 83.2564 335.912 82.0496 336.222C80.8429 336.533 79.7715 337.232 79 338.21C78.9388 338.28 78.8636 338.337 78.7792 338.377C78.6949 338.416 78.6032 338.438 78.51 338.44C78.4059 338.445 78.302 338.427 78.2063 338.386C78.1106 338.344 78.0257 338.282 77.958 338.203C77.8904 338.123 77.8419 338.03 77.8162 337.929C77.7905 337.828 77.7884 337.722 77.81 337.62C78.1001 336.721 78.623 335.914 79.3254 335.282C80.0279 334.65 80.8851 334.214 81.81 334.02C79.81 332.88 77.32 331.76 75.06 331.89C72.6 332.03 69.46 335.16 69.16 337.54C69.1499 337.644 69.1009 337.739 69.0229 337.808C68.945 337.877 68.8438 337.913 68.74 337.91C68.6756 337.914 68.6111 337.906 68.5501 337.885C68.489 337.864 68.4328 337.831 68.3845 337.788C68.3361 337.745 68.2967 337.694 68.2685 337.636C68.2403 337.578 68.2238 337.515 68.22 337.45C68.1253 336.454 68.2693 335.45 68.64 334.52C68.8405 333.978 69.178 333.497 69.6196 333.123C70.0612 332.75 70.5918 332.498 71.16 332.39C68.98 330.68 63.16 332.39 63.37 332.6C62.12 334.09 62 336.52 62.03 337.67C62.0263 337.872 61.9491 338.066 61.8129 338.215C61.6767 338.364 61.4908 338.458 61.29 338.48C61.029 338.514 60.765 338.444 60.5554 338.285C60.3457 338.126 60.2072 337.891 60.17 337.63C60.0007 336.278 60.1655 334.904 60.65 333.63C59.56 333.35 58.45 334.28 57.65 334.95C55.07 337.08 55 340.51 54.51 343.56C55.6923 346.148 57.5467 348.372 59.88 350C61.6405 351.193 63.7647 351.727 65.88 351.51C64.88 349.87 63.82 348.02 62.8 346.34C62.7533 346.267 62.7218 346.185 62.7076 346.1C62.6934 346.015 62.6967 345.927 62.7172 345.843C62.7378 345.759 62.7753 345.68 62.8273 345.611C62.8793 345.541 62.9449 345.483 63.02 345.44C63.1858 345.357 63.375 345.332 63.5567 345.37C63.7383 345.408 63.9017 345.507 64.02 345.65C65.56 347.7 66.5 349.49 68.12 351.56C70.05 351.84 75.12 350.73 74.7 350.5C73.24 348.78 70.41 346.17 69.64 344.06C69.6122 343.987 69.6011 343.909 69.6075 343.832C69.6139 343.754 69.6377 343.679 69.6771 343.612C69.7164 343.545 69.7703 343.487 69.8349 343.444C69.8994 343.4 69.9729 343.371 70.05 343.36C70.1758 343.335 70.3062 343.347 70.4252 343.395C70.5442 343.443 70.6466 343.525 70.72 343.63C72.3124 346.094 74.3028 348.277 76.61 350.09C79.53 349.95 81.73 349.77 83.16 348.88L78.95 343.56C78.53 343.03 79.25 342.41 79.78 342.84C81.94 344.66 83.44 347.61 86.15 348.28C86.15 348.28 90.31 348.71 90.86 347C88.41 346.07 85.53 341.78 86.35 341.48Z" fill="#3F72AF"/>
<path opacity="0.2" d="M86.35 341.48C88.19 340.82 88.35 341.07 90.06 341.14C89.12 339.78 88.36 337.81 85.68 336.49C84.5318 336.006 83.2564 335.912 82.0496 336.222C80.8429 336.533 79.7715 337.232 79 338.21C78.9388 338.28 78.8636 338.337 78.7792 338.377C78.6949 338.416 78.6032 338.438 78.51 338.44C78.4059 338.445 78.302 338.427 78.2063 338.386C78.1106 338.344 78.0257 338.282 77.958 338.203C77.8904 338.123 77.8419 338.03 77.8162 337.929C77.7905 337.828 77.7884 337.722 77.81 337.62C78.1001 336.721 78.623 335.914 79.3254 335.282C80.0279 334.65 80.8851 334.214 81.81 334.02C79.81 332.88 77.32 331.76 75.06 331.89C72.6 332.03 69.46 335.16 69.16 337.54C69.1499 337.644 69.1009 337.739 69.0229 337.808C68.945 337.877 68.8438 337.913 68.74 337.91C68.6756 337.914 68.6111 337.906 68.5501 337.885C68.489 337.864 68.4328 337.831 68.3845 337.788C68.3361 337.745 68.2967 337.694 68.2685 337.636C68.2403 337.578 68.2238 337.515 68.22 337.45C68.1253 336.454 68.2693 335.45 68.64 334.52C68.8405 333.978 69.178 333.497 69.6196 333.123C70.0612 332.75 70.5918 332.498 71.16 332.39C68.98 330.68 63.16 332.39 63.37 332.6C62.12 334.09 62 336.52 62.03 337.67C62.0263 337.872 61.9491 338.066 61.8129 338.215C61.6767 338.364 61.4908 338.458 61.29 338.48C61.029 338.514 60.765 338.444 60.5554 338.285C60.3457 338.126 60.2072 337.891 60.17 337.63C60.0007 336.278 60.1655 334.904 60.65 333.63C59.56 333.35 58.45 334.28 57.65 334.95C55.07 337.08 55 340.51 54.51 343.56C55.6923 346.148 57.5467 348.372 59.88 350C61.6405 351.193 63.7647 351.727 65.88 351.51C64.88 349.87 63.82 348.02 62.8 346.34C62.7533 346.267 62.7218 346.185 62.7076 346.1C62.6934 346.015 62.6967 345.927 62.7172 345.843C62.7378 345.759 62.7753 345.68 62.8273 345.611C62.8793 345.541 62.9449 345.483 63.02 345.44C63.1858 345.357 63.375 345.332 63.5567 345.37C63.7383 345.408 63.9017 345.507 64.02 345.65C65.56 347.7 66.5 349.49 68.12 351.56C70.05 351.84 75.12 350.73 74.7 350.5C73.24 348.78 70.41 346.17 69.64 344.06C69.6122 343.987 69.6011 343.909 69.6075 343.832C69.6139 343.754 69.6377 343.679 69.6771 343.612C69.7164 343.545 69.7703 343.487 69.8349 343.444C69.8994 343.4 69.9729 343.371 70.05 343.36C70.1758 343.335 70.3062 343.347 70.4252 343.395C70.5442 343.443 70.6466 343.525 70.72 343.63C72.3124 346.094 74.3028 348.277 76.61 350.09C79.53 349.95 81.73 349.77 83.16 348.88L78.95 343.56C78.53 343.03 79.25 342.41 79.78 342.84C81.94 344.66 83.44 347.61 86.15 348.28C86.15 348.28 90.31 348.71 90.86 347C88.41 346.07 85.53 341.78 86.35 341.48Z" fill="white"/>
<path d="M88.09 350.78C89.15 348.32 89.56 348.42 91.19 346.88C89 346.33 86.38 344.98 82.63 346.14C79.31 347.39 77.82 350.78 78.17 354.29C78.1812 354.417 78.1657 354.545 78.1244 354.666C78.083 354.786 78.0168 354.897 77.93 354.99C77.8332 355.092 77.7135 355.17 77.5808 355.217C77.448 355.264 77.306 355.279 77.1664 355.261C77.0269 355.242 76.8937 355.191 76.7778 355.111C76.662 355.031 76.5667 354.924 76.5 354.8C75.8906 353.609 75.5922 352.283 75.6324 350.946C75.6726 349.608 76.0502 348.303 76.73 347.15C73.8 347.83 70.38 349.05 68.43 351.33C66.29 353.83 66.43 360.13 68.43 362.93C68.5226 363.043 68.5733 363.184 68.5733 363.33C68.5733 363.476 68.5226 363.617 68.43 363.73C68.3702 363.793 68.2981 363.844 68.2181 363.878C68.1382 363.913 68.052 363.93 67.965 363.93C67.8779 363.93 67.7918 363.913 67.7118 363.878C67.6319 363.844 67.5598 363.793 67.5 363.73C66.43 362.761 65.5896 361.565 65.04 360.23C64.6959 359.496 64.5395 358.687 64.5849 357.877C64.6303 357.068 64.876 356.282 65.3 355.59C61.63 355.85 57.92 363.28 58.3 363.23C58.59 365.99 60.84 368.67 61.98 369.86C62.1747 370.068 62.2919 370.337 62.3119 370.621C62.332 370.905 62.2536 371.187 62.09 371.42C61.987 371.564 61.8544 371.684 61.701 371.773C61.5476 371.861 61.3771 371.916 61.2009 371.933C61.0247 371.95 60.8469 371.929 60.6794 371.872C60.5119 371.814 60.3587 371.722 60.23 371.6C59.02 370.43 57.18 368.46 56.76 366.87C55.48 367.62 55.36 369.66 55.26 371.14C54.95 375.85 58.26 379.55 60.72 383.22C64.2115 384.844 68.087 385.46 71.91 385C74.6911 384.578 77.2002 383.094 78.91 380.86V380.81C76.4 380.03 73.62 379.08 71.06 378.28C70.8227 378.206 70.6216 378.046 70.4959 377.831C70.3702 377.617 70.3289 377.363 70.38 377.12C70.4376 376.868 70.5906 376.648 70.8068 376.506C71.0231 376.365 71.2859 376.312 71.54 376.36C74.95 377.05 77.54 378.04 81.06 378.69C83.11 377.15 86.68 371.18 86.11 371.3C83.11 370.87 77.94 370.81 75.18 369.3C75.0841 369.246 75 369.174 74.9327 369.087C74.8654 369 74.8163 368.9 74.7883 368.794C74.7603 368.687 74.754 368.576 74.7698 368.468C74.7855 368.359 74.823 368.254 74.88 368.16C74.972 368.015 75.1078 367.903 75.2678 367.84C75.4278 367.777 75.6037 367.766 75.77 367.81C79.5968 368.893 83.584 369.295 87.55 369C90.1 366.06 91.96 363.79 92.42 361.48L83.42 359.87C83.2293 359.841 83.0559 359.743 82.9334 359.594C82.8109 359.445 82.7479 359.256 82.7566 359.064C82.7653 358.871 82.8451 358.688 82.9805 358.551C83.116 358.414 83.2975 358.331 83.49 358.32C87.25 358.19 91.49 359.88 94.65 358C94.65 358 98.91 354.5 97.77 352.16C94.45 353.67 87.62 351.88 88.09 350.78Z" fill="#3F72AF"/>
<path d="M89.94 354.13C89.94 354.13 98.24 366.22 100.47 377.65C102.7 389.08 103 391.28 103 391.28L108 391.33C108 391.33 99 359.33 91.29 352.46C83.58 345.59 89.94 354.13 89.94 354.13Z" fill="#3F72AF"/>
<path opacity="0.1" d="M89.94 354.13C89.94 354.13 98.24 366.22 100.47 377.65C102.7 389.08 103 391.28 103 391.28L108 391.33C108 391.33 99 359.33 91.29 352.46C83.58 345.59 89.94 354.13 89.94 354.13Z" fill="black"/>
<path opacity="0.3" d="M88.09 350.78C89.15 348.32 89.56 348.42 91.19 346.88C89 346.33 86.38 344.98 82.63 346.14C79.31 347.39 77.82 350.78 78.17 354.29C78.1812 354.417 78.1657 354.545 78.1244 354.666C78.083 354.786 78.0168 354.897 77.93 354.99C77.8332 355.092 77.7135 355.17 77.5808 355.217C77.448 355.264 77.306 355.279 77.1664 355.261C77.0269 355.242 76.8937 355.191 76.7778 355.111C76.662 355.031 76.5667 354.924 76.5 354.8C75.8906 353.609 75.5922 352.283 75.6324 350.946C75.6726 349.608 76.0502 348.303 76.73 347.15C73.8 347.83 70.38 349.05 68.43 351.33C66.29 353.83 66.43 360.13 68.43 362.93C68.5226 363.043 68.5733 363.184 68.5733 363.33C68.5733 363.476 68.5226 363.617 68.43 363.73C68.3702 363.793 68.2981 363.844 68.2181 363.878C68.1382 363.913 68.052 363.93 67.965 363.93C67.8779 363.93 67.7918 363.913 67.7118 363.878C67.6319 363.844 67.5598 363.793 67.5 363.73C66.43 362.761 65.5896 361.565 65.04 360.23C64.6959 359.496 64.5395 358.687 64.5849 357.877C64.6303 357.068 64.876 356.282 65.3 355.59C61.63 355.85 57.92 363.28 58.3 363.23C58.59 365.99 60.84 368.67 61.98 369.86C62.1747 370.068 62.2919 370.337 62.3119 370.621C62.332 370.905 62.2536 371.187 62.09 371.42C61.987 371.564 61.8544 371.684 61.701 371.773C61.5476 371.861 61.3771 371.916 61.2009 371.933C61.0247 371.95 60.8469 371.929 60.6794 371.872C60.5119 371.814 60.3587 371.722 60.23 371.6C59.02 370.43 57.18 368.46 56.76 366.87C55.48 367.62 55.36 369.66 55.26 371.14C54.95 375.85 58.26 379.55 60.72 383.22C64.2115 384.844 68.087 385.46 71.91 385C74.6911 384.578 77.2002 383.094 78.91 380.86V380.81C76.4 380.03 73.62 379.08 71.06 378.28C70.8227 378.206 70.6216 378.046 70.4959 377.831C70.3702 377.617 70.3289 377.363 70.38 377.12C70.4376 376.868 70.5906 376.648 70.8068 376.506C71.0231 376.365 71.2859 376.312 71.54 376.36C74.95 377.05 77.54 378.04 81.06 378.69C83.11 377.15 86.68 371.18 86.11 371.3C83.11 370.87 77.94 370.81 75.18 369.3C75.0841 369.246 75 369.174 74.9327 369.087C74.8654 369 74.8163 368.9 74.7883 368.794C74.7603 368.687 74.754 368.576 74.7698 368.468C74.7855 368.359 74.823 368.254 74.88 368.16C74.972 368.015 75.1078 367.903 75.2678 367.84C75.4278 367.777 75.6037 367.766 75.77 367.81C79.5968 368.893 83.584 369.295 87.55 369C90.1 366.06 91.96 363.79 92.42 361.48L83.42 359.87C83.2293 359.841 83.0559 359.743 82.9334 359.594C82.8109 359.445 82.7479 359.256 82.7566 359.064C82.7653 358.871 82.8451 358.688 82.9805 358.551C83.116 358.414 83.2975 358.331 83.49 358.32C87.25 358.19 91.49 359.88 94.65 358C94.65 358 98.91 354.5 97.77 352.16C94.45 353.67 87.62 351.88 88.09 350.78Z" fill="white"/>
<path d="M55.85 412.41C54.5558 412.368 53.3191 411.865 52.3622 410.993C51.4054 410.12 50.7912 408.935 50.63 407.65C50.4908 406.355 50.8015 405.052 51.5099 403.959C52.2183 402.867 53.2812 402.051 54.52 401.65C52.4006 400.961 50.5511 399.624 49.2324 397.827C47.9138 396.031 47.1925 393.865 47.1704 391.637C47.1483 389.408 47.8265 387.229 49.1093 385.407C50.3921 383.585 52.2147 382.211 54.32 381.48C55.1158 381.167 55.9787 381.063 56.8261 381.179C57.6735 381.294 58.477 381.625 59.16 382.14C60.45 383.28 60.63 385.81 59.16 386.73C58.5666 384.693 58.6515 382.519 59.4019 380.535C60.1523 378.551 61.5274 376.864 63.32 375.73C65.135 374.756 67.2366 374.458 69.2508 374.888C71.2651 375.319 73.0614 376.45 74.32 378.08C73.7252 377.181 73.4081 376.128 73.4081 375.05C73.4081 373.972 73.7252 372.919 74.32 372.02C74.91 371.163 75.7621 370.52 76.7484 370.189C77.7346 369.857 78.8019 369.854 79.79 370.18C80.0324 368.822 80.777 367.605 81.8758 366.771C82.9746 365.938 84.347 365.548 85.72 365.68C87.079 365.981 88.2812 366.768 89.1007 367.893C89.9202 369.018 90.3004 370.404 90.17 371.79C90.48 369.43 94.17 368.79 95.17 370.84C96.65 370.42 94.72 371.19 94.72 371.19C95.5188 369.616 96.8026 368.34 98.3817 367.552C99.9609 366.763 101.752 366.503 103.49 366.81C105.227 367.247 106.786 368.209 107.955 369.566C109.124 370.923 109.845 372.608 110.02 374.39C111.221 373.511 112.662 373.018 114.151 372.979C115.639 372.94 117.104 373.355 118.35 374.17C119.593 375.064 120.563 376.285 121.155 377.697C121.746 379.109 121.935 380.657 121.7 382.17C122.389 381.665 123.176 381.31 124.011 381.127C124.845 380.944 125.708 380.938 126.545 381.108C127.382 381.279 128.175 381.622 128.871 382.117C129.568 382.611 130.153 383.246 130.59 383.98C132.34 387.08 130.99 391.64 127.88 393.12C128.972 393.248 129.977 393.78 130.697 394.611C131.417 395.441 131.801 396.511 131.774 397.61C131.746 398.71 131.309 399.759 130.548 400.552C129.787 401.346 128.757 401.827 127.66 401.9C128.761 401.985 129.798 402.449 130.595 403.213C131.392 403.977 131.899 404.994 132.03 406.09C132.29 408.33 130.81 411.87 128.74 412.46L55.85 412.41Z" fill="#3F72AF"/>
<g opacity="0.1">
<path d="M55.85 412.41C54.5558 412.368 53.3191 411.865 52.3622 410.993C51.4054 410.12 50.7912 408.935 50.63 407.65C50.4908 406.355 50.8015 405.052 51.5099 403.959C52.2183 402.867 53.2812 402.051 54.52 401.65C52.4006 400.961 50.5511 399.624 49.2324 397.827C47.9138 396.031 47.1925 393.865 47.1704 391.637C47.1483 389.408 47.8265 387.229 49.1093 385.407C50.3921 383.585 52.2147 382.211 54.32 381.48C55.1158 381.167 55.9787 381.063 56.8261 381.179C57.6735 381.294 58.477 381.625 59.16 382.14C60.45 383.28 60.63 385.81 59.16 386.73C58.5666 384.693 58.6515 382.519 59.4019 380.535C60.1523 378.551 61.5274 376.864 63.32 375.73C65.135 374.756 67.2366 374.458 69.2508 374.888C71.2651 375.319 73.0614 376.45 74.32 378.08C73.7252 377.181 73.4081 376.128 73.4081 375.05C73.4081 373.972 73.7252 372.919 74.32 372.02C74.91 371.163 75.7621 370.52 76.7484 370.189C77.7346 369.857 78.8019 369.854 79.79 370.18C80.0324 368.822 80.777 367.605 81.8758 366.771C82.9746 365.938 84.347 365.548 85.72 365.68C87.079 365.981 88.2812 366.768 89.1007 367.893C89.9202 369.018 90.3004 370.404 90.17 371.79C90.48 369.43 94.17 368.79 95.17 370.84C96.65 370.42 94.72 371.19 94.72 371.19C95.5188 369.616 96.8026 368.34 98.3817 367.552C99.9609 366.763 101.752 366.503 103.49 366.81C105.227 367.247 106.786 368.209 107.955 369.566C109.124 370.923 109.845 372.608 110.02 374.39C111.221 373.511 112.662 373.018 114.151 372.979C115.639 372.94 117.104 373.355 118.35 374.17C119.593 375.064 120.563 376.285 121.155 377.697C121.746 379.109 121.935 380.657 121.7 382.17C122.389 381.665 123.176 381.31 124.011 381.127C124.845 380.944 125.708 380.938 126.545 381.108C127.382 381.279 128.175 381.622 128.871 382.117C129.568 382.611 130.153 383.246 130.59 383.98C132.34 387.08 130.99 391.64 127.88 393.12C128.972 393.248 129.977 393.78 130.697 394.611C131.417 395.441 131.801 396.511 131.774 397.61C131.746 398.71 131.309 399.759 130.548 400.552C129.787 401.346 128.757 401.827 127.66 401.9C128.761 401.985 129.798 402.449 130.595 403.213C131.392 403.977 131.899 404.994 132.03 406.09C132.29 408.33 130.81 411.87 128.74 412.46L55.85 412.41Z" fill="black"/>
</g>
<path d="M94.22 405.4C94.7205 405.027 95.2913 404.76 95.898 404.614C96.5047 404.468 97.1347 404.446 97.75 404.55C98.367 404.659 98.9391 404.945 99.3971 405.373C99.855 405.801 100.179 406.352 100.33 406.96C100.453 407.572 100.345 408.207 100.027 408.744C99.7098 409.282 99.205 409.682 98.61 409.87C97.14 410.22 95.61 409.01 94.16 409.22C93.6346 409.346 93.117 409.503 92.61 409.69C90.45 410.27 88.31 408.86 86.52 407.52C85.8638 407.09 85.2912 406.545 84.83 405.91C84.6024 405.587 84.4657 405.209 84.434 404.815C84.4024 404.421 84.4769 404.025 84.65 403.67C85.2 402.73 86.5 402.59 87.59 402.67C89.7863 402.926 91.866 403.796 93.59 405.18C93.53 404.84 93.48 404.49 93.42 404.18L94.22 405.4Z" fill="#3F72AF"/>
<path d="M59.94 394.59C60.3045 394.537 60.6767 394.585 61.0155 394.73C61.3543 394.874 61.6465 395.11 61.86 395.41C62.0713 395.87 62.1 396.394 61.9404 396.874C61.7807 397.355 61.4447 397.757 61 398C60.0897 398.444 59.081 398.647 58.07 398.59C57.07 398.59 55.75 398.48 55.37 397.52C55.2548 397.153 55.2639 396.758 55.3958 396.396C55.5278 396.035 55.7753 395.727 56.1 395.52C56.7452 395.125 57.4686 394.876 58.22 394.79C58.22 394.79 59.21 394.67 59.94 394.59Z" fill="#3F72AF"/>
<path d="M108.66 387.53C109.469 387.879 110.184 388.412 110.748 389.088C111.313 389.764 111.711 390.563 111.91 391.42C111.999 391.67 112.013 391.942 111.949 392.2C111.885 392.457 111.746 392.691 111.55 392.87C111.196 393.006 110.804 393.006 110.45 392.87L105.8 391.76C106.557 392.002 107.265 392.378 107.89 392.87C108.202 393.121 108.441 393.451 108.582 393.825C108.723 394.2 108.76 394.606 108.69 395C108.538 395.445 108.244 395.827 107.854 396.089C107.464 396.351 106.999 396.478 106.53 396.45C105.595 396.386 104.701 396.037 103.97 395.45C103.535 395.203 103.162 394.859 102.881 394.444C102.6 394.03 102.418 393.556 102.35 393.06C102.35 392.06 103.59 391.14 104.35 391.78C102.569 391.3 100.88 390.53 99.35 389.5C98.7738 389.162 98.2788 388.701 97.9 388.15C97.7127 387.874 97.6004 387.553 97.5741 387.22C97.5478 386.887 97.6084 386.553 97.75 386.25C99.35 383.36 101.36 387.6 102.34 387.98C104.2 388.71 106.3 386.55 108.66 387.53Z" fill="#3F72AF"/>
<path d="M105.93 402.45C105.808 402.796 105.791 403.17 105.879 403.525C105.968 403.881 106.16 404.202 106.43 404.45C106.569 404.562 106.731 404.642 106.905 404.684C107.079 404.726 107.26 404.728 107.435 404.692C107.61 404.656 107.774 404.581 107.917 404.474C108.06 404.366 108.177 404.228 108.26 404.07C106.935 404.34 105.729 405.018 104.81 406.01C104.02 407.09 104.21 409.01 105.49 409.4C105.903 409.474 106.326 409.464 106.735 409.371C107.144 409.279 107.53 409.105 107.87 408.86C109.952 407.728 111.936 406.423 113.8 404.96C113.23 406.27 114.6 407.76 116.03 407.88C117.476 407.849 118.876 407.363 120.03 406.49C121.53 405.58 123.25 404.18 122.86 402.49C122.51 401 120.61 400.34 119.14 400.78C117.714 401.356 116.471 402.306 115.54 403.53C116.35 402.36 115.21 400.62 113.8 400.43C113.112 400.393 112.425 400.525 111.799 400.815C111.173 401.104 110.628 401.542 110.21 402.09C111.8 401.21 112.21 398.93 110.02 398.66C108.62 398.46 106.26 401.29 105.93 402.45Z" fill="#3F72AF"/>
<path d="M94.71 396.81C95.4172 397.143 96.0286 397.649 96.4868 398.282C96.945 398.915 97.2351 399.654 97.33 400.43C97.73 402.49 97.19 404.96 94.96 405.7C94.3361 405.89 93.6728 405.911 93.0383 405.76C92.4038 405.609 91.821 405.291 91.35 404.84C89.06 402.68 89.88 399.17 91.98 397.3C92.362 397.005 92.8097 396.806 93.285 396.721C93.7602 396.635 94.2491 396.666 94.71 396.81Z" fill="#3F72AF"/>
<path d="M72 403.16C72.4495 403.128 72.8998 403.21 73.3089 403.399C73.7181 403.588 74.0728 403.877 74.34 404.24C74.7854 404.66 75.061 405.23 75.1144 405.84C75.1679 406.45 74.9955 407.059 74.63 407.55C74.3712 407.824 74.0434 408.024 73.6809 408.128C73.3184 408.231 72.9347 408.236 72.57 408.14C72.1797 408.009 71.8206 407.798 71.5152 407.522C71.2097 407.245 70.9645 406.909 70.7947 406.534C70.6249 406.159 70.5342 405.752 70.5282 405.341C70.5222 404.929 70.6011 404.52 70.76 404.14C70.8747 403.89 71.0468 403.672 71.2623 403.501C71.4778 403.331 71.7306 403.214 72 403.16Z" fill="#3F72AF"/>
<path d="M70.21 385.86C70.6588 385.519 71.1867 385.297 71.7445 385.215C72.3023 385.132 72.8718 385.193 73.4 385.39C74.85 385.82 76.26 386.98 75.99 388.66C75.9003 389.12 75.69 389.547 75.3808 389.898C75.0715 390.25 74.6743 390.513 74.23 390.66C72.08 391.41 70.11 389.71 69.61 387.74C69.5559 387.402 69.582 387.055 69.6862 386.729C69.7904 386.402 69.9698 386.105 70.21 385.86Z" fill="#3F72AF"/>
<path d="M78 378.08C78.5214 378.296 78.9789 378.642 79.329 379.085C79.679 379.528 79.91 380.053 80 380.61C80.35 382.08 80 383.88 78.45 384.48C78.0068 384.639 77.5293 384.676 77.0669 384.588C76.6045 384.5 76.174 384.29 75.82 383.98C74.1 382.49 74.58 379.93 76.04 378.51C76.3084 378.287 76.6265 378.131 76.9676 378.056C77.3087 377.981 77.6627 377.99 78 378.08Z" fill="#3F72AF"/>
<path d="M57.82 400.8C57.7773 400.236 57.8767 399.671 58.109 399.156C58.3414 398.64 58.6993 398.191 59.15 397.85C60.29 396.85 62.03 396.31 63.3 397.44C63.6472 397.76 63.9012 398.167 64.035 398.62C64.1689 399.073 64.1775 399.553 64.06 400.01C63.53 402.22 61.06 403.01 59.06 402.33C58.7482 402.19 58.4736 401.978 58.2583 401.712C58.043 401.447 57.8929 401.134 57.82 400.8Z" fill="#3F72AF"/>
<path d="M80.38 392.32L79.85 392.78C80.1842 392.359 80.641 392.052 81.1573 391.903C81.6736 391.753 82.2237 391.768 82.7313 391.944C83.2389 392.121 83.6789 392.452 83.9902 392.89C84.3015 393.328 84.4688 393.853 84.4688 394.39C84.4688 394.928 84.3015 395.452 83.9902 395.89C83.6789 396.328 83.2389 396.659 82.7313 396.836C82.2237 397.013 81.6736 397.027 81.1573 396.878C80.641 396.728 80.1842 396.421 79.85 396C79.1043 396.363 78.262 396.476 77.4468 396.325C76.6316 396.174 75.8862 395.766 75.32 395.16C75.0672 394.841 74.8822 394.473 74.7762 394.079C74.6702 393.686 74.6455 393.275 74.7035 392.872C74.7615 392.469 74.9011 392.081 75.1136 391.734C75.3262 391.386 75.6074 391.086 75.94 390.85C77.38 390.04 79.56 391.26 79.41 392.91L80.03 392.21L80.38 392.32Z" fill="#3F72AF"/>
<path d="M64 393C64.41 394.38 63.82 396.16 62.44 396.55C61.06 396.94 59.72 395.81 58.9 394.64C58.08 393.47 57.39 392.17 58 391C60.1 387 63.61 391.63 64 393Z" fill="#3F72AF"/>
<path d="M120.47 395.25C119.13 395.76 117.3 395.32 116.81 393.97C116.32 392.62 117.33 391.2 118.44 390.3C119.55 389.4 120.79 388.58 121.98 389.09C126.12 390.88 121.82 394.74 120.47 395.25Z" fill="#3F72AF"/>
<path d="M101.52 380.39C100.69 381.56 98.93 382.2 97.77 381.39C96.61 380.58 96.67 378.8 97.09 377.39C97.51 375.98 98.09 374.66 99.37 374.39C103.81 373.62 102.36 379.22 101.52 380.39Z" fill="#3F72AF"/>
<path d="M97.28 379.69C97.3702 380.236 97.2486 380.795 96.9401 381.255C96.6316 381.714 96.1594 382.038 95.62 382.16C94.53 382.27 93.62 381.25 93.21 380.25C92.8 379.25 92.38 378.17 92.99 377.39C95.11 374.66 97.15 378.59 97.28 379.69Z" fill="#3F72AF"/>
<path d="M107.24 384.07C106.73 384.281 106.159 384.291 105.642 384.095C105.126 383.9 104.703 383.516 104.46 383.02C104.11 382.02 104.91 380.91 105.78 380.23C106.65 379.55 107.61 378.96 108.51 379.38C111.66 380.83 108.28 383.71 107.24 384.07Z" fill="#3F72AF"/>
<path d="M89 387.88C89.1518 387.603 89.3579 387.358 89.606 387.162C89.8541 386.966 90.1392 386.821 90.4443 386.737C90.7493 386.653 91.0682 386.632 91.3818 386.673C91.6954 386.715 91.9975 386.819 92.27 386.98C92.7924 387.351 93.175 387.887 93.3563 388.502C93.5377 389.117 93.5072 389.775 93.27 390.37C93.0045 390.959 92.5864 391.466 92.0589 391.839C91.5313 392.212 90.9137 392.437 90.27 392.49C88.69 392.67 86.84 391.4 87.19 389.85C86.8253 390.276 86.3595 390.604 85.8354 390.803C85.3112 391.002 84.7455 391.066 84.19 390.99C83.0759 390.825 82.0093 390.426 81.06 389.82C79.74 389.06 78.34 387.88 78.48 386.37C78.5832 385.765 78.8887 385.213 79.3465 384.804C79.8043 384.396 80.3872 384.154 81 384.12C81.6072 384.096 82.2132 384.192 82.7831 384.403C83.3529 384.614 83.8753 384.936 84.32 385.35C85.05 385.97 85.65 386.74 86.43 387.28C86.8038 387.577 87.2503 387.769 87.7233 387.836C88.1962 387.903 88.6784 387.842 89.12 387.66L89 387.88Z" fill="#3F72AF"/>
<path d="M438.7 197.84H245.15L270.89 121.99H438.7V197.84Z" fill="#3F72AF"/>
<path opacity="0.3" d="M438.7 197.84H245.15L270.89 121.99H438.7V197.84Z" fill="white"/>
<path opacity="0.2" d="M418.37 120.94H283.19V137.95H418.37V120.94Z" fill="white"/>
<path opacity="0.2" d="M410.26 140.78H275.08V157.79H410.26V140.78Z" fill="white"/>
<path opacity="0.2" d="M402.15 160.62H266.97V177.63H402.15V160.62Z" fill="white"/>
<path opacity="0.2" d="M394.03 180.47H258.85V197.48H394.03V180.47Z" fill="white"/>
<path d="M438.73 313.94H156.87L209.6 197.25H438.73V313.94Z" fill="#3F72AF"/>
<g opacity="0.1">
<path d="M438.73 313.94H156.87L209.6 197.25H438.73V313.94Z" fill="white"/>
</g>
<path opacity="0.2" d="M387.57 199.69H227.43V216.7H387.57V199.69Z" fill="white"/>
<path opacity="0.2" d="M378.31 219.22H218.17V236.23H378.31V219.22Z" fill="white"/>
<path opacity="0.2" d="M369.06 238.75H208.92V255.76H369.06V238.75Z" fill="white"/>
<path opacity="0.2" d="M359.8 258.28H199.66V275.29H359.8V258.28Z" fill="white"/>
<path opacity="0.2" d="M350.55 277.81H190.41V294.82H350.55V277.81Z" fill="white"/>
<path opacity="0.2" d="M341.3 297.34H181.16V314.35H341.3V297.34Z" fill="white"/>
<path d="M438.54 412.34H62.55L124.35 298.09L438.54 295.65V412.34Z" fill="#3F72AF"/>
<path opacity="0.2" d="M338.61 297.49H141.38V314.5H338.61V297.49Z" fill="white"/>
<path opacity="0.2" d="M327.21 317.02H129.98V334.03H327.21V317.02Z" fill="white"/>
<path opacity="0.2" d="M315.81 336.55H118.58V353.56H315.81V336.55Z" fill="white"/>
<path opacity="0.2" d="M304.42 356.08H107.19V373.09H304.42V356.08Z" fill="white"/>
<path opacity="0.2" d="M293.02 375.6H95.79V392.61H293.02V375.6Z" fill="white"/>
<path opacity="0.2" d="M281.62 395.13H84.39V412.14H281.62V395.13Z" fill="white"/>
<path d="M369.61 401.78C369.56 401.84 369.68 402.06 369.54 402.24C369.4 402.42 369.23 402.48 368.75 402.49C368.389 402.487 368.028 402.46 367.67 402.41C361.6 401.61 351 399.35 347.95 393.16C343.6 384.34 356.66 387.36 356.13 382.82C355.6 378.28 340.82 379.33 339.13 372.69C337.8 367.45 343.78 368.2 346.42 367.17C346.683 367.096 346.924 366.959 347.123 366.771C347.322 366.582 347.472 366.349 347.56 366.09C347.571 365.99 347.571 365.89 347.56 365.79C347.63 362.53 336.11 364.79 333.68 357.6C332.04 352.75 335.56 353.55 337.68 353.6C338.68 353.6 339.32 353.54 339.08 352.69C339.08 352.69 339.08 352.61 339.08 352.57C338.02 349.57 328 336.23 333.29 334.57C337.95 333.1 345.64 343.57 349.8 347.39C350.135 347.699 350.489 347.986 350.86 348.25C350.985 348.348 351.119 348.435 351.26 348.51C354.76 350.42 357.63 339.02 361.84 343.74C365.57 347.92 361.09 361.66 363.73 366.91C363.927 367.315 364.191 367.683 364.51 368C364.691 368.184 364.896 368.342 365.12 368.47C369.12 370.82 367.86 364.18 373.05 365.33C380.14 367 378.22 391.8 369.61 401.78Z" fill="#3F72AF"/>
<g opacity="0.1">
<path d="M369.61 401.78C369.56 401.84 369.68 402.06 369.54 402.24C369.4 402.42 369.23 402.48 368.75 402.49C368.389 402.487 368.028 402.46 367.67 402.41C361.6 401.61 351 399.35 347.95 393.16C343.6 384.34 356.66 387.36 356.13 382.82C355.6 378.28 340.82 379.33 339.13 372.69C337.8 367.45 343.78 368.2 346.42 367.17C346.683 367.096 346.924 366.959 347.123 366.771C347.322 366.582 347.472 366.349 347.56 366.09C347.571 365.99 347.571 365.89 347.56 365.79C347.63 362.53 336.11 364.79 333.68 357.6C332.04 352.75 335.56 353.55 337.68 353.6C338.68 353.6 339.32 353.54 339.08 352.69C339.08 352.69 339.08 352.61 339.08 352.57C338.02 349.57 328 336.23 333.29 334.57C337.95 333.1 345.64 343.57 349.8 347.39C350.135 347.699 350.489 347.986 350.86 348.25C350.985 348.348 351.119 348.435 351.26 348.51C354.76 350.42 357.63 339.02 361.84 343.74C365.57 347.92 361.09 361.66 363.73 366.91C363.927 367.315 364.191 367.683 364.51 368C364.691 368.184 364.896 368.342 365.12 368.47C369.12 370.82 367.86 364.18 373.05 365.33C380.14 367 378.22 391.8 369.61 401.78Z" fill="white"/>
</g>
<path d="M369.79 408C369.843 407.995 369.894 407.98 369.94 407.955C369.987 407.93 370.028 407.896 370.062 407.855C370.095 407.814 370.12 407.767 370.135 407.716C370.151 407.666 370.156 407.613 370.15 407.56C365.95 365.63 342.23 348.12 341.99 347.94C341.947 347.908 341.898 347.885 341.847 347.873C341.795 347.861 341.741 347.859 341.688 347.869C341.636 347.878 341.586 347.898 341.541 347.928C341.497 347.957 341.459 347.995 341.43 348.04C341.399 348.083 341.377 348.131 341.364 348.182C341.352 348.234 341.35 348.287 341.359 348.339C341.367 348.391 341.386 348.441 341.413 348.486C341.441 348.53 341.477 348.569 341.52 348.6C341.76 348.77 365.18 366.1 369.34 407.6C369.343 407.656 369.356 407.711 369.38 407.762C369.405 407.813 369.439 407.858 369.481 407.895C369.522 407.932 369.571 407.961 369.625 407.979C369.678 407.997 369.734 408.004 369.79 408Z" fill="#3F72AF"/>
<path d="M339.12 352.73C341.438 352.353 343.802 352.353 346.12 352.73C346.597 352.81 347.069 352.923 347.53 353.07C347.576 353.089 347.618 353.117 347.653 353.153C347.687 353.189 347.714 353.233 347.73 353.28C347.765 353.367 347.765 353.463 347.73 353.55C347.702 353.627 347.652 353.693 347.586 353.741C347.52 353.79 347.441 353.817 347.36 353.82H347.21H347.06C344.102 353.133 341.027 353.112 338.06 353.76C338.002 353.771 337.942 353.769 337.885 353.753C337.827 353.737 337.775 353.709 337.73 353.67L339.12 352.73Z" fill="#3F72AF"/>
<path d="M350.89 348.32C351.79 351.663 352.204 355.119 352.12 358.58V358.64C352.118 358.744 352.076 358.842 352.004 358.917C351.931 358.991 351.833 359.035 351.73 359.04C351.622 359.035 351.52 358.988 351.446 358.91C351.371 358.832 351.33 358.728 351.33 358.62C351.33 358.26 351.33 357.9 351.33 357.54C351.305 354.114 350.789 350.71 349.8 347.43L350.89 348.32Z" fill="#3F72AF"/>
<path d="M359.07 369.49C359.067 369.595 359.024 369.696 358.95 369.77C358.876 369.844 358.775 369.887 358.67 369.89C358.617 369.894 358.563 369.887 358.513 369.868C358.462 369.849 358.417 369.819 358.38 369.78L358.24 369.65C357.39 368.9 352.75 365.15 346.69 367.18C346.603 367.215 346.507 367.215 346.42 367.18C346.683 367.106 346.924 366.969 347.123 366.78C347.322 366.592 347.472 366.359 347.56 366.1C349.228 365.741 350.951 365.724 352.625 366.051C354.299 366.377 355.89 367.04 357.3 368C357.866 368.354 358.398 368.759 358.89 369.21H358.94C359.016 369.284 359.063 369.384 359.07 369.49Z" fill="#3F72AF"/>
<path d="M364.54 368.07C364.421 371.153 363.789 374.195 362.67 377.07L362.62 377.18C362.589 377.25 362.539 377.31 362.475 377.353C362.411 377.395 362.337 377.419 362.26 377.42H362.08C361.984 377.372 361.91 377.29 361.873 377.19C361.836 377.089 361.838 376.979 361.88 376.88C362.005 376.599 362.115 376.312 362.21 376.02C363.183 373.117 363.706 370.082 363.76 367.02C363.961 367.41 364.224 367.765 364.54 368.07Z" fill="#3F72AF"/>
<path d="M375.64 363.86C374.015 368.758 373.257 373.902 373.4 379.06L389 397C395.27 392 402.84 384.12 406.37 373.8C407.492 370.488 408.188 367.047 408.44 363.56C409.76 347.88 402.98 333.91 402.98 333.91C402.98 333.91 382.24 344.58 375.64 363.86Z" fill="#3F72AF"/>
<g opacity="0.5">
<path opacity="0.2" d="M375.64 363.86C374.015 368.758 373.257 373.902 373.4 379.06L389 397C395.27 392 402.84 384.12 406.37 373.8C407.492 370.488 408.188 367.047 408.44 363.56C409.76 347.88 402.98 333.91 402.98 333.91C402.98 333.91 382.24 344.58 375.64 363.86Z" fill="white"/>
</g>
<path d="M391 393.21L403.49 407.64C411 406.75 419.79 404.48 427.42 399.18C445.06 386.94 449.82 363.28 449.82 363.28C449.82 363.28 432.72 360.52 416.82 367.1C413.857 368.319 411.032 369.847 408.39 371.66C399.9 377.5 394.41 386 391 393.21Z" fill="#3F72AF"/>
<path opacity="0.3" d="M391 393.21L403.49 407.64C411 406.75 419.79 404.48 427.42 399.18C445.06 386.94 449.82 363.28 449.82 363.28C449.82 363.28 432.72 360.52 416.82 367.1C413.857 368.319 411.032 369.847 408.39 371.66C399.9 377.5 394.41 386 391 393.21Z" fill="black"/>
<path d="M391.39 394.48L390.71 393.75C398.71 386.37 401.48 373.93 397.6 362.81C395.87 357.81 392.6 354.2 389.16 350.35C386.26 347.11 383.26 343.76 381.3 339.57C379.15 335 378.61 330.57 379.73 326.66C380.039 325.439 380.606 324.299 381.393 323.316C382.179 322.333 383.167 321.53 384.29 320.96C385.027 320.659 385.823 320.534 386.616 320.595C387.41 320.656 388.178 320.901 388.86 321.31C389.674 321.724 390.338 322.383 390.76 323.193C391.181 324.004 391.338 324.926 391.21 325.83C391.079 326.8 390.666 327.711 390.023 328.448C389.379 329.186 388.533 329.719 387.59 329.98C386.927 330.06 386.255 329.925 385.674 329.596C385.093 329.266 384.633 328.76 384.36 328.15C384.098 327.576 384.011 326.938 384.111 326.315C384.211 325.693 384.492 325.113 384.92 324.65L385.64 325.34C385.352 325.657 385.164 326.052 385.098 326.475C385.033 326.898 385.092 327.331 385.27 327.72C385.447 328.121 385.742 328.459 386.115 328.689C386.488 328.919 386.922 329.031 387.36 329.01C388.106 328.793 388.773 328.364 389.279 327.774C389.785 327.185 390.109 326.46 390.21 325.69C390.317 324.987 390.197 324.267 389.866 323.637C389.535 323.007 389.01 322.5 388.37 322.19C387.821 321.85 387.199 321.646 386.556 321.594C385.913 321.541 385.266 321.643 384.67 321.89C383.68 322.395 382.81 323.108 382.12 323.979C381.429 324.85 380.935 325.86 380.67 326.94C379.34 331.54 380.76 336.11 382.18 339.14C384.09 343.2 387.04 346.49 389.89 349.68C393.25 353.43 396.72 357.32 398.52 362.48C402.61 374.15 399.8 386.72 391.39 394.48Z" fill="#3F72AF"/>
<path d="M397.35 362.21C394.78 359.36 390.68 357.15 388.22 357.28L388.16 356.28C390.94 356.14 395.3 358.45 398.09 361.53L397.35 362.21Z" fill="#3F72AF"/>
<path d="M399.18 364.9L398.18 365.2C397.849 364.083 397.758 362.908 397.913 361.754C398.068 360.599 398.466 359.49 399.08 358.5L399.93 359.04C399.397 359.908 399.055 360.879 398.925 361.889C398.796 362.9 398.883 363.926 399.18 364.9Z" fill="#3F72AF"/>
<path d="M384.51 344.87C381.938 342.732 379.199 340.803 376.32 339.1L376.84 338.25C379.76 339.987 382.541 341.946 385.16 344.11L384.51 344.87Z" fill="#3F72AF"/>
<path d="M386.017 342.396L385.533 345.741L386.523 345.884L387.006 342.539L386.017 342.396Z" fill="#3F72AF"/>
<path d="M393.82 328.75C392.33 328.987 390.805 328.853 389.38 328.36L389.71 327.41C390.993 327.858 392.368 327.979 393.71 327.76L393.82 328.75Z" fill="#3F72AF"/>
<path d="M387.893 318.008L387.697 321.843L388.695 321.895L388.892 318.06L387.893 318.008Z" fill="#3F72AF"/>
<path d="M388.43 333.87C388.74 333.581 389.134 333.399 389.554 333.349C389.975 333.298 390.4 333.383 390.77 333.59C391.59 334.15 391.63 335.32 391.52 336.3C391.24 338.75 390.06 345.77 386.35 343.98C382.84 342.3 386.42 335.52 388.43 333.87Z" fill="#3F72AF"/>
<path d="M378.55 337.48C378.882 337.745 379.121 338.109 379.233 338.519C379.344 338.929 379.322 339.363 379.17 339.76C378.74 340.65 377.58 340.87 376.59 340.9C374.13 340.98 367.01 340.83 368.24 336.9C369.4 333.18 376.62 335.73 378.55 337.48Z" fill="#3F72AF"/>
<path d="M390.2 353.06C386.36 349.76 379.65 348.96 374.44 351.17C371.99 352.17 372.69 356.12 374.01 357.97C375.33 359.82 377.84 360.92 380.47 361.3C383.233 361.78 386.076 361.24 388.47 359.78C390.64 358.27 392.06 354.66 390.2 353.06Z" fill="#3F72AF"/>
<path d="M407.8 348.06C404.8 348.46 401.7 349.11 399.38 351.06C397.06 353.01 395.84 356.55 397.38 359.12C397.954 360.037 398.833 360.723 399.862 361.058C400.892 361.393 402.006 361.354 403.01 360.95C405.1 360.14 406.56 358.25 407.72 356.33C408.567 355.108 409.075 353.683 409.19 352.2C409.24 350.69 409.27 347.87 407.8 348.06Z" fill="#3F72AF"/>
<path d="M388.39 320.26C387.567 319.36 387.018 318.242 386.81 317.04C386.71 316.442 386.774 315.828 386.994 315.263C387.214 314.698 387.582 314.203 388.06 313.83C388.558 313.484 389.172 313.346 389.77 313.447C390.368 313.548 390.903 313.88 391.26 314.37C391.594 314.981 391.777 315.663 391.792 316.359C391.808 317.055 391.656 317.745 391.35 318.37C391.087 318.934 390.67 319.411 390.145 319.746C389.621 320.081 389.012 320.259 388.39 320.26Z" fill="#3F72AF"/>
<path d="M402.76 329.09C402.133 330.053 401.253 330.825 400.217 331.323C399.181 331.82 398.028 332.024 396.884 331.912C395.74 331.799 394.649 331.375 393.73 330.685C392.81 329.996 392.098 329.067 391.67 328C392.324 327.113 393.193 326.406 394.196 325.948C395.198 325.49 396.301 325.294 397.4 325.38C398.53 325.508 399.611 325.914 400.546 326.561C401.482 327.208 402.242 328.077 402.76 329.09Z" fill="#3F72AF"/>
<g opacity="0.3">
<path d="M391.39 394.48L390.71 393.75C398.71 386.37 401.48 373.93 397.6 362.81C395.87 357.81 392.6 354.2 389.16 350.35C386.26 347.11 383.26 343.76 381.3 339.57C379.15 335 378.61 330.57 379.73 326.66C380.039 325.439 380.606 324.299 381.393 323.316C382.179 322.333 383.167 321.53 384.29 320.96C385.027 320.659 385.823 320.534 386.616 320.595C387.41 320.656 388.178 320.901 388.86 321.31C389.674 321.724 390.338 322.383 390.76 323.193C391.181 324.004 391.339 324.926 391.21 325.83C391.079 326.8 390.666 327.711 390.023 328.448C389.379 329.186 388.533 329.719 387.59 329.98C386.927 330.06 386.256 329.925 385.674 329.596C385.093 329.266 384.633 328.76 384.36 328.15C384.098 327.576 384.012 326.938 384.111 326.315C384.211 325.693 384.492 325.113 384.92 324.65L385.64 325.34C385.352 325.657 385.164 326.052 385.098 326.475C385.033 326.898 385.092 327.331 385.27 327.72C385.447 328.121 385.742 328.459 386.115 328.689C386.488 328.919 386.922 329.031 387.36 329.01C388.106 328.793 388.773 328.364 389.279 327.774C389.785 327.185 390.109 326.46 390.21 325.69C390.317 324.987 390.197 324.267 389.866 323.637C389.535 323.007 389.01 322.5 388.37 322.19C387.821 321.85 387.2 321.646 386.556 321.594C385.913 321.541 385.266 321.643 384.67 321.89C383.68 322.395 382.81 323.108 382.12 323.979C381.429 324.85 380.935 325.86 380.67 326.94C379.34 331.54 380.76 336.11 382.18 339.14C384.09 343.2 387.04 346.49 389.89 349.68C393.25 353.43 396.72 357.32 398.52 362.48C402.61 374.15 399.8 386.72 391.39 394.48Z" fill="white"/>
<path d="M397.35 362.21C394.78 359.36 390.68 357.15 388.22 357.28L388.16 356.28C390.94 356.14 395.3 358.45 398.09 361.53L397.35 362.21Z" fill="white"/>
<path d="M399.18 364.9L398.18 365.2C397.849 364.083 397.758 362.908 397.913 361.754C398.068 360.599 398.466 359.49 399.08 358.5L399.93 359.04C399.397 359.908 399.055 360.879 398.925 361.889C398.796 362.9 398.883 363.926 399.18 364.9Z" fill="white"/>
<path d="M384.51 344.87C381.938 342.732 379.199 340.803 376.32 339.1L376.84 338.25C379.76 339.987 382.541 341.946 385.16 344.11L384.51 344.87Z" fill="white"/>
<path d="M386.017 342.396L385.533 345.741L386.523 345.884L387.006 342.539L386.017 342.396Z" fill="white"/>
<path d="M393.82 328.75C392.33 328.987 390.805 328.853 389.38 328.36L389.71 327.41C390.993 327.858 392.368 327.979 393.71 327.76L393.82 328.75Z" fill="white"/>
<path d="M387.893 318.008L387.697 321.843L388.695 321.895L388.892 318.06L387.893 318.008Z" fill="white"/>
<path d="M388.43 333.87C388.74 333.581 389.134 333.399 389.554 333.349C389.975 333.298 390.401 333.383 390.77 333.59C391.59 334.15 391.63 335.32 391.52 336.3C391.24 338.75 390.06 345.77 386.35 343.98C382.84 342.3 386.42 335.52 388.43 333.87Z" fill="white"/>
<path d="M378.55 337.48C378.882 337.745 379.121 338.109 379.233 338.519C379.344 338.929 379.322 339.363 379.17 339.76C378.74 340.65 377.58 340.87 376.59 340.9C374.13 340.98 367.01 340.83 368.24 336.9C369.4 333.18 376.62 335.73 378.55 337.48Z" fill="white"/>
<path d="M390.2 353.06C386.36 349.76 379.65 348.96 374.44 351.17C371.99 352.17 372.69 356.12 374.01 357.97C375.33 359.82 377.84 360.92 380.47 361.3C383.233 361.78 386.076 361.24 388.47 359.78C390.64 358.27 392.06 354.66 390.2 353.06Z" fill="white"/>
<path d="M407.8 348.06C404.8 348.46 401.7 349.11 399.38 351.06C397.06 353.01 395.84 356.55 397.38 359.12C397.954 360.037 398.833 360.723 399.862 361.058C400.892 361.393 402.006 361.354 403.01 360.95C405.1 360.14 406.56 358.25 407.72 356.33C408.567 355.108 409.075 353.683 409.19 352.2C409.24 350.69 409.27 347.87 407.8 348.06Z" fill="white"/>
<path d="M388.39 320.26C387.567 319.36 387.018 318.242 386.81 317.04C386.71 316.442 386.774 315.828 386.994 315.263C387.214 314.698 387.582 314.203 388.06 313.83C388.558 313.484 389.172 313.346 389.77 313.447C390.368 313.548 390.903 313.88 391.26 314.37C391.594 314.981 391.777 315.663 391.792 316.359C391.808 317.055 391.656 317.745 391.35 318.37C391.087 318.934 390.67 319.411 390.145 319.746C389.621 320.081 389.012 320.259 388.39 320.26Z" fill="white"/>
<path d="M402.76 329.09C402.133 330.053 401.253 330.825 400.217 331.323C399.181 331.82 398.028 332.024 396.884 331.912C395.74 331.799 394.649 331.375 393.73 330.685C392.81 329.996 392.098 329.067 391.67 328C392.324 327.113 393.193 326.406 394.196 325.948C395.198 325.49 396.301 325.294 397.4 325.38C398.53 325.508 399.611 325.914 400.547 326.561C401.482 327.208 402.242 328.077 402.76 329.09Z" fill="white"/>
</g>
<path d="M439.09 412.29H327.47V412.19C328.15 409.62 328.26 406.86 329.47 404.47C330.68 402.08 333.41 400.13 335.89 401.1C338.79 397.22 338.89 391.55 341.43 387.65C341.991 386.746 342.709 385.95 343.55 385.3C346.76 382.86 351.22 383.21 355.22 383.67C355 380.924 355.676 378.181 357.149 375.853C358.621 373.525 360.81 371.738 363.385 370.76C365.96 369.783 368.783 369.667 371.43 370.432C374.076 371.197 376.403 372.8 378.06 375C380.06 367.38 388.42 362.07 396.17 363.42C403.92 364.77 409.98 372.51 409.54 380.37C414.91 378.15 421.84 376.71 425.94 380.82C428.31 383.19 428.94 386.82 428.82 390.14C428.7 393.46 427.82 396.77 427.7 400.14C431.29 399.97 435.42 400 437.8 402.69C440 405.1 439.75 410.3 439.09 412.29Z" fill="#3F72AF"/>
<g opacity="0.2">
<path d="M439.09 412.29H327.47V412.19C328.15 409.62 328.26 406.86 329.47 404.47C330.68 402.08 333.41 400.13 335.89 401.1C338.79 397.22 338.89 391.55 341.43 387.65C341.991 386.746 342.709 385.95 343.55 385.3C346.76 382.86 351.22 383.21 355.22 383.67C355 380.924 355.676 378.181 357.149 375.853C358.621 373.525 360.81 371.738 363.385 370.76C365.96 369.783 368.783 369.667 371.43 370.432C374.076 371.197 376.403 372.8 378.06 375C380.06 367.38 388.42 362.07 396.17 363.42C403.92 364.77 409.98 372.51 409.54 380.37C414.91 378.15 421.84 376.71 425.94 380.82C428.31 383.19 428.94 386.82 428.82 390.14C428.7 393.46 427.82 396.77 427.7 400.14C431.29 399.97 435.42 400 437.8 402.69C440 405.1 439.75 410.3 439.09 412.29Z" fill="black"/>
</g>
<path d="M387.53 404.67C388.112 404.239 388.775 403.928 389.479 403.756C390.183 403.585 390.914 403.555 391.63 403.67C392.345 403.798 393.009 404.129 393.541 404.623C394.073 405.118 394.451 405.756 394.63 406.46C394.774 407.171 394.65 407.91 394.28 408.535C393.911 409.159 393.323 409.624 392.63 409.84C390.92 410.25 389.21 408.84 387.47 409.09C386.86 409.234 386.259 409.414 385.67 409.63C383.16 410.3 380.67 408.63 378.61 407.12C377.836 406.619 377.158 405.982 376.61 405.24C376.346 404.867 376.187 404.429 376.15 403.974C376.113 403.518 376.2 403.061 376.4 402.65C377.04 401.56 378.56 401.4 379.82 401.54C382.365 401.836 384.774 402.844 386.77 404.45C386.71 404.05 386.64 403.65 386.58 403.26L387.53 404.67Z" fill="#3F72AF"/>
<path d="M347.79 392.14C348.213 392.074 348.647 392.128 349.041 392.296C349.435 392.464 349.774 392.739 350.02 393.09C350.259 393.624 350.289 394.229 350.103 394.784C349.918 395.34 349.532 395.806 349.02 396.09C347.963 396.603 346.793 396.837 345.62 396.77C344.42 396.77 342.93 396.65 342.49 395.54C342.361 395.119 342.375 394.668 342.528 394.256C342.682 393.844 342.967 393.494 343.34 393.26C344.089 392.804 344.928 392.517 345.8 392.42C345.8 392.42 346.94 392.23 347.79 392.14Z" fill="#3F72AF"/>
<path d="M404.27 384C405.208 384.403 406.039 385.021 406.694 385.804C407.349 386.588 407.81 387.515 408.04 388.51C408.18 389.11 408.16 389.87 407.63 390.18C407.223 390.345 406.767 390.345 406.36 390.18L400.96 388.89C401.841 389.176 402.664 389.616 403.39 390.19C403.75 390.48 404.025 390.861 404.189 391.294C404.352 391.726 404.398 392.194 404.32 392.65C404.141 393.165 403.799 393.609 403.347 393.914C402.894 394.218 402.355 394.368 401.81 394.34C400.713 394.255 399.667 393.84 398.81 393.15C398.306 392.862 397.874 392.463 397.548 391.983C397.223 391.503 397.011 390.955 396.93 390.38C396.93 389.23 398.37 388.15 399.26 388.9C397.197 388.337 395.239 387.446 393.46 386.26C392.798 385.858 392.226 385.324 391.78 384.69C391.566 384.368 391.438 383.997 391.408 383.612C391.378 383.227 391.448 382.841 391.61 382.49C393.46 379.13 395.79 384.05 396.93 384.49C399.11 385.32 401.54 382.82 404.27 384Z" fill="#3F72AF"/>
<path d="M401.11 401.26C400.976 401.659 400.959 402.088 401.062 402.495C401.165 402.903 401.383 403.273 401.69 403.56C401.851 403.691 402.04 403.784 402.241 403.834C402.443 403.883 402.653 403.887 402.856 403.846C403.06 403.805 403.252 403.72 403.418 403.596C403.585 403.472 403.722 403.313 403.82 403.13C402.282 403.438 400.882 404.226 399.82 405.38C398.89 406.63 399.12 408.81 400.6 409.3C401.078 409.388 401.569 409.378 402.043 409.272C402.518 409.165 402.965 408.964 403.36 408.68C405.774 407.361 408.075 405.846 410.24 404.15C409.58 405.67 411.17 407.4 412.83 407.55C414.49 407.7 416.03 406.79 417.45 405.93C419.19 404.87 421.19 403.26 420.73 401.27C420.33 399.54 418.12 398.78 416.42 399.27C414.766 399.939 413.324 401.045 412.25 402.47C413.18 401.11 411.86 399.09 410.25 398.87C409.453 398.829 408.658 398.982 407.933 399.316C407.208 399.651 406.576 400.157 406.09 400.79C407.94 399.79 408.36 397.12 405.88 396.79C404.23 396.63 401.5 399.91 401.11 401.26Z" fill="#3F72AF"/>
<path d="M388.1 394.72C388.914 395.11 389.615 395.7 390.14 396.434C390.664 397.169 390.995 398.024 391.1 398.92C391.56 401.3 390.94 404.16 388.36 405.02C387.634 405.244 386.862 405.269 386.124 405.093C385.385 404.917 384.707 404.547 384.16 404.02C381.51 401.51 382.46 397.44 384.9 395.27C385.349 394.927 385.875 394.697 386.432 394.601C386.99 394.506 387.562 394.546 388.1 394.72Z" fill="#3F72AF"/>
<path d="M361.72 402.07C362.241 402.033 362.764 402.129 363.238 402.349C363.712 402.57 364.122 402.907 364.43 403.33C365.33 404.4 365.83 406.01 364.77 407.17C364.469 407.487 364.089 407.718 363.669 407.839C363.249 407.961 362.804 407.968 362.38 407.86C360.38 407.34 359.67 405.03 360.29 403.25C360.415 402.953 360.611 402.69 360.86 402.484C361.109 402.279 361.404 402.137 361.72 402.07Z" fill="#3F72AF"/>
<path d="M359.69 382C360.211 381.601 360.825 381.342 361.474 381.245C362.123 381.149 362.786 381.22 363.4 381.45C365.08 381.95 366.7 383.3 366.4 385.24C366.306 385.775 366.072 386.276 365.72 386.691C365.369 387.106 364.913 387.42 364.4 387.6C361.91 388.47 359.62 386.5 359.04 384.21C358.966 383.816 358.986 383.411 359.099 383.027C359.212 382.642 359.414 382.291 359.69 382Z" fill="#3F72AF"/>
<path d="M368.67 373C369.275 373.254 369.805 373.656 370.213 374.17C370.62 374.685 370.891 375.293 371 375.94C371.4 377.65 371 379.73 369.21 380.43C368.695 380.616 368.139 380.66 367.601 380.558C367.062 380.456 366.561 380.212 366.15 379.85C364.15 378.12 364.71 375.15 366.41 373.51C366.718 373.25 367.085 373.069 367.478 372.98C367.871 372.891 368.28 372.898 368.67 373Z" fill="#3F72AF"/>
<path d="M345.33 399.34C345.277 398.686 345.39 398.03 345.659 397.431C345.929 396.833 346.345 396.313 346.87 395.92C348.19 394.78 350.21 394.13 351.68 395.44C352.081 395.816 352.375 396.292 352.531 396.819C352.688 397.347 352.701 397.906 352.57 398.44C351.95 401 349.06 401.87 346.82 401.13C346.447 400.972 346.117 400.727 345.858 400.416C345.599 400.104 345.418 399.735 345.33 399.34Z" fill="#3F72AF"/>
<path d="M371.49 389.51L370.87 390.04C371.258 389.554 371.787 389.2 372.385 389.027C372.983 388.855 373.619 388.873 374.206 389.078C374.794 389.284 375.302 389.666 375.662 390.174C376.022 390.681 376.216 391.288 376.216 391.91C376.216 392.532 376.022 393.139 375.662 393.646C375.302 394.153 374.794 394.536 374.206 394.742C373.619 394.947 372.983 394.965 372.385 394.793C371.787 394.62 371.258 394.266 370.87 393.78C370.003 394.195 369.025 394.321 368.081 394.141C367.136 393.961 366.274 393.484 365.62 392.78C365.321 392.412 365.102 391.985 364.975 391.528C364.849 391.071 364.819 390.592 364.887 390.123C364.954 389.653 365.118 389.202 365.368 388.799C365.618 388.396 365.949 388.049 366.34 387.78C368.01 386.83 370.54 388.25 370.34 390.16L371.07 389.35L371.49 389.51Z" fill="#3F72AF"/>
<path d="M352.51 390.31C352.97 391.91 352.3 393.98 350.69 394.42C349.08 394.86 347.54 393.57 346.59 392.21C345.64 390.85 344.82 389.33 345.52 388.01C348 383.39 352 388.71 352.51 390.31Z" fill="#3F72AF"/>
<path d="M418 392.91C416.44 393.5 414.32 392.99 413.75 391.42C413.18 389.85 414.36 388.21 415.64 387.16C416.92 386.11 418.37 385.16 419.74 385.77C424.52 387.84 419.54 392.31 418 392.91Z" fill="#3F72AF"/>
<path d="M396 375.67C395 377.03 393 377.77 391.65 376.78C390.3 375.79 390.37 373.78 390.86 372.2C391.35 370.62 392.03 369.03 393.5 368.76C398.65 367.83 397 374.32 396 375.67Z" fill="#3F72AF"/>
<path d="M391.08 374.86C391.185 375.493 391.046 376.142 390.689 376.675C390.332 377.209 389.785 377.586 389.16 377.73C387.89 377.85 386.89 376.67 386.36 375.51C385.83 374.35 385.36 373.1 386.11 372.2C388.57 369 390.94 373.59 391.08 374.86Z" fill="#3F72AF"/>
<path d="M402.63 380C402.038 380.245 401.374 380.254 400.775 380.025C400.177 379.796 399.688 379.347 399.41 378.77C399 377.57 399.93 376.32 400.93 375.54C401.93 374.76 403.07 374.07 404.11 374.54C407.75 376.18 403.84 379.52 402.63 380Z" fill="#3F72AF"/>
<path d="M381.49 384.36C381.668 384.042 381.908 383.762 382.197 383.539C382.485 383.315 382.815 383.152 383.168 383.059C383.521 382.965 383.889 382.944 384.25 382.996C384.611 383.047 384.958 383.171 385.27 383.36C385.879 383.785 386.326 384.404 386.538 385.116C386.751 385.828 386.716 386.59 386.44 387.28C386.139 387.959 385.663 388.546 385.06 388.98C384.457 389.415 383.75 389.68 383.01 389.75C381.18 389.95 379.01 388.48 379.44 386.69C379.019 387.175 378.485 387.549 377.885 387.778C377.284 388.006 376.637 388.083 376 388C374.71 387.809 373.476 387.346 372.38 386.64C370.84 385.76 369.21 384.39 369.38 382.64C369.498 381.943 369.847 381.306 370.372 380.833C370.896 380.359 371.565 380.076 372.27 380.03C372.974 380.003 373.677 380.116 374.337 380.362C374.998 380.607 375.604 380.98 376.12 381.46C376.898 382.245 377.716 382.989 378.57 383.69C379.002 384.037 379.52 384.262 380.069 384.341C380.617 384.42 381.177 384.351 381.69 384.14L381.49 384.36Z" fill="#3F72AF"/>
<path d="M127.11 404.52L129.37 388.68L137.25 391.42L132.69 405.96L127.11 404.52Z" fill="#CB7A63"/>
<path d="M132.44 405.28L127.12 403C127.007 402.952 126.882 402.943 126.763 402.976C126.645 403.009 126.542 403.081 126.47 403.18L123.22 407.7C123.149 407.794 123.097 407.901 123.068 408.015C123.038 408.13 123.032 408.249 123.05 408.365C123.068 408.482 123.109 408.594 123.171 408.694C123.233 408.795 123.314 408.882 123.41 408.95C123.459 408.988 123.513 409.018 123.57 409.04C125.8 409.95 127.82 410.68 130.57 411.86C133.82 413.26 132.83 413.29 136.63 414.99C138.92 415.99 140.46 413.57 139.54 412.99C135.31 410.51 134.61 408.59 133.54 406.25C133.297 405.809 132.908 405.466 132.44 405.28Z" fill="#263238"/>
<path d="M167 270.11C167 270.11 160.36 325.58 151 351.25C141.64 376.92 136.87 393 136.87 393L129 390.72C129 390.72 131.8 358.72 137.66 341.72C137.93 340.95 138.2 340.22 138.48 339.52C140.149 335.341 140.959 330.869 140.86 326.37V326.23C140.67 318.23 140.5 306.38 140.93 299.79C140.274 289.777 142.289 279.769 146.77 270.79L167 270.11Z" fill="#263238"/>
<path opacity="0.1" d="M161.1 290.81L162.93 298.52C161.8 305.52 160.45 313.15 158.93 320.68C158.536 316.473 157.129 312.425 154.83 308.88C150.208 302.089 148.441 293.752 149.91 285.67L161.1 290.81Z" fill="black"/>
<path d="M138.37 391.09L136.94 394.44L128.13 392.04L128.47 388.39L138.37 391.09Z" fill="#263238"/>
<path opacity="0.6" d="M138.37 391.09L136.94 394.44L128.13 392.04L128.47 388.39L138.37 391.09Z" fill="white"/>
<path d="M197.99 372.99L200.7 392.2L195.36 392.95L189.43 373.93L197.99 372.99Z" fill="#CB7A63"/>
<path d="M200.4 390.31L194.51 391.31C194.385 391.332 194.271 391.395 194.186 391.489C194.101 391.584 194.049 391.703 194.04 391.83L193.74 397.57C193.729 397.693 193.743 397.816 193.78 397.933C193.818 398.05 193.879 398.159 193.959 398.252C194.039 398.345 194.137 398.421 194.247 398.476C194.357 398.531 194.477 398.563 194.6 398.57C194.666 398.58 194.734 398.58 194.8 398.57C197.24 398.12 199.4 397.62 202.46 397.12C206.06 396.52 205.22 397.12 209.46 396.46C212.02 396.07 212 393.09 210.9 393.12C205.84 393.32 204.15 392.05 201.95 390.59C201.486 390.307 200.934 390.207 200.4 390.31Z" fill="#263238"/>
<path d="M175.16 271.66C175.16 271.66 194.26 308.99 196.16 320.66C198.06 332.33 199.52 380.11 199.52 380.11L190.69 382.21C186.589 366.769 184.066 350.951 183.16 335C183.08 333.27 182.65 331.62 182.47 330C181.72 323.39 158.8 303.39 158.8 303.39C158.8 303.39 142.33 299.9 147.75 271.93L175.16 271.66Z" fill="#263238"/>
<path d="M200.02 378.17L200.2 381.93L191.2 383.65L189.6 380.16L200.02 378.17Z" fill="#263238"/>
<path opacity="0.6" d="M200.02 378.17L200.2 381.93L191.2 383.65L189.6 380.16L200.02 378.17Z" fill="white"/>
<path d="M146.9 239.41C146.9 239.41 152.99 252.84 155.15 256.01C157.31 259.18 179.66 267.12 179.66 267.12L183.59 270.25C183.801 270.419 184.045 270.544 184.306 270.616C184.567 270.688 184.84 270.706 185.109 270.67C185.377 270.633 185.635 270.543 185.867 270.404C186.1 270.264 186.301 270.079 186.46 269.86L188.46 267.08C188.64 266.832 188.76 266.547 188.812 266.245C188.864 265.943 188.846 265.634 188.76 265.34L188.54 264.6C188.421 264.198 188.178 263.843 187.846 263.587C187.514 263.33 187.109 263.184 186.69 263.17L181.36 262.99C181.36 262.99 162.58 254.93 160.75 251.78C158.92 248.63 154.61 237.51 154.61 237.51L146.9 239.41Z" fill="#CB7A63"/>
<path d="M143.2 226.88C143.2 226.88 139.32 229.07 147.94 245.77C147.94 245.77 150.5 246.97 158.04 242.52C158 242.52 155.29 229 143.2 226.88Z" fill="#3F72AF"/>
<path opacity="0.4" d="M143.2 226.88C143.2 226.88 139.32 229.07 147.94 245.77C147.94 245.77 150.5 246.97 158.04 242.52C158 242.52 155.29 229 143.2 226.88Z" fill="white"/>
<path d="M165.76 201.46C166.061 201.473 166.362 201.418 166.639 201.298C166.916 201.179 167.163 200.998 167.36 200.77C167.267 201.095 167.066 201.379 166.789 201.573C166.512 201.768 166.177 201.862 165.84 201.84L165.76 201.46Z" fill="#263238"/>
<path d="M167.49 202.17C167.61 202.61 167.49 203.02 167.19 203.1C166.89 203.18 166.56 202.87 166.46 202.45C166.36 202.03 166.46 201.6 166.76 201.53C167.06 201.46 167.37 201.74 167.49 202.17Z" fill="#263238"/>
<path d="M166.1 203.8L168.97 206.8C168.97 206.8 168.85 207.91 167.15 207.66L166.1 203.8Z" fill="#D4827D"/>
<path d="M164.65 201C164.688 201.004 164.727 200.997 164.762 200.982C164.797 200.966 164.827 200.941 164.85 200.91C165.023 200.672 165.25 200.478 165.513 200.344C165.775 200.21 166.065 200.14 166.36 200.14C166.42 200.143 166.48 200.123 166.526 200.084C166.573 200.045 166.603 199.99 166.61 199.93C166.613 199.867 166.592 199.805 166.551 199.757C166.51 199.708 166.453 199.677 166.39 199.67C166.014 199.67 165.644 199.76 165.312 199.935C164.979 200.109 164.694 200.361 164.48 200.67C164.438 200.714 164.414 200.774 164.414 200.835C164.414 200.896 164.438 200.955 164.48 201C164.507 201.012 164.536 201.018 164.565 201.018C164.594 201.018 164.623 201.012 164.65 201Z" fill="#263238"/>
<path d="M149.15 204.66C150.15 211.02 150.48 213.74 154.04 216.66C159.31 219.51 167.04 218.46 167.88 211.91C168.68 206.03 166.88 196.64 160.34 194.68C158.903 194.251 157.381 194.195 155.917 194.52C154.453 194.844 153.096 195.537 151.976 196.532C150.855 197.528 150.007 198.794 149.512 200.209C149.018 201.625 148.893 203.143 149.15 204.62V204.66Z" fill="#CB7A63"/>
<path d="M152.36 213.05C152.36 213.05 154.36 221.29 151.29 224.42L162.29 224.96C162.29 224.96 158.42 222.29 160.03 214.66C157.758 213.2 155.028 212.627 152.36 213.05Z" fill="#CB7A63"/>
<path d="M175.4 271.57C175.4 271.57 175.56 259.89 175.3 250.78C175.2 247.24 176.48 246.2 176.3 242.1C176.19 238.99 174.3 235.81 173.91 233.91C172.85 228.62 173.21 221.79 165.27 223.07L145.83 224.55C145.207 224.597 144.603 224.782 144.06 225.09C143.516 225.398 143.048 225.822 142.688 226.332C142.328 226.843 142.085 227.426 141.976 228.041C141.868 228.656 141.896 229.287 142.06 229.89C144.35 238.23 148.56 255.74 145.94 272.49L175.4 271.57Z" fill="#3F72AF"/>
<path opacity="0.4" d="M175.4 271.57C175.4 271.57 175.56 259.89 175.3 250.78C175.2 247.24 176.48 246.2 176.3 242.1C176.19 238.99 174.3 235.81 173.91 233.91C172.85 228.62 173.21 221.79 165.27 223.07L145.83 224.55C145.207 224.597 144.603 224.782 144.06 225.09C143.516 225.398 143.048 225.822 142.688 226.332C142.328 226.843 142.085 227.426 141.976 228.041C141.868 228.656 141.896 229.287 142.06 229.89C144.35 238.23 148.56 255.74 145.94 272.49L175.4 271.57Z" fill="black"/>
<path d="M156.3 193.25C157.491 192.886 158.743 192.765 159.981 192.893C161.22 193.021 162.42 193.397 163.511 193.997C164.602 194.598 165.561 195.411 166.332 196.389C167.103 197.367 167.671 198.489 168 199.69C168.93 197.39 167.56 194.45 165.73 192.76C164.788 191.948 163.679 191.354 162.481 191.021C161.283 190.687 160.026 190.622 158.8 190.83C158.082 190.891 157.392 191.14 156.8 191.55C156.553 191.748 156.373 192.018 156.283 192.322C156.194 192.625 156.2 192.95 156.3 193.25Z" fill="#263238"/>
<path d="M164 194.35C160.8 190.69 154.69 189.59 152.24 192.8C150.24 191.51 143.57 193.37 142.29 196.38C138.99 204.14 141.91 212.31 152.91 217.38C152.91 217.38 160.02 218.17 159.97 212.94C159.88 202.94 163.25 211.04 165.48 200.61C165.697 199.522 165.676 198.399 165.421 197.319C165.166 196.239 164.681 195.226 164 194.35Z" fill="#263238"/>
<path d="M163.05 205.65C163.453 206.936 163.41 208.321 162.93 209.58C163.226 209.343 163.458 209.036 163.604 208.687C163.751 208.337 163.808 207.957 163.77 207.58C163.815 207.224 163.773 206.862 163.647 206.526C163.522 206.19 163.317 205.889 163.05 205.65Z" fill="#263238"/>
<path d="M162.69 205.35C163.711 206.213 164.415 207.392 164.69 208.7C164.807 208.345 164.834 207.967 164.77 207.599C164.705 207.231 164.551 206.884 164.32 206.59C163.91 205.93 163.48 205.38 162.69 205.35Z" fill="#263238"/>
<path d="M162.5 204.83C162.84 205.33 163.078 205.892 163.2 206.484C163.322 207.076 163.325 207.687 163.21 208.28C162.89 209.87 161.28 209.94 160.16 208.89C159.04 207.84 158.1 205.99 159.01 204.68C159.211 204.397 159.48 204.168 159.792 204.015C160.104 203.863 160.449 203.79 160.796 203.805C161.143 203.82 161.481 203.922 161.778 204.101C162.076 204.28 162.324 204.531 162.5 204.83Z" fill="#CB7A63"/>
<path d="M166.69 240.3L160.62 252.84C159.91 258.84 158.92 277.12 158.92 277.12L161.38 283.18C161.529 283.544 161.554 283.947 161.451 284.327C161.348 284.706 161.123 285.041 160.81 285.28L160.18 285.76C159.986 285.905 159.765 286.01 159.529 286.068C159.294 286.127 159.05 286.137 158.81 286.1L154.81 285.45C154.57 285.412 154.341 285.326 154.136 285.196C153.931 285.066 153.755 284.896 153.618 284.695C153.481 284.495 153.387 284.268 153.341 284.03C153.295 283.792 153.298 283.547 153.35 283.31L154.81 276.38C154.81 276.38 152.88 255.6 153.56 251.56C154.24 247.52 158.22 238.05 158.22 238.05L166.69 240.3Z" fill="#CB7A63"/>
<path d="M172.6 227.59C172.27 230.96 171.05 236.59 167.25 244.88C167.25 244.88 160.25 244.99 155.46 241.51C155.46 241.51 158.55 224.79 168.16 223.29C168.75 223.21 169.35 223.264 169.916 223.45C170.481 223.635 170.998 223.947 171.425 224.361C171.853 224.775 172.181 225.281 172.384 225.84C172.588 226.4 172.662 226.998 172.6 227.59Z" fill="#3F72AF"/>
<path opacity="0.3" d="M172.6 227.59C172.27 230.96 171.05 236.59 167.25 244.88C167.25 244.88 160.25 244.99 155.46 241.51C155.46 241.51 158.55 224.79 168.16 223.29C168.75 223.21 169.35 223.264 169.916 223.45C170.481 223.635 170.998 223.947 171.425 224.361C171.853 224.775 172.181 225.281 172.384 225.84C172.588 226.4 172.662 226.998 172.6 227.59Z" fill="black"/>
<path opacity="0.1" d="M159.6 218.18C159.6 218.18 159.37 215.98 159.39 214.66C159.39 214.66 161 217.58 163.39 217.38L164.47 217.12C162.965 217.886 161.287 218.251 159.6 218.18Z" fill="black"/>
<path d="M200.4 390.31L194.51 391.31C194.385 391.332 194.271 391.395 194.186 391.489C194.101 391.584 194.049 391.703 194.04 391.83L193.74 397.57C193.729 397.693 193.743 397.816 193.78 397.933C193.818 398.05 193.879 398.159 193.959 398.252C194.039 398.345 194.137 398.421 194.247 398.476C194.357 398.531 194.477 398.563 194.6 398.57C194.666 398.58 194.734 398.58 194.8 398.57C197.24 398.12 199.4 397.62 202.46 397.12C206.06 396.52 205.22 397.12 209.46 396.46C212.02 396.07 212 393.09 210.9 393.12C205.84 393.32 204.15 392.05 201.95 390.59C201.486 390.307 200.934 390.207 200.4 390.31Z" fill="#263238"/>
</svg>
